<svg width="46" height="43" viewBox="0 0 46 43" fill="none" xmlns="http://www.w3.org/2000/svg">
<ellipse cx="23.16" cy="21.5" rx="22.36" ry="21.5" fill="#FBEDFC"/>
<path d="M14.0925 18.4042H31.9165" stroke="#AE8AB6" stroke-width="1.5" stroke-linecap="round" stroke-linejoin="round"/>
<path d="M27.442 22.3097H27.4512" stroke="#AE8AB6" stroke-width="1.5" stroke-linecap="round" stroke-linejoin="round"/>
<path d="M23.0047 22.3097H23.014" stroke="#AE8AB6" stroke-width="1.5" stroke-linecap="round" stroke-linejoin="round"/>
<path d="M18.5579 22.3097H18.5672" stroke="#AE8AB6" stroke-width="1.5" stroke-linecap="round" stroke-linejoin="round"/>
<path d="M27.442 26.1962H27.4512" stroke="#AE8AB6" stroke-width="1.5" stroke-linecap="round" stroke-linejoin="round"/>
<path d="M23.0047 26.1962H23.014" stroke="#AE8AB6" stroke-width="1.5" stroke-linecap="round" stroke-linejoin="round"/>
<path d="M18.5579 26.1962H18.5672" stroke="#AE8AB6" stroke-width="1.5" stroke-linecap="round" stroke-linejoin="round"/>
<path d="M27.0438 11V14.2908" stroke="#AE8AB6" stroke-width="1.5" stroke-linecap="round" stroke-linejoin="round"/>
<path d="M18.9654 11V14.2908" stroke="#AE8AB6" stroke-width="1.5" stroke-linecap="round" stroke-linejoin="round"/>
<path fill-rule="evenodd" clip-rule="evenodd" d="M27.2383 12.5792H18.771C15.8343 12.5792 14 14.2152 14 17.2222V26.2719C14 29.3263 15.8343 31 18.771 31H27.229C30.175 31 32 29.3546 32 26.3475V17.2222C32.0092 14.2152 30.1842 12.5792 27.2383 12.5792Z" stroke="#AE8AB6" stroke-width="1.5" stroke-linecap="round" stroke-linejoin="round"/>
</svg>
