<svg width="46" height="43" viewBox="0 0 46 43" fill="none" xmlns="http://www.w3.org/2000/svg">
<ellipse cx="23.16" cy="21.5" rx="22.36" ry="21.5" fill="#FBEDFC"/>
<mask id="mask0_146_792" style="mask-type:luminance" maskUnits="userSpaceOnUse" x="12" y="13" width="22" height="20">
<path fill-rule="evenodd" clip-rule="evenodd" d="M12.2401 13H33.5315V32.501H12.2401V13Z" fill="white"/>
</mask>
<g mask="url(#mask0_146_792)">
<path fill-rule="evenodd" clip-rule="evenodd" d="M14.1367 22.1231C15.5947 26.4851 21.3553 30.0121 22.8862 30.8851C24.4223 30.0031 30.2244 26.4371 31.6357 22.1271C32.5623 19.3411 31.7023 15.8121 28.2848 14.7531C26.6291 14.2421 24.6979 14.5531 23.3646 15.5451C23.0859 15.7511 22.699 15.7551 22.4182 15.5511C21.0059 14.5301 19.1609 14.2311 17.4792 14.7531C14.067 15.8111 13.21 19.3401 14.1367 22.1231ZM22.8872 32.5011C22.7583 32.5011 22.6303 32.4711 22.5139 32.4101C22.1883 32.2391 14.5204 28.1751 12.6515 22.5811C12.6505 22.5811 12.6505 22.5801 12.6505 22.5801C11.4774 19.0581 12.7836 14.6321 17.0008 13.3251C18.981 12.7091 21.139 12.9801 22.8841 14.0391C24.5751 13.0111 26.8215 12.7271 28.7622 13.3251C32.9835 14.6341 34.2939 19.0591 33.1219 22.5801C31.3133 28.1101 23.5892 32.2351 23.2616 32.4081C23.1451 32.4701 23.0162 32.5011 22.8872 32.5011Z" fill="#AE8AB6"/>
</g>
<path fill-rule="evenodd" clip-rule="evenodd" d="M29.0399 20.625C28.6374 20.625 28.2963 20.328 28.263 19.936C28.1944 19.114 27.6224 18.42 26.808 18.167C26.3972 18.039 26.1726 17.616 26.3047 17.223C26.4388 16.829 26.8746 16.615 27.2864 16.739C28.704 17.18 29.6972 18.387 29.8188 19.814C29.8532 20.227 29.5339 20.589 29.1044 20.622C29.0825 20.624 29.0617 20.625 29.0399 20.625Z" fill="#AE8AB6"/>
</svg>
