<svg width="46" height="43" viewBox="0 0 46 43" fill="none" xmlns="http://www.w3.org/2000/svg">
<ellipse cx="23.16" cy="21.5" rx="22.36" ry="21.5" fill="#FBEDFC"/>
<path d="M22.5346 12.5566H19.1072C16.2885 12.5566 14.5211 14.5522 14.5211 17.3774V24.9986C14.5211 27.8237 16.2802 29.8193 19.1072 29.8193H27.1959C30.0238 29.8193 31.7829 27.8237 31.7829 24.9986V21.3062" stroke="#AE8AB6" stroke-width="1.5" stroke-linecap="round" stroke-linejoin="round"/>
<path fill-rule="evenodd" clip-rule="evenodd" d="M20.0921 20.0109L26.9423 13.1606C27.7957 12.3081 29.179 12.3081 30.0324 13.1606L31.148 14.2762C32.0014 15.1296 32.0014 16.5138 31.148 17.3663L24.2647 24.2495C23.8917 24.6226 23.3857 24.8325 22.8577 24.8325H19.4238L19.51 21.3675C19.5228 20.8579 19.7309 20.372 20.0921 20.0109Z" stroke="#AE8AB6" stroke-width="1.5" stroke-linecap="round" stroke-linejoin="round"/>
<path d="M25.9014 14.219L30.0869 18.4045" stroke="#AE8AB6" stroke-width="1.5" stroke-linecap="round" stroke-linejoin="round"/>
</svg>
