<svg width="370" height="270" viewBox="0 0 370 270" fill="none" xmlns="http://www.w3.org/2000/svg">
<rect x="0.800049" y="269" width="348.4" height="1" fill="#E8F3F1"/>
<g opacity="0.7">
<path d="M295.51 207.748C287.63 207.646 280.932 214.473 280.88 222.635C280.846 230.814 287.304 237.778 295.15 238C302.825 238.223 310.636 230.437 310.499 222.686C310.362 214.884 303.304 207.834 295.493 207.748H295.51Z" fill="#633C66"/>
<path d="M459.122 126.283C451.79 126.129 427.79 126.095 420.459 126.351C398.686 127.104 384.93 141.186 384.639 162.986C384.502 173.783 384.622 184.58 384.622 200.151C384.296 208.809 385.478 222.275 384.073 235.69C383.046 245.461 377.341 250.508 367.971 250.235C359.594 249.995 353.941 243.887 353.701 234.39C353.496 225.629 353.615 216.868 353.598 208.107C353.547 185.316 340.271 171.986 317.487 171.901C308.305 171.866 299.123 172.038 289.942 171.798C282.61 171.61 277.094 167.195 275.757 160.573C274.507 154.362 277.573 149.93 282.507 146.696C286.019 144.386 290.113 144.078 294.276 144.078C315.295 144.112 336.297 144.215 357.316 144.01C373.315 143.856 391.165 137.781 398.977 115.931C403.294 103.833 404.698 86.3115 400.844 70.518C397.058 54.9984 381.675 45.3649 365.812 47.23C350.772 48.9924 338.506 61.7914 337.616 77.2084C337.016 87.5777 337.239 97.9812 336.742 108.35C336.245 118.583 321.633 124.161 311.32 125.479C301.762 126.693 292.168 125.923 282.593 126.18C277.042 126.317 271.646 126.779 266.541 129.328C253.539 135.848 245.659 151.419 248.623 164.988C252.237 181.585 264.965 192.588 281.205 192.844C293.025 193.033 304.862 192.793 316.699 192.896C330.678 193.016 337.153 199.535 337.359 213.634C337.479 221.368 337.222 229.12 337.461 236.854C337.975 253.725 351.765 267.157 368.707 267.517C385.632 267.876 399.148 255.556 400.399 238.343C400.964 230.626 400.93 222.874 401.29 215.14C401.992 200.014 409.221 193.152 424.398 192.93C432.33 192.81 456.912 193.478 464.792 191.766C480.775 188.31 493.486 172.876 492.304 158.092C490.813 139.561 477.434 126.676 459.122 126.283Z" fill="#633C66"/>
</g>
<ellipse cx="62" cy="56" rx="58" ry="56" fill="#FBEDFC"/>
<path d="M61.2177 87.9998C49.2879 87.9998 37.3582 87.9998 25.4266 87.9998C24.0331 87.9998 24.0037 87.9722 24.0037 86.5438C24.0037 67.7739 24 49.004 24 30.2359C24 29.807 24 29.3745 24.0515 28.9511C24.197 27.7344 25.0805 26.9686 26.2972 26.9742C27.4366 26.9797 28.4362 27.8485 28.565 28.975C28.6092 29.3689 28.5853 29.7721 28.5853 30.1697C28.5853 47.2516 28.5853 64.3335 28.5853 81.4155C28.5853 81.6916 28.6165 81.9714 28.5816 82.242C28.4638 83.1495 28.8761 83.3648 29.7375 83.3648C46.698 83.3427 63.6566 83.3483 80.6171 83.3483C85.9846 83.3483 91.3504 83.3446 96.7179 83.3538C97.2039 83.3538 97.7046 83.3851 98.1758 83.4955C99.3115 83.7606 99.9153 84.6073 99.884 85.7872C99.8509 86.9616 99.1863 87.7494 98.0193 87.9519C97.6898 88.009 97.3475 87.9979 97.0106 87.9979C85.0809 87.9998 73.1511 87.9979 61.2195 87.9979V87.9943L61.2177 87.9998Z" fill="#927494"/>
<path d="M92.2708 24.2501C92.0665 27.0093 92.131 29.7723 91.9506 32.5278C91.9285 32.8518 92.0831 33.2807 91.761 33.4703C91.3744 33.6985 91.0965 33.2788 90.7964 33.104C89.3938 32.2849 87.9838 31.4731 86.6161 30.5969C86.0142 30.2104 85.6847 30.2545 85.3129 30.8822C83.3764 34.1532 81.3774 37.3874 79.4686 40.6731C78.9882 41.4995 78.5059 41.6321 77.6187 41.4038C71.7449 39.8926 65.8509 38.4568 59.9753 36.9493C59.1138 36.7284 58.5763 36.9124 57.9615 37.5365C53.1149 42.4457 48.2314 47.3181 43.3572 52.2015C42.8381 52.7225 42.3411 53.2728 41.7779 53.7404C40.7342 54.6055 39.3168 54.4859 38.4793 53.5158C37.7743 52.6985 37.87 51.1744 38.7167 50.324C43.9315 45.0908 49.1536 39.865 54.3721 34.6355C55.1084 33.8973 55.8594 33.1721 56.5571 32.399C57.1074 31.7897 57.6689 31.6222 58.499 31.8376C63.896 33.2328 69.3096 34.5692 74.7158 35.9313C76.5602 36.3952 76.5805 36.4154 77.5782 34.7864C78.8593 32.6953 80.0797 30.5675 81.3682 28.4801C81.7327 27.8892 81.6351 27.5781 81.059 27.2449C79.522 26.3522 78.0163 25.4042 76.4811 24.5096C75.7908 24.1065 75.8295 23.8727 76.5197 23.4899C81.3756 20.8061 86.2167 18.0929 91.0615 15.3888C92.1751 14.7667 92.2708 14.8219 92.2708 16.0644C92.269 18.7923 92.2708 21.5203 92.2708 24.2501Z" fill="#927494"/>
<path d="M92.2815 59.0863C92.2815 65.0373 92.2815 70.9884 92.2815 76.9395C92.2815 78.1341 92.2171 78.2041 91.0464 78.2059C88.6534 78.2096 86.2605 78.1912 83.8694 78.2133C83.1 78.2206 82.776 77.9611 82.7778 77.1438C82.7962 66.7142 82.7907 56.2847 82.7889 45.8551C82.7889 45.4502 82.8496 45.0802 83.0687 44.7176C84.4014 42.5142 85.7359 40.3109 87.0244 38.0817C87.4054 37.4228 87.7699 37.3086 88.4068 37.7173C89.4118 38.3634 90.4389 38.98 91.4826 39.5635C92.0919 39.9041 92.3018 40.3477 92.2999 41.049C92.2741 47.0608 92.2852 53.0726 92.2852 59.0863H92.2815Z" fill="#927494"/>
<path d="M62.8504 60.5971C62.8504 66.0236 62.8504 71.4501 62.8504 76.8784C62.8504 78.1632 62.8081 78.2055 61.4864 78.2055C59.1561 78.2055 56.8257 78.1834 54.4953 78.2147C53.6707 78.2258 53.3614 77.9441 53.3633 77.0919C53.3854 68.1699 53.3762 59.2479 53.3707 50.3259C53.3707 49.851 53.4277 49.435 53.7959 49.0705C55.8023 47.0899 57.8436 45.1406 59.7653 43.0808C60.6618 42.1199 61.4441 42.7881 62.2687 42.9611C63.0971 43.136 62.843 43.8723 62.8449 44.4079C62.8596 49.805 62.8541 55.2001 62.8541 60.5971H62.8486H62.8504Z" fill="#927494"/>
<path d="M68.0874 61.2615C68.0874 56.0486 68.0874 50.8375 68.0874 45.6245C68.0874 44.4428 68.1297 44.3949 69.2931 44.6784C71.7339 45.2711 74.1618 45.9098 76.6081 46.4768C77.3536 46.6498 77.5819 47.0124 77.5819 47.7506C77.5634 57.5303 77.5634 67.3101 77.5855 77.0917C77.5874 77.944 77.2763 78.2275 76.4553 78.2164C74.0329 78.187 71.6105 78.1851 69.19 78.2164C68.358 78.2275 68.0708 77.9274 68.0745 77.0825C68.1039 71.8089 68.0892 66.5352 68.0892 61.2633L68.0874 61.2615Z" fill="#927494"/>
<path d="M48.2224 66.5018C48.2224 70.0581 48.2076 73.6144 48.2334 77.1707C48.2389 77.9217 47.9812 78.2217 47.221 78.2144C44.7066 78.1904 42.1921 78.1886 39.6777 78.2144C38.8696 78.2236 38.6266 77.8941 38.6322 77.1099C38.6616 72.9701 38.6579 68.8303 38.6322 64.6905C38.6285 64.0444 38.8512 63.6045 39.3059 63.1738C41.9823 60.6501 44.6366 58.1026 47.3075 55.5716C47.5174 55.3728 47.6922 54.9457 48.0088 55.0911C48.3549 55.2494 48.1984 55.6967 48.1984 56.017C48.2076 59.5126 48.204 63.0063 48.204 66.5018C48.2095 66.5018 48.2168 66.5018 48.2224 66.5018Z" fill="#927494"/>
<path d="M140.705 39.3636L143.733 48.5227H143.852L146.875 39.3636H149.193L145.091 51H142.489L138.392 39.3636H140.705ZM150.635 51V42.2727H152.692V51H150.635ZM151.669 41.0341C151.343 41.0341 151.063 40.9261 150.828 40.7102C150.593 40.4905 150.476 40.2273 150.476 39.9205C150.476 39.6098 150.593 39.3466 150.828 39.1307C151.063 38.911 151.343 38.8011 151.669 38.8011C151.999 38.8011 152.279 38.911 152.51 39.1307C152.745 39.3466 152.862 39.6098 152.862 39.9205C152.862 40.2273 152.745 40.4905 152.51 40.7102C152.279 40.9261 151.999 41.0341 151.669 41.0341ZM161.705 44.5795L159.83 44.7841C159.777 44.5947 159.684 44.4167 159.551 44.25C159.422 44.0833 159.248 43.9489 159.028 43.8466C158.809 43.7443 158.54 43.6932 158.222 43.6932C157.794 43.6932 157.434 43.786 157.142 43.9716C156.854 44.1572 156.712 44.3977 156.716 44.6932C156.712 44.947 156.805 45.1534 156.994 45.3125C157.188 45.4716 157.506 45.6023 157.949 45.7045L159.438 46.0227C160.263 46.2008 160.877 46.483 161.278 46.8693C161.684 47.2557 161.888 47.7614 161.892 48.3864C161.888 48.9356 161.727 49.4205 161.409 49.8409C161.095 50.2576 160.657 50.5833 160.097 50.8182C159.536 51.053 158.892 51.1705 158.165 51.1705C157.097 51.1705 156.237 50.947 155.585 50.5C154.934 50.0492 154.545 49.4223 154.42 48.6193L156.426 48.4261C156.517 48.8201 156.71 49.1174 157.006 49.3182C157.301 49.5189 157.686 49.6193 158.159 49.6193C158.648 49.6193 159.04 49.5189 159.335 49.3182C159.634 49.1174 159.784 48.8693 159.784 48.5739C159.784 48.3239 159.688 48.1174 159.494 47.9545C159.305 47.7917 159.009 47.6667 158.608 47.5795L157.119 47.267C156.282 47.0928 155.663 46.7992 155.261 46.3864C154.86 45.9697 154.661 45.4432 154.665 44.8068C154.661 44.2689 154.807 43.803 155.102 43.4091C155.402 43.0114 155.816 42.7045 156.347 42.4886C156.881 42.2689 157.496 42.1591 158.193 42.1591C159.216 42.1591 160.021 42.3769 160.608 42.8125C161.199 43.2481 161.564 43.8371 161.705 44.5795ZM169.151 47.3295V42.2727H171.207V51H169.213V49.4489H169.122C168.925 49.9375 168.601 50.3371 168.151 50.6477C167.704 50.9583 167.152 51.1136 166.497 51.1136C165.925 51.1136 165.42 50.9867 164.98 50.733C164.545 50.4754 164.204 50.1023 163.957 49.6136C163.711 49.1212 163.588 48.5265 163.588 47.8295V42.2727H165.645V47.5114C165.645 48.0644 165.796 48.5038 166.099 48.8295C166.402 49.1553 166.8 49.3182 167.293 49.3182C167.596 49.3182 167.889 49.2443 168.173 49.0966C168.457 48.9489 168.69 48.7292 168.872 48.4375C169.058 48.142 169.151 47.7727 169.151 47.3295ZM175.834 51.1761C175.281 51.1761 174.783 51.0777 174.339 50.8807C173.9 50.6799 173.552 50.3845 173.294 49.9943C173.04 49.6042 172.913 49.1231 172.913 48.5511C172.913 48.0587 173.004 47.6515 173.186 47.3295C173.368 47.0076 173.616 46.75 173.93 46.5568C174.245 46.3636 174.599 46.2178 174.993 46.1193C175.391 46.017 175.802 45.9432 176.226 45.8977C176.737 45.8447 177.152 45.7973 177.47 45.7557C177.788 45.7102 178.019 45.642 178.163 45.5511C178.311 45.4564 178.385 45.3106 178.385 45.1136V45.0795C178.385 44.6515 178.258 44.3201 178.004 44.0852C177.75 43.8504 177.385 43.733 176.908 43.733C176.404 43.733 176.004 43.8428 175.709 44.0625C175.417 44.2822 175.22 44.5417 175.118 44.8409L173.197 44.5682C173.349 44.0379 173.599 43.5947 173.947 43.2386C174.296 42.8788 174.722 42.6098 175.226 42.4318C175.73 42.25 176.286 42.1591 176.896 42.1591C177.317 42.1591 177.735 42.2083 178.152 42.3068C178.569 42.4053 178.949 42.5682 179.294 42.7955C179.639 43.0189 179.915 43.3239 180.124 43.7102C180.336 44.0966 180.442 44.5795 180.442 45.1591V51H178.464V49.8011H178.396C178.271 50.0436 178.095 50.2708 177.868 50.483C177.644 50.6913 177.362 50.8598 177.021 50.9886C176.684 51.1136 176.288 51.1761 175.834 51.1761ZM176.368 49.6648C176.781 49.6648 177.139 49.5833 177.442 49.4205C177.745 49.2538 177.978 49.0341 178.141 48.7614C178.307 48.4886 178.391 48.1913 178.391 47.8693V46.8409C178.326 46.8939 178.216 46.9432 178.061 46.9886C177.91 47.0341 177.739 47.0739 177.55 47.108C177.36 47.142 177.173 47.1723 176.987 47.1989C176.802 47.2254 176.641 47.2481 176.504 47.267C176.197 47.3087 175.923 47.3769 175.68 47.4716C175.438 47.5663 175.247 47.6989 175.107 47.8693C174.966 48.036 174.896 48.2519 174.896 48.517C174.896 48.8958 175.035 49.1818 175.311 49.375C175.588 49.5682 175.94 49.6648 176.368 49.6648ZM184.567 39.3636V51H182.51V39.3636H184.567ZM186.682 51V42.2727H188.739V51H186.682ZM187.716 41.0341C187.39 41.0341 187.11 40.9261 186.875 40.7102C186.64 40.4905 186.523 40.2273 186.523 39.9205C186.523 39.6098 186.64 39.3466 186.875 39.1307C187.11 38.911 187.39 38.8011 187.716 38.8011C188.045 38.8011 188.326 38.911 188.557 39.1307C188.792 39.3466 188.909 39.6098 188.909 39.9205C188.909 40.2273 188.792 40.4905 188.557 40.7102C188.326 40.9261 188.045 41.0341 187.716 41.0341ZM190.74 51V49.6932L195.24 44.0511V43.9773H190.888V42.2727H197.757V43.6761L193.473 49.2216V49.2955H197.905V51H190.74ZM202.349 51.1761C201.796 51.1761 201.298 51.0777 200.855 50.8807C200.416 50.6799 200.067 50.3845 199.81 49.9943C199.556 49.6042 199.429 49.1231 199.429 48.5511C199.429 48.0587 199.52 47.6515 199.702 47.3295C199.884 47.0076 200.132 46.75 200.446 46.5568C200.76 46.3636 201.115 46.2178 201.509 46.1193C201.906 46.017 202.317 45.9432 202.741 45.8977C203.253 45.8447 203.668 45.7973 203.986 45.7557C204.304 45.7102 204.535 45.642 204.679 45.5511C204.827 45.4564 204.901 45.3106 204.901 45.1136V45.0795C204.901 44.6515 204.774 44.3201 204.52 44.0852C204.266 43.8504 203.901 43.733 203.423 43.733C202.92 43.733 202.52 43.8428 202.224 44.0625C201.933 44.2822 201.736 44.5417 201.634 44.8409L199.713 44.5682C199.865 44.0379 200.115 43.5947 200.463 43.2386C200.812 42.8788 201.238 42.6098 201.741 42.4318C202.245 42.25 202.802 42.1591 203.412 42.1591C203.832 42.1591 204.251 42.2083 204.668 42.3068C205.084 42.4053 205.465 42.5682 205.81 42.7955C206.154 43.0189 206.431 43.3239 206.639 43.7102C206.851 44.0966 206.957 44.5795 206.957 45.1591V51H204.98V49.8011H204.912C204.787 50.0436 204.611 50.2708 204.384 50.483C204.16 50.6913 203.878 50.8598 203.537 50.9886C203.2 51.1136 202.804 51.1761 202.349 51.1761ZM202.884 49.6648C203.296 49.6648 203.654 49.5833 203.957 49.4205C204.26 49.2538 204.493 49.0341 204.656 48.7614C204.823 48.4886 204.906 48.1913 204.906 47.8693V46.8409C204.842 46.8939 204.732 46.9432 204.577 46.9886C204.425 47.0341 204.255 47.0739 204.065 47.108C203.876 47.142 203.688 47.1723 203.503 47.1989C203.317 47.2254 203.156 47.2481 203.02 47.267C202.713 47.3087 202.438 47.3769 202.196 47.4716C201.954 47.5663 201.762 47.6989 201.622 47.8693C201.482 48.036 201.412 48.2519 201.412 48.517C201.412 48.8958 201.55 49.1818 201.827 49.375C202.103 49.5682 202.455 49.6648 202.884 49.6648ZM212.832 51.1705C211.961 51.1705 211.213 50.9792 210.588 50.5966C209.967 50.214 209.488 49.6856 209.151 49.0114C208.817 48.3333 208.651 47.553 208.651 46.6705C208.651 45.7841 208.821 45.0019 209.162 44.3239C209.503 43.642 209.984 43.1117 210.605 42.733C211.23 42.3504 211.969 42.1591 212.821 42.1591C213.529 42.1591 214.156 42.2898 214.702 42.5511C215.251 42.8087 215.688 43.1742 216.014 43.6477C216.34 44.1174 216.526 44.6667 216.571 45.2955H214.605C214.526 44.875 214.336 44.5246 214.037 44.2443C213.741 43.9602 213.346 43.8182 212.849 43.8182C212.429 43.8182 212.06 43.9318 211.741 44.1591C211.423 44.3826 211.175 44.7045 210.997 45.125C210.823 45.5455 210.736 46.0492 210.736 46.6364C210.736 47.2311 210.823 47.7424 210.997 48.1705C211.171 48.5947 211.416 48.9223 211.73 49.1534C212.048 49.3807 212.421 49.4943 212.849 49.4943C213.152 49.4943 213.423 49.4375 213.662 49.3239C213.904 49.2064 214.107 49.0379 214.27 48.8182C214.433 48.5985 214.545 48.3314 214.605 48.017H216.571C216.522 48.6345 216.34 49.1818 216.026 49.6591C215.711 50.1326 215.283 50.5038 214.741 50.7727C214.2 51.0379 213.563 51.1705 212.832 51.1705ZM218.26 51V42.2727H220.317V51H218.26ZM219.294 41.0341C218.968 41.0341 218.688 40.9261 218.453 40.7102C218.218 40.4905 218.101 40.2273 218.101 39.9205C218.101 39.6098 218.218 39.3466 218.453 39.1307C218.688 38.911 218.968 38.8011 219.294 38.8011C219.624 38.8011 219.904 38.911 220.135 39.1307C220.37 39.3466 220.487 39.6098 220.487 39.9205C220.487 40.2273 220.37 40.4905 220.135 40.7102C219.904 40.9261 219.624 41.0341 219.294 41.0341ZM226.239 51.1705C225.386 51.1705 224.648 50.983 224.023 50.608C223.398 50.233 222.913 49.7083 222.568 49.0341C222.227 48.3598 222.057 47.572 222.057 46.6705C222.057 45.7689 222.227 44.9792 222.568 44.3011C222.913 43.6231 223.398 43.0966 224.023 42.7216C224.648 42.3466 225.386 42.1591 226.239 42.1591C227.091 42.1591 227.83 42.3466 228.455 42.7216C229.08 43.0966 229.563 43.6231 229.903 44.3011C230.248 44.9792 230.42 45.7689 230.42 46.6705C230.42 47.572 230.248 48.3598 229.903 49.0341C229.563 49.7083 229.08 50.233 228.455 50.608C227.83 50.983 227.091 51.1705 226.239 51.1705ZM226.25 49.5227C226.712 49.5227 227.098 49.3958 227.409 49.142C227.72 48.8845 227.951 48.5398 228.102 48.108C228.258 47.6761 228.335 47.1951 228.335 46.6648C228.335 46.1307 228.258 45.6477 228.102 45.2159C227.951 44.7803 227.72 44.4337 227.409 44.1761C227.098 43.9186 226.712 43.7898 226.25 43.7898C225.777 43.7898 225.383 43.9186 225.068 44.1761C224.758 44.4337 224.525 44.7803 224.369 45.2159C224.218 45.6477 224.142 46.1307 224.142 46.6648C224.142 47.1951 224.218 47.6761 224.369 48.108C224.525 48.5398 224.758 48.8845 225.068 49.142C225.383 49.3958 225.777 49.5227 226.25 49.5227ZM225.449 41.125L226.722 38.5284H228.733L226.989 41.125H225.449ZM234.223 45.8864V51H232.166V42.2727H234.132V43.7557H234.234C234.435 43.267 234.755 42.8788 235.195 42.5909C235.638 42.303 236.185 42.1591 236.837 42.1591C237.439 42.1591 237.964 42.2879 238.411 42.5455C238.861 42.803 239.21 43.1761 239.456 43.6648C239.706 44.1534 239.829 44.7462 239.825 45.4432V51H237.768V45.7614C237.768 45.178 237.617 44.7216 237.314 44.392C237.015 44.0625 236.6 43.8977 236.07 43.8977C235.71 43.8977 235.39 43.9773 235.109 44.1364C234.833 44.2917 234.615 44.517 234.456 44.8125C234.301 45.108 234.223 45.4659 234.223 45.8864ZM249.68 54.4545C248.942 54.4545 248.307 54.3542 247.777 54.1534C247.247 53.9564 246.821 53.6913 246.499 53.358C246.177 53.0246 245.953 52.6553 245.828 52.25L247.68 51.8011C247.764 51.9716 247.885 52.1402 248.044 52.3068C248.203 52.4773 248.417 52.6174 248.686 52.7273C248.959 52.8409 249.302 52.8977 249.714 52.8977C250.298 52.8977 250.781 52.7557 251.163 52.4716C251.546 52.1913 251.737 51.7292 251.737 51.0852V49.4318H251.635C251.529 49.6439 251.374 49.8617 251.169 50.0852C250.968 50.3087 250.701 50.4962 250.368 50.6477C250.038 50.7992 249.624 50.875 249.124 50.875C248.453 50.875 247.845 50.7178 247.3 50.4034C246.758 50.0852 246.326 49.6117 246.004 48.983C245.686 48.3504 245.527 47.5587 245.527 46.608C245.527 45.6496 245.686 44.8409 246.004 44.1818C246.326 43.5189 246.76 43.017 247.305 42.6761C247.851 42.3314 248.459 42.1591 249.129 42.1591C249.641 42.1591 250.061 42.2462 250.391 42.4205C250.724 42.5909 250.989 42.7973 251.186 43.0398C251.383 43.2784 251.533 43.5038 251.635 43.7159H251.749V42.2727H253.777V51.142C253.777 51.8883 253.599 52.5057 253.243 52.9943C252.887 53.483 252.4 53.8485 251.783 54.0909C251.165 54.3333 250.464 54.4545 249.68 54.4545ZM249.697 49.2614C250.133 49.2614 250.504 49.1553 250.811 48.9432C251.118 48.7311 251.351 48.4261 251.51 48.0284C251.669 47.6307 251.749 47.1534 251.749 46.5966C251.749 46.0473 251.669 45.5663 251.51 45.1534C251.355 44.7405 251.124 44.4205 250.817 44.1932C250.514 43.9621 250.141 43.8466 249.697 43.8466C249.239 43.8466 248.857 43.9659 248.55 44.2045C248.243 44.4432 248.012 44.7708 247.857 45.1875C247.701 45.6004 247.624 46.0701 247.624 46.5966C247.624 47.1307 247.701 47.5985 247.857 48C248.016 48.3977 248.249 48.7083 248.555 48.9318C248.866 49.1515 249.247 49.2614 249.697 49.2614ZM255.885 51V42.2727H257.879V43.7273H257.97C258.129 43.2235 258.402 42.8352 258.788 42.5625C259.179 42.286 259.624 42.1477 260.124 42.1477C260.237 42.1477 260.364 42.1534 260.504 42.1648C260.648 42.1723 260.768 42.1856 260.862 42.2045V44.0966C260.775 44.0663 260.637 44.0398 260.447 44.017C260.262 43.9905 260.082 43.9773 259.908 43.9773C259.533 43.9773 259.196 44.0587 258.896 44.2216C258.601 44.3807 258.368 44.6023 258.197 44.8864C258.027 45.1705 257.942 45.4981 257.942 45.8693V51H255.885ZM264.584 51.1761C264.031 51.1761 263.533 51.0777 263.089 50.8807C262.65 50.6799 262.302 50.3845 262.044 49.9943C261.79 49.6042 261.663 49.1231 261.663 48.5511C261.663 48.0587 261.754 47.6515 261.936 47.3295C262.118 47.0076 262.366 46.75 262.68 46.5568C262.995 46.3636 263.349 46.2178 263.743 46.1193C264.141 46.017 264.552 45.9432 264.976 45.8977C265.487 45.8447 265.902 45.7973 266.22 45.7557C266.538 45.7102 266.769 45.642 266.913 45.5511C267.061 45.4564 267.135 45.3106 267.135 45.1136V45.0795C267.135 44.6515 267.008 44.3201 266.754 44.0852C266.5 43.8504 266.135 43.733 265.658 43.733C265.154 43.733 264.754 43.8428 264.459 44.0625C264.167 44.2822 263.97 44.5417 263.868 44.8409L261.947 44.5682C262.099 44.0379 262.349 43.5947 262.697 43.2386C263.046 42.8788 263.472 42.6098 263.976 42.4318C264.48 42.25 265.036 42.1591 265.646 42.1591C266.067 42.1591 266.485 42.2083 266.902 42.3068C267.319 42.4053 267.699 42.5682 268.044 42.7955C268.389 43.0189 268.665 43.3239 268.874 43.7102C269.086 44.0966 269.192 44.5795 269.192 45.1591V51H267.214V49.8011H267.146C267.021 50.0436 266.845 50.2708 266.618 50.483C266.394 50.6913 266.112 50.8598 265.771 50.9886C265.434 51.1136 265.038 51.1761 264.584 51.1761ZM265.118 49.6648C265.531 49.6648 265.889 49.5833 266.192 49.4205C266.495 49.2538 266.728 49.0341 266.891 48.7614C267.057 48.4886 267.141 48.1913 267.141 47.8693V46.8409C267.076 46.8939 266.966 46.9432 266.811 46.9886C266.66 47.0341 266.489 47.0739 266.3 47.108C266.11 47.142 265.923 47.1723 265.737 47.1989C265.552 47.2254 265.391 47.2481 265.254 47.267C264.947 47.3087 264.673 47.3769 264.43 47.4716C264.188 47.5663 263.997 47.6989 263.857 47.8693C263.716 48.036 263.646 48.2519 263.646 48.517C263.646 48.8958 263.785 49.1818 264.061 49.375C264.338 49.5682 264.69 49.6648 265.118 49.6648ZM264.947 41.125L266.22 38.5284H268.232L266.487 41.125H264.947ZM275.68 42.2727V43.8636H270.521V42.2727H275.68ZM271.811 51V41.4489C271.811 40.8617 271.932 40.3731 272.175 39.983C272.421 39.5928 272.75 39.3011 273.163 39.108C273.576 38.9148 274.035 38.8182 274.538 38.8182C274.894 38.8182 275.211 38.8466 275.487 38.9034C275.764 38.9602 275.968 39.0114 276.101 39.0568L275.692 40.6477C275.605 40.6212 275.495 40.5947 275.362 40.5682C275.23 40.5379 275.082 40.5227 274.919 40.5227C274.536 40.5227 274.266 40.6155 274.107 40.8011C273.951 40.983 273.874 41.2443 273.874 41.5852V51H271.811ZM277.291 51V42.2727H279.348V51H277.291ZM278.325 41.0341C278 41.0341 277.719 40.9261 277.484 40.7102C277.25 40.4905 277.132 40.2273 277.132 39.9205C277.132 39.6098 277.25 39.3466 277.484 39.1307C277.719 38.911 278 38.8011 278.325 38.8011C278.655 38.8011 278.935 38.911 279.166 39.1307C279.401 39.3466 279.518 39.6098 279.518 39.9205C279.518 40.2273 279.401 40.4905 279.166 40.7102C278.935 40.9261 278.655 41.0341 278.325 41.0341ZM285.27 51.1705C284.399 51.1705 283.651 50.9792 283.026 50.5966C282.404 50.214 281.925 49.6856 281.588 49.0114C281.255 48.3333 281.088 47.553 281.088 46.6705C281.088 45.7841 281.259 45.0019 281.599 44.3239C281.94 43.642 282.421 43.1117 283.043 42.733C283.668 42.3504 284.406 42.1591 285.259 42.1591C285.967 42.1591 286.594 42.2898 287.139 42.5511C287.688 42.8087 288.126 43.1742 288.452 43.6477C288.777 44.1174 288.963 44.6667 289.009 45.2955H287.043C286.963 44.875 286.774 44.5246 286.474 44.2443C286.179 43.9602 285.783 43.8182 285.287 43.8182C284.866 43.8182 284.497 43.9318 284.179 44.1591C283.861 44.3826 283.613 44.7045 283.435 45.125C283.26 45.5455 283.173 46.0492 283.173 46.6364C283.173 47.2311 283.26 47.7424 283.435 48.1705C283.609 48.5947 283.853 48.9223 284.168 49.1534C284.486 49.3807 284.859 49.4943 285.287 49.4943C285.59 49.4943 285.861 49.4375 286.099 49.3239C286.342 49.2064 286.545 49.0379 286.707 48.8182C286.87 48.5985 286.982 48.3314 287.043 48.017H289.009C288.959 48.6345 288.777 49.1818 288.463 49.6591C288.149 50.1326 287.721 50.5038 287.179 50.7727C286.637 51.0379 286.001 51.1705 285.27 51.1705ZM293.209 51.1761C292.656 51.1761 292.158 51.0777 291.714 50.8807C291.275 50.6799 290.927 50.3845 290.669 49.9943C290.415 49.6042 290.288 49.1231 290.288 48.5511C290.288 48.0587 290.379 47.6515 290.561 47.3295C290.743 47.0076 290.991 46.75 291.305 46.5568C291.62 46.3636 291.974 46.2178 292.368 46.1193C292.766 46.017 293.177 45.9432 293.601 45.8977C294.112 45.8447 294.527 45.7973 294.845 45.7557C295.163 45.7102 295.394 45.642 295.538 45.5511C295.686 45.4564 295.76 45.3106 295.76 45.1136V45.0795C295.76 44.6515 295.633 44.3201 295.379 44.0852C295.125 43.8504 294.76 43.733 294.283 43.733C293.779 43.733 293.379 43.8428 293.084 44.0625C292.792 44.2822 292.595 44.5417 292.493 44.8409L290.572 44.5682C290.724 44.0379 290.974 43.5947 291.322 43.2386C291.671 42.8788 292.097 42.6098 292.601 42.4318C293.105 42.25 293.661 42.1591 294.271 42.1591C294.692 42.1591 295.11 42.2083 295.527 42.3068C295.944 42.4053 296.324 42.5682 296.669 42.7955C297.014 43.0189 297.29 43.3239 297.499 43.7102C297.711 44.0966 297.817 44.5795 297.817 45.1591V51H295.839V49.8011H295.771C295.646 50.0436 295.47 50.2708 295.243 50.483C295.019 50.6913 294.737 50.8598 294.396 50.9886C294.059 51.1136 293.663 51.1761 293.209 51.1761ZM293.743 49.6648C294.156 49.6648 294.514 49.5833 294.817 49.4205C295.12 49.2538 295.353 49.0341 295.516 48.7614C295.682 48.4886 295.766 48.1913 295.766 47.8693V46.8409C295.701 46.8939 295.591 46.9432 295.436 46.9886C295.285 47.0341 295.114 47.0739 294.925 47.108C294.735 47.142 294.548 47.1723 294.362 47.1989C294.177 47.2254 294.016 47.2481 293.879 47.267C293.572 47.3087 293.298 47.3769 293.055 47.4716C292.813 47.5663 292.622 47.6989 292.482 47.8693C292.341 48.036 292.271 48.2519 292.271 48.517C292.271 48.8958 292.41 49.1818 292.686 49.375C292.963 49.5682 293.315 49.6648 293.743 49.6648ZM142.295 70.1534C141.61 70.1534 140.996 69.9773 140.455 69.625C139.913 69.2727 139.485 68.7614 139.17 68.0909C138.856 67.4205 138.699 66.6061 138.699 65.6477C138.699 64.678 138.858 63.8598 139.176 63.1932C139.498 62.5227 139.932 62.017 140.477 61.6761C141.023 61.3314 141.631 61.1591 142.301 61.1591C142.813 61.1591 143.233 61.2462 143.562 61.4205C143.892 61.5909 144.153 61.7973 144.347 62.0398C144.54 62.2784 144.689 62.5038 144.795 62.7159H144.881V58.3636H146.943V70H144.92V68.625H144.795C144.689 68.8371 144.536 69.0625 144.335 69.3011C144.134 69.536 143.869 69.7367 143.54 69.9034C143.21 70.0701 142.795 70.1534 142.295 70.1534ZM142.869 68.4659C143.305 68.4659 143.676 68.3485 143.983 68.1136C144.29 67.875 144.523 67.5436 144.682 67.1193C144.841 66.6951 144.92 66.2008 144.92 65.6364C144.92 65.072 144.841 64.5814 144.682 64.1648C144.527 63.7481 144.295 63.4242 143.989 63.1932C143.686 62.9621 143.313 62.8466 142.869 62.8466C142.411 62.8466 142.028 62.9659 141.722 63.2045C141.415 63.4432 141.184 63.7727 141.028 64.1932C140.873 64.6136 140.795 65.0947 140.795 65.6364C140.795 66.1818 140.873 66.6686 141.028 67.0966C141.188 67.5208 141.42 67.8561 141.727 68.1023C142.038 68.3447 142.419 68.4659 142.869 68.4659ZM152.999 70.1705C152.124 70.1705 151.368 69.9886 150.732 69.625C150.099 69.2576 149.612 68.7386 149.271 68.0682C148.93 67.3939 148.76 66.6004 148.76 65.6875C148.76 64.7898 148.93 64.0019 149.271 63.3239C149.616 62.642 150.097 62.1117 150.714 61.733C151.332 61.3504 152.057 61.1591 152.891 61.1591C153.429 61.1591 153.936 61.2462 154.413 61.4205C154.894 61.5909 155.319 61.8561 155.686 62.2159C156.057 62.5758 156.349 63.0341 156.561 63.5909C156.773 64.1439 156.879 64.803 156.879 65.5682V66.1989H149.726V64.8125H154.908C154.904 64.4186 154.819 64.0682 154.652 63.7614C154.485 63.4508 154.252 63.2064 153.953 63.0284C153.658 62.8504 153.313 62.7614 152.919 62.7614C152.499 62.7614 152.129 62.8636 151.811 63.0682C151.493 63.2689 151.245 63.5341 151.067 63.8636C150.893 64.1894 150.804 64.5473 150.8 64.9375V66.1477C150.8 66.6553 150.893 67.0909 151.078 67.4545C151.264 67.8144 151.523 68.0909 151.857 68.2841C152.19 68.4735 152.58 68.5682 153.027 68.5682C153.326 68.5682 153.597 68.5265 153.839 68.4432C154.082 68.3561 154.292 68.2292 154.47 68.0625C154.648 67.8958 154.783 67.6894 154.874 67.4432L156.794 67.6591C156.673 68.1667 156.442 68.6098 156.101 68.9886C155.764 69.3636 155.332 69.6553 154.805 69.8636C154.279 70.0682 153.677 70.1705 152.999 70.1705ZM164.645 58.3636V70H162.588V58.3636H164.645ZM169.271 70.1761C168.718 70.1761 168.22 70.0777 167.777 69.8807C167.338 69.6799 166.989 69.3845 166.732 68.9943C166.478 68.6042 166.351 68.1231 166.351 67.5511C166.351 67.0587 166.442 66.6515 166.624 66.3295C166.805 66.0076 167.054 65.75 167.368 65.5568C167.682 65.3636 168.036 65.2178 168.43 65.1193C168.828 65.017 169.239 64.9432 169.663 64.8977C170.175 64.8447 170.589 64.7973 170.908 64.7557C171.226 64.7102 171.457 64.642 171.601 64.5511C171.749 64.4564 171.822 64.3106 171.822 64.1136V64.0795C171.822 63.6515 171.696 63.3201 171.442 63.0852C171.188 62.8504 170.822 62.733 170.345 62.733C169.841 62.733 169.442 62.8428 169.146 63.0625C168.855 63.2822 168.658 63.5417 168.555 63.8409L166.635 63.5682C166.786 63.0379 167.036 62.5947 167.385 62.2386C167.733 61.8788 168.16 61.6098 168.663 61.4318C169.167 61.25 169.724 61.1591 170.334 61.1591C170.754 61.1591 171.173 61.2083 171.589 61.3068C172.006 61.4053 172.387 61.5682 172.732 61.7955C173.076 62.0189 173.353 62.3239 173.561 62.7102C173.773 63.0966 173.879 63.5795 173.879 64.1591V70H171.902V68.8011H171.834C171.709 69.0436 171.533 69.2708 171.305 69.483C171.082 69.6913 170.8 69.8598 170.459 69.9886C170.122 70.1136 169.726 70.1761 169.271 70.1761ZM169.805 68.6648C170.218 68.6648 170.576 68.5833 170.879 68.4205C171.182 68.2538 171.415 68.0341 171.578 67.7614C171.745 67.4886 171.828 67.1913 171.828 66.8693V65.8409C171.764 65.8939 171.654 65.9432 171.499 65.9886C171.347 66.0341 171.177 66.0739 170.987 66.108C170.798 66.142 170.61 66.1723 170.425 66.1989C170.239 66.2254 170.078 66.2481 169.942 66.267C169.635 66.3087 169.36 66.3769 169.118 66.4716C168.875 66.5663 168.684 66.6989 168.544 66.8693C168.404 67.036 168.334 67.2519 168.334 67.517C168.334 67.8958 168.472 68.1818 168.749 68.375C169.025 68.5682 169.377 68.6648 169.805 68.6648ZM182.845 63.5795L180.97 63.7841C180.917 63.5947 180.824 63.4167 180.692 63.25C180.563 63.0833 180.389 62.9489 180.169 62.8466C179.949 62.7443 179.68 62.6932 179.362 62.6932C178.934 62.6932 178.574 62.786 178.283 62.9716C177.995 63.1572 177.853 63.3977 177.857 63.6932C177.853 63.947 177.946 64.1534 178.135 64.3125C178.328 64.4716 178.646 64.6023 179.089 64.7045L180.578 65.0227C181.404 65.2008 182.018 65.483 182.419 65.8693C182.824 66.2557 183.029 66.7614 183.033 67.3864C183.029 67.9356 182.868 68.4205 182.55 68.8409C182.235 69.2576 181.798 69.5833 181.237 69.8182C180.677 70.053 180.033 70.1705 179.305 70.1705C178.237 70.1705 177.377 69.947 176.726 69.5C176.074 69.0492 175.686 68.4223 175.561 67.6193L177.567 67.4261C177.658 67.8201 177.851 68.1174 178.146 68.3182C178.442 68.5189 178.826 68.6193 179.3 68.6193C179.788 68.6193 180.18 68.5189 180.476 68.3182C180.775 68.1174 180.925 67.8693 180.925 67.5739C180.925 67.3239 180.828 67.1174 180.635 66.9545C180.446 66.7917 180.15 66.6667 179.749 66.5795L178.26 66.267C177.423 66.0928 176.804 65.7992 176.402 65.3864C176 64.9697 175.802 64.4432 175.805 63.8068C175.802 63.2689 175.947 62.803 176.243 62.4091C176.542 62.0114 176.957 61.7045 177.487 61.4886C178.021 61.2689 178.637 61.1591 179.334 61.1591C180.357 61.1591 181.161 61.3769 181.749 61.8125C182.339 62.2481 182.705 62.8371 182.845 63.5795ZM192.504 70.1705C191.633 70.1705 190.885 69.9792 190.26 69.5966C189.639 69.214 189.16 68.6856 188.822 68.0114C188.489 67.3333 188.322 66.553 188.322 65.6705C188.322 64.7841 188.493 64.0019 188.834 63.3239C189.175 62.642 189.656 62.1117 190.277 61.733C190.902 61.3504 191.641 61.1591 192.493 61.1591C193.201 61.1591 193.828 61.2898 194.374 61.5511C194.923 61.8087 195.36 62.1742 195.686 62.6477C196.012 63.1174 196.197 63.6667 196.243 64.2955H194.277C194.197 63.875 194.008 63.5246 193.709 63.2443C193.413 62.9602 193.018 62.8182 192.521 62.8182C192.101 62.8182 191.732 62.9318 191.413 63.1591C191.095 63.3826 190.847 63.7045 190.669 64.125C190.495 64.5455 190.408 65.0492 190.408 65.6364C190.408 66.2311 190.495 66.7424 190.669 67.1705C190.843 67.5947 191.088 67.9223 191.402 68.1534C191.72 68.3807 192.093 68.4943 192.521 68.4943C192.824 68.4943 193.095 68.4375 193.334 68.3239C193.576 68.2064 193.779 68.0379 193.942 67.8182C194.105 67.5985 194.216 67.3314 194.277 67.017H196.243C196.194 67.6345 196.012 68.1818 195.697 68.6591C195.383 69.1326 194.955 69.5038 194.413 69.7727C193.872 70.0379 193.235 70.1705 192.504 70.1705ZM197.932 70V61.2727H199.926V62.7273H200.017C200.176 62.2235 200.449 61.8352 200.835 61.5625C201.225 61.286 201.67 61.1477 202.17 61.1477C202.284 61.1477 202.411 61.1534 202.551 61.1648C202.695 61.1723 202.814 61.1856 202.909 61.2045V63.0966C202.822 63.0663 202.684 63.0398 202.494 63.017C202.309 62.9905 202.129 62.9773 201.955 62.9773C201.58 62.9773 201.242 63.0587 200.943 63.2216C200.648 63.3807 200.415 63.6023 200.244 63.8864C200.074 64.1705 199.989 64.4981 199.989 64.8693V70H197.932ZM204.276 70V61.2727H206.332V70H204.276ZM205.31 60.0341C204.984 60.0341 204.704 59.9261 204.469 59.7102C204.234 59.4905 204.116 59.2273 204.116 58.9205C204.116 58.6098 204.234 58.3466 204.469 58.1307C204.704 57.911 204.984 57.8011 205.31 57.8011C205.639 57.8011 205.92 57.911 206.151 58.1307C206.385 58.3466 206.503 58.6098 206.503 58.9205C206.503 59.2273 206.385 59.4905 206.151 59.7102C205.92 59.9261 205.639 60.0341 205.31 60.0341ZM215.345 63.5795L213.47 63.7841C213.417 63.5947 213.324 63.4167 213.192 63.25C213.063 63.0833 212.889 62.9489 212.669 62.8466C212.449 62.7443 212.18 62.6932 211.862 62.6932C211.434 62.6932 211.074 62.786 210.783 62.9716C210.495 63.1572 210.353 63.3977 210.357 63.6932C210.353 63.947 210.446 64.1534 210.635 64.3125C210.828 64.4716 211.146 64.6023 211.589 64.7045L213.078 65.0227C213.904 65.2008 214.518 65.483 214.919 65.8693C215.324 66.2557 215.529 66.7614 215.533 67.3864C215.529 67.9356 215.368 68.4205 215.05 68.8409C214.735 69.2576 214.298 69.5833 213.737 69.8182C213.177 70.053 212.533 70.1705 211.805 70.1705C210.737 70.1705 209.877 69.947 209.226 69.5C208.574 69.0492 208.186 68.4223 208.061 67.6193L210.067 67.4261C210.158 67.8201 210.351 68.1174 210.646 68.3182C210.942 68.5189 211.326 68.6193 211.8 68.6193C212.288 68.6193 212.68 68.5189 212.976 68.3182C213.275 68.1174 213.425 67.8693 213.425 67.5739C213.425 67.3239 213.328 67.1174 213.135 66.9545C212.946 66.7917 212.65 66.6667 212.249 66.5795L210.76 66.267C209.923 66.0928 209.304 65.7992 208.902 65.3864C208.5 64.9697 208.302 64.4432 208.305 63.8068C208.302 63.2689 208.447 62.803 208.743 62.4091C209.042 62.0114 209.457 61.7045 209.987 61.4886C210.521 61.2689 211.137 61.1591 211.834 61.1591C212.857 61.1591 213.661 61.3769 214.249 61.8125C214.839 62.2481 215.205 62.8371 215.345 63.5795ZM217.229 70V61.2727H219.286V70H217.229ZM218.263 60.0341C217.937 60.0341 217.657 59.9261 217.422 59.7102C217.187 59.4905 217.07 59.2273 217.07 58.9205C217.07 58.6098 217.187 58.3466 217.422 58.1307C217.657 57.911 217.937 57.8011 218.263 57.8011C218.592 57.8011 218.873 57.911 219.104 58.1307C219.339 58.3466 219.456 58.6098 219.456 58.9205C219.456 59.2273 219.339 59.4905 219.104 59.7102C218.873 59.9261 218.592 60.0341 218.263 60.0341ZM228.298 63.5795L226.423 63.7841C226.37 63.5947 226.277 63.4167 226.145 63.25C226.016 63.0833 225.842 62.9489 225.622 62.8466C225.402 62.7443 225.134 62.6932 224.815 62.6932C224.387 62.6932 224.027 62.786 223.736 62.9716C223.448 63.1572 223.306 63.3977 223.31 63.6932C223.306 63.947 223.399 64.1534 223.588 64.3125C223.781 64.4716 224.099 64.6023 224.543 64.7045L226.031 65.0227C226.857 65.2008 227.471 65.483 227.872 65.8693C228.277 66.2557 228.482 66.7614 228.486 67.3864C228.482 67.9356 228.321 68.4205 228.003 68.8409C227.688 69.2576 227.251 69.5833 226.69 69.8182C226.13 70.053 225.486 70.1705 224.759 70.1705C223.69 70.1705 222.83 69.947 222.179 69.5C221.527 69.0492 221.139 68.4223 221.014 67.6193L223.02 67.4261C223.111 67.8201 223.304 68.1174 223.599 68.3182C223.895 68.5189 224.279 68.6193 224.753 68.6193C225.241 68.6193 225.634 68.5189 225.929 68.3182C226.228 68.1174 226.378 67.8693 226.378 67.5739C226.378 67.3239 226.281 67.1174 226.088 66.9545C225.899 66.7917 225.603 66.6667 225.202 66.5795L223.713 66.267C222.876 66.0928 222.257 65.7992 221.855 65.3864C221.454 64.9697 221.255 64.4432 221.259 63.8068C221.255 63.2689 221.401 62.803 221.696 62.4091C221.995 62.0114 222.41 61.7045 222.94 61.4886C223.474 61.2689 224.09 61.1591 224.787 61.1591C225.81 61.1591 226.615 61.3769 227.202 61.8125C227.793 62.2481 228.158 62.8371 228.298 63.5795Z" fill="#B096B2"/>
<path d="M143.091 184H139.148V172.364H143.17C144.326 172.364 145.318 172.597 146.148 173.062C146.981 173.525 147.621 174.189 148.068 175.057C148.515 175.924 148.739 176.962 148.739 178.17C148.739 179.383 148.513 180.424 148.062 181.295C147.616 182.167 146.97 182.835 146.125 183.301C145.284 183.767 144.273 184 143.091 184ZM141.256 182.176H142.989C143.799 182.176 144.475 182.028 145.017 181.733C145.559 181.434 145.966 180.989 146.239 180.398C146.511 179.803 146.648 179.061 146.648 178.17C146.648 177.28 146.511 176.542 146.239 175.955C145.966 175.364 145.563 174.922 145.028 174.631C144.498 174.335 143.839 174.188 143.051 174.188H141.256V182.176ZM154.514 184.17C153.639 184.17 152.884 183.989 152.247 183.625C151.615 183.258 151.128 182.739 150.787 182.068C150.446 181.394 150.276 180.6 150.276 179.688C150.276 178.79 150.446 178.002 150.787 177.324C151.132 176.642 151.613 176.112 152.23 175.733C152.848 175.35 153.573 175.159 154.406 175.159C154.944 175.159 155.452 175.246 155.929 175.42C156.41 175.591 156.834 175.856 157.202 176.216C157.573 176.576 157.865 177.034 158.077 177.591C158.289 178.144 158.395 178.803 158.395 179.568V180.199H151.241V178.812H156.423C156.42 178.419 156.334 178.068 156.168 177.761C156.001 177.451 155.768 177.206 155.469 177.028C155.173 176.85 154.829 176.761 154.435 176.761C154.014 176.761 153.645 176.864 153.327 177.068C153.009 177.269 152.76 177.534 152.582 177.864C152.408 178.189 152.319 178.547 152.315 178.938V180.148C152.315 180.655 152.408 181.091 152.594 181.455C152.779 181.814 153.039 182.091 153.372 182.284C153.705 182.473 154.096 182.568 154.543 182.568C154.842 182.568 155.113 182.527 155.355 182.443C155.598 182.356 155.808 182.229 155.986 182.062C156.164 181.896 156.298 181.689 156.389 181.443L158.31 181.659C158.188 182.167 157.957 182.61 157.616 182.989C157.279 183.364 156.848 183.655 156.321 183.864C155.795 184.068 155.192 184.17 154.514 184.17ZM167.033 177.58L165.158 177.784C165.105 177.595 165.012 177.417 164.879 177.25C164.75 177.083 164.576 176.949 164.357 176.847C164.137 176.744 163.868 176.693 163.55 176.693C163.122 176.693 162.762 176.786 162.47 176.972C162.182 177.157 162.04 177.398 162.044 177.693C162.04 177.947 162.133 178.153 162.322 178.312C162.516 178.472 162.834 178.602 163.277 178.705L164.766 179.023C165.591 179.201 166.205 179.483 166.607 179.869C167.012 180.256 167.216 180.761 167.22 181.386C167.216 181.936 167.055 182.42 166.737 182.841C166.423 183.258 165.985 183.583 165.425 183.818C164.864 184.053 164.22 184.17 163.493 184.17C162.425 184.17 161.565 183.947 160.913 183.5C160.262 183.049 159.874 182.422 159.749 181.619L161.754 181.426C161.845 181.82 162.038 182.117 162.334 182.318C162.629 182.519 163.014 182.619 163.487 182.619C163.976 182.619 164.368 182.519 164.663 182.318C164.963 182.117 165.112 181.869 165.112 181.574C165.112 181.324 165.016 181.117 164.822 180.955C164.633 180.792 164.338 180.667 163.936 180.58L162.447 180.267C161.61 180.093 160.991 179.799 160.589 179.386C160.188 178.97 159.989 178.443 159.993 177.807C159.989 177.269 160.135 176.803 160.43 176.409C160.73 176.011 161.144 175.705 161.675 175.489C162.209 175.269 162.824 175.159 163.521 175.159C164.544 175.159 165.349 175.377 165.936 175.812C166.527 176.248 166.893 176.837 167.033 177.58ZM172.723 184.17C171.852 184.17 171.104 183.979 170.479 183.597C169.857 183.214 169.378 182.686 169.041 182.011C168.708 181.333 168.541 180.553 168.541 179.67C168.541 178.784 168.712 178.002 169.053 177.324C169.393 176.642 169.875 176.112 170.496 175.733C171.121 175.35 171.859 175.159 172.712 175.159C173.42 175.159 174.047 175.29 174.592 175.551C175.142 175.809 175.579 176.174 175.905 176.648C176.231 177.117 176.416 177.667 176.462 178.295H174.496C174.416 177.875 174.227 177.525 173.928 177.244C173.632 176.96 173.236 176.818 172.74 176.818C172.32 176.818 171.95 176.932 171.632 177.159C171.314 177.383 171.066 177.705 170.888 178.125C170.714 178.545 170.626 179.049 170.626 179.636C170.626 180.231 170.714 180.742 170.888 181.17C171.062 181.595 171.306 181.922 171.621 182.153C171.939 182.381 172.312 182.494 172.74 182.494C173.043 182.494 173.314 182.437 173.553 182.324C173.795 182.206 173.998 182.038 174.161 181.818C174.323 181.598 174.435 181.331 174.496 181.017H176.462C176.412 181.634 176.231 182.182 175.916 182.659C175.602 183.133 175.174 183.504 174.632 183.773C174.09 184.038 173.454 184.17 172.723 184.17ZM180.662 184.176C180.109 184.176 179.611 184.078 179.168 183.881C178.728 183.68 178.38 183.384 178.122 182.994C177.868 182.604 177.741 182.123 177.741 181.551C177.741 181.059 177.832 180.652 178.014 180.33C178.196 180.008 178.444 179.75 178.759 179.557C179.073 179.364 179.427 179.218 179.821 179.119C180.219 179.017 180.63 178.943 181.054 178.898C181.565 178.845 181.98 178.797 182.298 178.756C182.616 178.71 182.848 178.642 182.991 178.551C183.139 178.456 183.213 178.311 183.213 178.114V178.08C183.213 177.652 183.086 177.32 182.832 177.085C182.579 176.85 182.213 176.733 181.736 176.733C181.232 176.733 180.832 176.843 180.537 177.062C180.245 177.282 180.048 177.542 179.946 177.841L178.026 177.568C178.177 177.038 178.427 176.595 178.776 176.239C179.124 175.879 179.55 175.61 180.054 175.432C180.558 175.25 181.115 175.159 181.724 175.159C182.145 175.159 182.563 175.208 182.98 175.307C183.397 175.405 183.777 175.568 184.122 175.795C184.467 176.019 184.743 176.324 184.952 176.71C185.164 177.097 185.27 177.58 185.27 178.159V184H183.293V182.801H183.224C183.099 183.044 182.923 183.271 182.696 183.483C182.473 183.691 182.19 183.86 181.849 183.989C181.512 184.114 181.116 184.176 180.662 184.176ZM181.196 182.665C181.609 182.665 181.967 182.583 182.27 182.42C182.573 182.254 182.806 182.034 182.969 181.761C183.135 181.489 183.219 181.191 183.219 180.869V179.841C183.154 179.894 183.045 179.943 182.889 179.989C182.738 180.034 182.567 180.074 182.378 180.108C182.188 180.142 182.001 180.172 181.815 180.199C181.63 180.225 181.469 180.248 181.332 180.267C181.026 180.309 180.751 180.377 180.509 180.472C180.266 180.566 180.075 180.699 179.935 180.869C179.795 181.036 179.724 181.252 179.724 181.517C179.724 181.896 179.863 182.182 180.139 182.375C180.416 182.568 180.768 182.665 181.196 182.665ZM187.338 184V175.273H189.332V176.727H189.423C189.582 176.223 189.855 175.835 190.241 175.562C190.632 175.286 191.077 175.148 191.577 175.148C191.69 175.148 191.817 175.153 191.957 175.165C192.101 175.172 192.221 175.186 192.315 175.205V177.097C192.228 177.066 192.09 177.04 191.901 177.017C191.715 176.991 191.535 176.977 191.361 176.977C190.986 176.977 190.649 177.059 190.349 177.222C190.054 177.381 189.821 177.602 189.651 177.886C189.48 178.17 189.395 178.498 189.395 178.869V184H187.338ZM197.118 187.455C196.379 187.455 195.745 187.354 195.214 187.153C194.684 186.956 194.258 186.691 193.936 186.358C193.614 186.025 193.391 185.655 193.266 185.25L195.118 184.801C195.201 184.972 195.322 185.14 195.482 185.307C195.641 185.477 195.855 185.617 196.124 185.727C196.396 185.841 196.739 185.898 197.152 185.898C197.735 185.898 198.218 185.756 198.601 185.472C198.983 185.191 199.175 184.729 199.175 184.085V182.432H199.072C198.966 182.644 198.811 182.862 198.607 183.085C198.406 183.309 198.139 183.496 197.805 183.648C197.476 183.799 197.061 183.875 196.561 183.875C195.891 183.875 195.283 183.718 194.737 183.403C194.196 183.085 193.764 182.612 193.442 181.983C193.124 181.35 192.964 180.559 192.964 179.608C192.964 178.65 193.124 177.841 193.442 177.182C193.764 176.519 194.197 176.017 194.743 175.676C195.288 175.331 195.896 175.159 196.567 175.159C197.078 175.159 197.499 175.246 197.828 175.42C198.161 175.591 198.427 175.797 198.624 176.04C198.821 176.278 198.97 176.504 199.072 176.716H199.186V175.273H201.214V184.142C201.214 184.888 201.036 185.506 200.68 185.994C200.324 186.483 199.838 186.848 199.22 187.091C198.603 187.333 197.902 187.455 197.118 187.455ZM197.135 182.261C197.571 182.261 197.942 182.155 198.249 181.943C198.555 181.731 198.788 181.426 198.947 181.028C199.107 180.631 199.186 180.153 199.186 179.597C199.186 179.047 199.107 178.566 198.947 178.153C198.792 177.741 198.561 177.42 198.254 177.193C197.951 176.962 197.578 176.847 197.135 176.847C196.677 176.847 196.294 176.966 195.987 177.205C195.68 177.443 195.449 177.771 195.294 178.188C195.139 178.6 195.061 179.07 195.061 179.597C195.061 180.131 195.139 180.598 195.294 181C195.453 181.398 195.686 181.708 195.993 181.932C196.304 182.152 196.684 182.261 197.135 182.261ZM205.834 184.176C205.281 184.176 204.783 184.078 204.339 183.881C203.9 183.68 203.552 183.384 203.294 182.994C203.04 182.604 202.913 182.123 202.913 181.551C202.913 181.059 203.004 180.652 203.186 180.33C203.368 180.008 203.616 179.75 203.93 179.557C204.245 179.364 204.599 179.218 204.993 179.119C205.391 179.017 205.802 178.943 206.226 178.898C206.737 178.845 207.152 178.797 207.47 178.756C207.788 178.71 208.019 178.642 208.163 178.551C208.311 178.456 208.385 178.311 208.385 178.114V178.08C208.385 177.652 208.258 177.32 208.004 177.085C207.75 176.85 207.385 176.733 206.908 176.733C206.404 176.733 206.004 176.843 205.709 177.062C205.417 177.282 205.22 177.542 205.118 177.841L203.197 177.568C203.349 177.038 203.599 176.595 203.947 176.239C204.296 175.879 204.722 175.61 205.226 175.432C205.73 175.25 206.286 175.159 206.896 175.159C207.317 175.159 207.735 175.208 208.152 175.307C208.569 175.405 208.949 175.568 209.294 175.795C209.639 176.019 209.915 176.324 210.124 176.71C210.336 177.097 210.442 177.58 210.442 178.159V184H208.464V182.801H208.396C208.271 183.044 208.095 183.271 207.868 183.483C207.644 183.691 207.362 183.86 207.021 183.989C206.684 184.114 206.288 184.176 205.834 184.176ZM206.368 182.665C206.781 182.665 207.139 182.583 207.442 182.42C207.745 182.254 207.978 182.034 208.141 181.761C208.307 181.489 208.391 181.191 208.391 180.869V179.841C208.326 179.894 208.216 179.943 208.061 179.989C207.91 180.034 207.739 180.074 207.55 180.108C207.36 180.142 207.173 180.172 206.987 180.199C206.802 180.225 206.641 180.248 206.504 180.267C206.197 180.309 205.923 180.377 205.68 180.472C205.438 180.566 205.247 180.699 205.107 180.869C204.966 181.036 204.896 181.252 204.896 181.517C204.896 181.896 205.035 182.182 205.311 182.375C205.588 182.568 205.94 182.665 206.368 182.665ZM212.51 184V175.273H214.504V176.727H214.595C214.754 176.223 215.027 175.835 215.413 175.562C215.804 175.286 216.249 175.148 216.749 175.148C216.862 175.148 216.989 175.153 217.129 175.165C217.273 175.172 217.393 175.186 217.487 175.205V177.097C217.4 177.066 217.262 177.04 217.072 177.017C216.887 176.991 216.707 176.977 216.533 176.977C216.158 176.977 215.821 177.059 215.521 177.222C215.226 177.381 214.993 177.602 214.822 177.886C214.652 178.17 214.567 178.498 214.567 178.869V184H212.51ZM139.057 203V194.273H141.051V195.727H141.142C141.301 195.223 141.574 194.835 141.96 194.562C142.35 194.286 142.795 194.148 143.295 194.148C143.409 194.148 143.536 194.153 143.676 194.165C143.82 194.172 143.939 194.186 144.034 194.205V196.097C143.947 196.066 143.809 196.04 143.619 196.017C143.434 195.991 143.254 195.977 143.08 195.977C142.705 195.977 142.367 196.059 142.068 196.222C141.773 196.381 141.54 196.602 141.369 196.886C141.199 197.17 141.114 197.498 141.114 197.869V203H139.057ZM148.905 203.17C148.03 203.17 147.274 202.989 146.638 202.625C146.005 202.258 145.518 201.739 145.178 201.068C144.837 200.394 144.666 199.6 144.666 198.688C144.666 197.79 144.837 197.002 145.178 196.324C145.522 195.642 146.003 195.112 146.621 194.733C147.238 194.35 147.964 194.159 148.797 194.159C149.335 194.159 149.842 194.246 150.32 194.42C150.801 194.591 151.225 194.856 151.592 195.216C151.964 195.576 152.255 196.034 152.467 196.591C152.679 197.144 152.786 197.803 152.786 198.568V199.199H145.632V197.812H150.814C150.81 197.419 150.725 197.068 150.558 196.761C150.392 196.451 150.159 196.206 149.859 196.028C149.564 195.85 149.219 195.761 148.825 195.761C148.405 195.761 148.036 195.864 147.717 196.068C147.399 196.269 147.151 196.534 146.973 196.864C146.799 197.189 146.71 197.547 146.706 197.938V199.148C146.706 199.655 146.799 200.091 146.984 200.455C147.17 200.814 147.429 201.091 147.763 201.284C148.096 201.473 148.486 201.568 148.933 201.568C149.232 201.568 149.503 201.527 149.746 201.443C149.988 201.356 150.198 201.229 150.376 201.062C150.554 200.896 150.689 200.689 150.78 200.443L152.7 200.659C152.579 201.167 152.348 201.61 152.007 201.989C151.67 202.364 151.238 202.655 150.712 202.864C150.185 203.068 149.583 203.17 148.905 203.17ZM154.526 206.273V194.273H156.548V195.716H156.668C156.774 195.504 156.923 195.278 157.116 195.04C157.31 194.797 157.571 194.591 157.901 194.42C158.23 194.246 158.651 194.159 159.162 194.159C159.836 194.159 160.444 194.331 160.986 194.676C161.531 195.017 161.963 195.523 162.281 196.193C162.603 196.86 162.764 197.678 162.764 198.648C162.764 199.606 162.607 200.42 162.293 201.091C161.978 201.761 161.55 202.273 161.009 202.625C160.467 202.977 159.853 203.153 159.168 203.153C158.668 203.153 158.253 203.07 157.923 202.903C157.594 202.737 157.329 202.536 157.128 202.301C156.931 202.062 156.777 201.837 156.668 201.625H156.582V206.273H154.526ZM156.543 198.636C156.543 199.201 156.622 199.695 156.781 200.119C156.944 200.544 157.177 200.875 157.48 201.114C157.787 201.348 158.158 201.466 158.594 201.466C159.048 201.466 159.429 201.345 159.736 201.102C160.043 200.856 160.274 200.521 160.429 200.097C160.588 199.669 160.668 199.182 160.668 198.636C160.668 198.095 160.59 197.614 160.435 197.193C160.279 196.773 160.048 196.443 159.741 196.205C159.435 195.966 159.052 195.847 158.594 195.847C158.154 195.847 157.781 195.962 157.474 196.193C157.168 196.424 156.935 196.748 156.776 197.165C156.62 197.581 156.543 198.072 156.543 198.636ZM168.332 203.17C167.48 203.17 166.741 202.983 166.116 202.608C165.491 202.233 165.007 201.708 164.662 201.034C164.321 200.36 164.151 199.572 164.151 198.67C164.151 197.769 164.321 196.979 164.662 196.301C165.007 195.623 165.491 195.097 166.116 194.722C166.741 194.347 167.48 194.159 168.332 194.159C169.185 194.159 169.923 194.347 170.548 194.722C171.173 195.097 171.656 195.623 171.997 196.301C172.342 196.979 172.514 197.769 172.514 198.67C172.514 199.572 172.342 200.36 171.997 201.034C171.656 201.708 171.173 202.233 170.548 202.608C169.923 202.983 169.185 203.17 168.332 203.17ZM168.344 201.523C168.806 201.523 169.192 201.396 169.503 201.142C169.813 200.884 170.045 200.54 170.196 200.108C170.351 199.676 170.429 199.195 170.429 198.665C170.429 198.131 170.351 197.648 170.196 197.216C170.045 196.78 169.813 196.434 169.503 196.176C169.192 195.919 168.806 195.79 168.344 195.79C167.87 195.79 167.476 195.919 167.162 196.176C166.851 196.434 166.618 196.78 166.463 197.216C166.312 197.648 166.236 198.131 166.236 198.665C166.236 199.195 166.312 199.676 166.463 200.108C166.618 200.54 166.851 200.884 167.162 201.142C167.476 201.396 167.87 201.523 168.344 201.523ZM174.26 203V194.273H176.254V195.727H176.345C176.504 195.223 176.777 194.835 177.163 194.562C177.554 194.286 177.999 194.148 178.499 194.148C178.612 194.148 178.739 194.153 178.879 194.165C179.023 194.172 179.143 194.186 179.237 194.205V196.097C179.15 196.066 179.012 196.04 178.822 196.017C178.637 195.991 178.457 195.977 178.283 195.977C177.908 195.977 177.571 196.059 177.271 196.222C176.976 196.381 176.743 196.602 176.572 196.886C176.402 197.17 176.317 197.498 176.317 197.869V203H174.26ZM185.43 194.273V195.864H180.413V194.273H185.43ZM181.652 192.182H183.709V200.375C183.709 200.652 183.75 200.864 183.834 201.011C183.921 201.155 184.035 201.254 184.175 201.307C184.315 201.36 184.47 201.386 184.641 201.386C184.769 201.386 184.887 201.377 184.993 201.358C185.103 201.339 185.186 201.322 185.243 201.307L185.589 202.915C185.48 202.953 185.322 202.994 185.118 203.04C184.917 203.085 184.671 203.112 184.379 203.119C183.864 203.134 183.4 203.057 182.987 202.886C182.574 202.712 182.247 202.443 182.004 202.08C181.766 201.716 181.648 201.261 181.652 200.716V192.182ZM190.92 203.17C190.045 203.17 189.29 202.989 188.653 202.625C188.021 202.258 187.534 201.739 187.193 201.068C186.852 200.394 186.682 199.6 186.682 198.688C186.682 197.79 186.852 197.002 187.193 196.324C187.538 195.642 188.019 195.112 188.636 194.733C189.254 194.35 189.979 194.159 190.812 194.159C191.35 194.159 191.858 194.246 192.335 194.42C192.816 194.591 193.241 194.856 193.608 195.216C193.979 195.576 194.271 196.034 194.483 196.591C194.695 197.144 194.801 197.803 194.801 198.568V199.199H187.648V197.812H192.83C192.826 197.419 192.741 197.068 192.574 196.761C192.407 196.451 192.174 196.206 191.875 196.028C191.58 195.85 191.235 195.761 190.841 195.761C190.42 195.761 190.051 195.864 189.733 196.068C189.415 196.269 189.167 196.534 188.989 196.864C188.814 197.189 188.725 197.547 188.722 197.938V199.148C188.722 199.655 188.814 200.091 189 200.455C189.186 200.814 189.445 201.091 189.778 201.284C190.112 201.473 190.502 201.568 190.949 201.568C191.248 201.568 191.519 201.527 191.761 201.443C192.004 201.356 192.214 201.229 192.392 201.062C192.57 200.896 192.705 200.689 192.795 200.443L194.716 200.659C194.595 201.167 194.364 201.61 194.023 201.989C193.686 202.364 193.254 202.655 192.727 202.864C192.201 203.068 191.598 203.17 190.92 203.17Z" fill="#B096B2"/>
<ellipse cx="62" cy="188" rx="58" ry="56" fill="#FBEDFC"/>
<path d="M66.1445 149.512C68.6648 149.515 70.7904 150.293 72.6406 152.014L73.0068 152.37C77.9026 157.352 82.8358 162.295 87.791 167.215L92.7529 172.127C94.6258 173.974 95.4782 176.136 95.4814 178.7L95.5 196.362C95.5011 199.306 95.4998 202.25 95.4961 205.193L95.4746 214.023C95.4494 220.662 90.8699 225.538 84.2812 225.887L83.6367 225.906C72.8468 225.995 62.0548 226.013 51.2627 225.939L46.6377 225.902C42.8663 225.866 39.8452 224.606 37.7666 222.458C35.6867 220.308 34.5069 217.224 34.5068 213.46V187.722C34.5068 178.975 34.4863 170.229 34.5166 161.485C34.5355 156.388 37.1975 152.332 41.5938 150.482L42.0244 150.311H42.0254C43.4006 149.789 44.8511 149.581 46.334 149.533L46.9717 149.521H46.9727C50.1669 149.505 53.3621 149.5 56.5576 149.5L66.1445 149.512ZM65.3438 156.648C62.316 156.67 59.2897 156.675 56.2627 156.674L47.1787 156.669C45.2095 156.669 43.7665 156.921 42.8496 157.828C42.0461 158.623 41.7463 159.821 41.6816 161.424L41.667 162.135C41.6535 170.659 41.6641 179.185 41.6641 187.705V187.823L41.666 187.828C41.6659 194.265 41.6594 200.703 41.6641 207.142L41.6738 213.619C41.679 215.381 41.9917 216.718 42.876 217.594C43.7043 218.414 44.9318 218.729 46.5225 218.765L46.8447 218.769C58.9026 218.772 70.9578 218.772 83.0156 218.769L83.0146 218.768C84.8569 218.768 86.2402 218.485 87.1367 217.582C88.0319 216.681 88.3186 215.286 88.3203 213.413L88.3252 196.674C88.3252 193.884 88.3259 191.095 88.3301 188.306L88.3545 179.938C88.3614 178.383 87.913 177.199 86.8877 176.1L86.6748 175.881L82.1934 171.442C79.2111 168.479 76.2391 165.505 73.2744 162.523L68.833 158.046C67.8826 157.085 66.8643 156.688 65.5996 156.651L65.3438 156.648Z" fill="#927494" stroke="#FBEDFC"/>
<path d="M63.9922 176.642C64.5845 176.434 65.2414 176.408 65.9951 176.654V176.655C67.4466 177.132 68.4059 178.316 68.54 179.96L68.5557 180.295C68.6027 183.595 68.5659 186.894 68.5625 190.206V193.996L69.3105 193.568C70.6002 192.831 71.3378 191.893 72.0283 191.09L72.0293 191.091C72.688 190.327 73.4002 189.632 74.1826 189.031L74.5225 188.779C75.8191 187.852 77.4657 187.893 78.6357 188.78L78.8633 188.968C80.0437 190.036 80.3509 191.657 79.6152 193.096L79.4541 193.381L79.4531 193.382C79.2128 193.77 78.9127 194.137 78.583 194.493L78.2451 194.844C75.6683 197.436 73.0904 200.027 70.501 202.607L67.9062 205.183C66.9607 206.119 65.9577 206.548 64.9932 206.545C64.0886 206.543 63.149 206.163 62.2539 205.34L62.0752 205.169C60.3461 203.454 58.6216 201.733 56.8994 200.008L51.7354 194.831C51.4436 194.536 51.1678 194.244 50.9258 193.94L50.6953 193.63L50.6943 193.628L50.5059 193.334C49.6936 191.95 49.8301 190.421 50.8057 189.294L51.0273 189.06C52.178 187.94 53.9073 187.756 55.3154 188.674L55.5928 188.874C56.2938 189.425 56.9196 190.055 57.5723 190.708L58.2383 191.366C58.9083 192.016 59.5572 192.678 60.5723 193.69L60.7188 193.835H61.4287V180.955L61.4336 180.492C61.4582 179.509 61.5882 178.671 62.1445 177.991L62.2803 177.836C62.8229 177.265 63.3899 176.854 63.9922 176.642Z" fill="#927494" stroke="#FBEDFC"/>
</svg>
