<svg width="464" height="419" viewBox="0 0 464 419" fill="none" xmlns="http://www.w3.org/2000/svg">
<g opacity="0.7">
<path d="M90.2047 304.917C75.2431 304.722 62.5256 317.673 62.428 333.155C62.3629 348.67 74.625 361.88 89.5216 362.302C104.093 362.723 118.925 347.955 118.664 333.252C118.404 318.452 105.004 305.079 90.1722 304.917H90.2047Z" fill="white"/>
<path d="M400.854 150.389C386.933 150.096 341.365 150.032 327.444 150.518C286.104 151.946 259.986 178.659 259.434 220.009C259.173 240.49 259.401 260.97 259.401 290.506C258.783 306.93 261.027 332.473 258.36 357.92C256.409 376.453 245.578 386.028 227.786 385.509C211.882 385.054 201.148 373.467 200.693 355.453C200.303 338.835 200.53 322.217 200.498 305.599C200.4 262.366 175.193 237.082 131.934 236.919C114.501 236.855 97.0673 237.179 79.6337 236.725C65.7129 236.368 55.2397 227.994 52.7027 215.433C50.3283 203.651 56.1504 195.244 65.5177 189.11C72.1854 184.728 79.9589 184.144 87.8625 184.144C127.771 184.209 167.647 184.404 207.556 184.014C237.934 183.722 271.826 172.2 286.657 130.752C294.854 107.805 297.521 74.5685 290.203 44.6105C283.014 15.1718 253.807 -3.1016 223.688 0.436239C195.131 3.77933 171.843 28.0573 170.152 57.3013C169.013 76.9703 169.436 96.7043 168.493 116.373C167.55 135.783 139.806 146.364 120.225 148.863C102.076 151.168 83.8619 149.707 65.6803 150.194C55.1421 150.453 44.8966 151.33 35.2041 156.166C10.5174 168.532 -4.44416 198.068 1.18272 223.807C8.04556 255.29 32.2117 276.16 63.0457 276.647C85.4882 277.004 107.963 276.55 130.438 276.744C156.979 276.972 169.273 289.338 169.664 316.083C169.891 330.753 169.404 345.456 169.859 360.127C170.835 392.13 197.018 417.609 229.185 418.29C261.32 418.972 286.983 395.603 289.357 362.951C290.43 348.313 290.365 333.609 291.048 318.939C292.382 290.247 306.107 277.231 334.925 276.809C349.984 276.582 396.658 277.848 411.62 274.602C441.966 268.046 466.099 238.77 463.855 210.727C461.026 175.575 435.623 151.135 400.854 150.389Z" fill="white"/>
</g>
</svg>
