<svg width="306" height="115" viewBox="0 0 306 115" fill="none" xmlns="http://www.w3.org/2000/svg">
<g clip-path="url(#clip0_109_26)">
<path opacity="0.7" d="M36.0373 72.9387L18.3663 72.9001V9.02456C18.3663 7.73959 18.126 6.54458 17.6409 5.43951C17.1559 4.33872 16.5035 3.38357 15.6751 2.57832C14.8467 1.77736 13.881 1.14345 12.7736 0.685142C11.6705 0.226838 10.473 -0.00445557 9.18102 -0.00445557C7.88906 -0.00445557 6.75163 0.226838 5.62707 0.685142C4.49823 1.14345 3.5196 1.77736 2.69121 2.57832C1.86282 3.38357 1.20611 4.33444 0.725382 5.43951C0.240363 6.54029 0 7.73531 0 9.02456V82.1304C0 83.3726 0.231779 84.5333 0.691044 85.6084C1.15031 86.6878 1.77268 87.6301 2.55386 88.4353C3.33504 89.2406 4.26645 89.8831 5.34808 90.3628C6.42972 90.8468 7.56715 91.1081 8.76467 91.1552H49.7123C50.6222 91.1552 51.4807 91.0395 52.2962 90.8254C49.3002 89.1463 46.5704 87.1161 44.1582 84.7432C40.7502 81.3937 38.016 77.4189 36.0373 72.9387Z" fill="white"/>
<path opacity="0.7" d="M80.7447 71.3498C79.8476 71.6025 78.9377 72.0265 78.0149 72.6262C77.1393 73.1316 76.1606 73.5342 75.079 73.834C73.9974 74.1339 72.5595 74.2795 70.7653 74.2795C67.9582 74.2795 65.3786 73.5899 63.0308 72.215C60.683 70.8358 58.7729 68.9555 57.3007 66.5654H82.4873V57.8148C82.5088 55.5833 82.7234 53.3988 83.1312 51.2701H56.7513C57.9961 48.653 59.8331 46.4814 62.2754 44.7596C64.7133 43.0377 67.6621 42.1768 71.113 42.1768C74.5639 42.1768 77.4397 43.0035 80.0193 44.6568C81.5302 45.6248 82.8136 46.7898 83.878 48.1348C84.3416 46.5157 84.921 44.9309 85.6121 43.389C87.4105 39.3927 89.797 35.8205 92.7114 32.7452C90.0674 30.4922 87.0929 28.659 83.7793 27.2584C79.706 25.5365 75.3666 24.6756 70.7653 24.6756C66.1641 24.6756 61.7303 25.5494 57.614 27.2926C53.4935 29.0402 49.8924 31.4388 46.8063 34.4927C43.7202 37.5467 41.2822 41.1189 39.4881 45.2093C37.6939 49.2998 36.7969 53.6815 36.7969 58.3716C36.7969 62.1709 37.4107 65.7773 38.6125 69.191L49.7207 69.2167C51.5191 69.2167 53.236 69.568 54.8155 70.2576C56.3436 70.9215 57.7128 71.8509 58.8717 73.0074C60.0477 74.181 60.9705 75.5602 61.6187 77.1107C62.2711 78.6741 62.6016 80.3659 62.6016 82.1435C62.6016 83.921 62.2711 85.6814 61.623 87.2405C61.1809 88.3027 60.6057 89.2707 59.919 90.1488C63.3613 91.3267 66.9753 91.9263 70.7696 91.9263C74.5639 91.9263 77.5728 91.6179 80.264 90.9969C81.0452 90.817 81.7834 90.6157 82.4916 90.4015V71.0285C81.9251 71.0842 81.3456 71.1913 80.749 71.3583L80.7447 71.3498Z" fill="white"/>
<path opacity="0.7" d="M58.8289 82.1349C58.8289 80.8499 58.5972 79.6549 58.1379 78.5499C57.6786 77.4491 57.0348 76.4854 56.2064 75.6544C55.378 74.8278 54.4123 74.1724 53.3049 73.6927C52.2018 73.2087 51.0043 72.9688 49.7123 72.9688L40.2051 72.9474C41.9134 76.3783 44.1153 79.4194 46.8065 82.0621C49.5363 84.7477 52.6739 86.9321 56.215 88.6283C57.0348 87.8273 57.6743 86.8807 58.1336 85.7842C58.5929 84.6834 58.8246 83.467 58.8246 82.1306L58.8289 82.1349Z" fill="white"/>
<path opacity="0.7" d="M129.131 81.7537C129.131 77.9887 130.277 74.8963 132.543 72.5662C134.805 70.2318 137.844 68.9983 141.329 68.9983H146.274C145.784 68.8098 145.299 68.5999 144.823 68.3772C141.848 66.9723 139.252 65.0491 137.101 62.6548C136.41 61.8839 135.771 61.07 135.17 60.2177C135.002 61.6397 134.638 62.9975 134.075 64.2867C133.268 66.1242 132.178 67.7304 130.796 69.1096C129.414 70.4888 127.804 71.5682 125.963 72.3477C124.122 73.1273 122.143 73.5213 120.023 73.5213C117.902 73.5213 115.984 73.1316 114.121 72.3477C112.258 71.5682 110.623 70.4845 109.219 69.1096C108.03 67.9403 107.056 66.6082 106.296 65.1134C105.845 65.7602 105.326 66.3684 104.738 66.9209C102.343 69.1825 99.2741 70.3261 95.6214 70.3261H91.5524C91.8786 70.613 92.192 70.9214 92.4924 71.2427C93.6084 72.4505 94.4926 73.8597 95.1193 75.4274C95.7588 77.025 96.0807 78.6997 96.0807 80.4088C96.0807 82.6746 95.4497 84.8376 94.2007 86.8421C92.9989 88.7696 91.2048 90.4272 88.8741 91.7678C88.0715 92.2304 87.2001 92.6545 86.2559 93.0442V105.423C86.2559 106.755 86.5091 108.005 87.0156 109.179C87.5221 110.348 88.2002 111.372 89.0544 112.246C89.9042 113.115 90.8957 113.796 92.0246 114.276C93.1534 114.76 94.3595 115 95.6515 115C96.9434 115 98.2053 114.76 99.3127 114.276C100.416 113.792 101.36 113.115 102.146 112.246C102.927 111.372 103.536 110.348 103.974 109.179C104.412 108.005 104.631 106.755 104.631 105.423V88.1956C106.979 89.3907 109.442 90.3073 112.018 90.9497C114.597 91.5922 117.267 91.9135 120.027 91.9135C124.062 91.9135 127.903 91.2324 131.547 89.8747C130.903 88.958 130.371 87.9344 129.972 86.8207C129.414 85.2702 129.131 83.5612 129.131 81.7494V81.7537Z" fill="white"/>
<path opacity="0.7" d="M107.417 49.7452C107.949 48.9828 108.55 48.2718 109.219 47.6122C110.623 46.233 112.258 45.1536 114.121 44.3741C115.984 43.5945 117.954 43.2048 120.023 43.2048C122.092 43.2048 124.118 43.5945 125.963 44.3741C127.633 45.0851 129.114 46.0403 130.406 47.2396C130.341 46.4857 130.303 45.7233 130.303 44.9566C130.303 41.6885 130.955 38.5404 132.238 35.5892C133.303 33.1392 134.719 30.9334 136.449 28.9974C135.363 28.3891 134.243 27.8238 133.071 27.3183C128.972 25.5494 124.624 24.667 120.023 24.667C115.422 24.667 111.151 25.5408 107.078 27.2841C103.781 28.6975 100.819 30.5265 98.1841 32.7494C101.081 35.8376 103.455 39.4013 105.245 43.3804C106.168 45.4278 106.889 47.5522 107.412 49.741L107.417 49.7452Z" fill="white"/>
<path opacity="0.7" d="M90.9988 84.8547C91.8744 83.4541 92.3123 81.9721 92.3123 80.4088C92.3123 79.1666 92.0805 77.9759 91.6212 76.8237C91.1619 75.6758 90.5267 74.665 89.7241 73.7912C88.9171 72.9174 87.9728 72.2278 86.8912 71.7224C86.6852 71.6282 86.4749 71.5425 86.2603 71.4654V88.8981C86.5135 88.7696 86.7581 88.6368 86.9942 88.4998C88.7884 87.4675 90.1232 86.2511 90.9988 84.8505V84.8547Z" fill="white"/>
<path opacity="0.7" d="M86.2646 57.8105V66.5611H95.6302C98.3 66.5611 100.476 65.7688 102.154 64.184C103.833 62.5992 104.674 60.4961 104.674 57.8791C104.579 53.2875 103.627 48.9657 101.807 44.9266C100.184 41.3159 98.0596 38.1249 95.4457 35.3365C92.8188 38.112 90.6856 41.303 89.0589 44.9266C87.239 48.97 86.3076 53.2618 86.2646 57.8105Z" fill="white"/>
<path opacity="0.7" d="M171.529 81.1283C169.589 78.5713 168.001 75.7443 166.786 72.7118C166.533 72.7418 166.284 72.7589 166.048 72.7589H154.519C154.498 72.8103 154.476 72.8617 154.455 72.9174C152.497 77.4019 149.806 81.3725 146.445 84.7262C144.11 87.0563 141.471 89.0523 138.565 90.7142C139.411 91.0097 140.333 91.1596 141.325 91.1596H168.117C171.061 91.0654 173.778 90.4486 176.263 89.2964C177.032 88.9409 177.766 88.5426 178.47 88.1143C175.838 86.084 173.508 83.7411 171.529 81.1241V81.1283Z" fill="white"/>
<path opacity="0.7" d="M154.176 43.1619C154.464 43.0506 154.76 42.9949 155.069 42.9949H164.207V33.7603C164.207 32.0042 164.559 30.3123 165.25 28.7361C165.915 27.2241 166.816 25.8749 167.937 24.727C167.98 24.6842 168.027 24.6413 168.07 24.5942H154.725C151.871 24.5942 149.188 25.1339 146.682 26.2175C145.205 26.8557 143.845 27.6267 142.591 28.5219C143.961 29.5585 145.252 30.6807 146.459 31.8971C149.661 35.1181 152.249 38.9087 154.176 43.1577V43.1619Z" fill="white"/>
<path opacity="0.7" d="M164.207 59.2583V48.3703H156.082C156.974 51.5742 157.425 54.9151 157.425 58.3631C157.425 61.25 157.107 64.0597 156.485 66.771H164.975C164.464 64.3381 164.207 61.8239 164.207 59.2583Z" fill="white"/>
<path opacity="0.7" d="M134.08 44.9566C134.08 47.8092 134.599 50.5462 135.633 53.1675C136.668 55.7889 138.097 58.1147 139.913 60.1406C141.733 62.1666 143.904 63.7771 146.437 64.9721C148.364 65.8844 150.429 66.4455 152.626 66.6639C153.309 64.0084 153.652 61.2414 153.652 58.3631C153.652 53.7244 152.764 49.3598 150.995 45.2736C149.222 41.1874 146.819 37.6152 143.78 34.557C142.505 33.2763 141.136 32.1198 139.677 31.0662C138.024 32.8051 136.694 34.814 135.702 37.0969C134.62 39.5812 134.08 42.2025 134.08 44.9652V44.9566Z" fill="white"/>
<path opacity="0.7" d="M150.373 72.7632H141.329C138.844 72.7632 136.818 73.5728 135.252 75.1832C133.685 76.798 132.904 78.9867 132.904 81.7537C132.904 83.1372 133.11 84.405 133.526 85.5572C133.904 86.6109 134.436 87.5232 135.101 88.307C138.355 86.6623 141.252 84.5849 143.78 82.0621C146.48 79.3679 148.673 76.2669 150.373 72.7589V72.7632Z" fill="white"/>
<path opacity="0.7" d="M185.419 87.279C185.239 87.4718 185.054 87.656 184.865 87.8444C186.891 88.9795 189.042 89.9046 191.316 90.6114V105.77C191.316 107.102 191.548 108.331 192.007 109.458C192.467 110.584 193.123 111.561 193.973 112.387C194.823 113.214 195.828 113.856 196.978 114.315C198.128 114.773 199.347 115.004 200.639 115.004C201.931 115.004 203.124 114.773 204.232 114.315C205.335 113.856 206.305 113.214 207.133 112.387C207.962 111.561 208.605 110.584 209.065 109.458C209.524 108.331 209.756 107.102 209.756 105.77V90.7484C213.164 89.7376 216.314 88.2342 219.216 86.2339C222.117 84.238 224.624 81.8693 226.74 79.1366C228.856 76.404 230.504 73.35 231.676 69.9748C232.852 66.5997 233.436 63.0275 233.436 59.2583V33.7646C233.436 32.5224 233.217 31.3531 232.779 30.2523C232.341 29.1515 231.71 28.1835 230.878 27.3569C230.049 26.5302 229.092 25.8749 228.01 25.3952C226.929 24.9112 225.74 24.6713 224.456 24.6713C223.173 24.6713 222.014 24.9112 220.864 25.3952C219.714 25.8749 218.722 26.5302 217.894 27.3569C217.065 28.1835 216.387 29.1473 215.855 30.2523C215.327 31.3531 215.061 32.5267 215.061 33.7646V58.9156C215.061 60.9373 214.692 62.8305 213.958 64.5994C213.22 66.3684 212.219 67.9189 210.953 69.251C209.687 70.5831 208.18 71.641 206.429 72.4206C204.678 73.2001 202.794 73.5942 200.768 73.5942C198.742 73.5942 196.785 73.2387 195.038 72.5276C193.943 72.0822 192.943 71.5297 192.029 70.87C191.943 73.894 191.368 76.7894 190.299 79.4879C189.14 82.4176 187.496 85.0389 185.415 87.2833L185.419 87.279Z" fill="white"/>
<path opacity="0.7" d="M187.934 66.0943C187.681 64.6551 187.294 63.2502 186.762 61.8753C186.655 61.6012 186.543 61.3313 186.427 61.0658C185.444 58.7785 184.127 56.7397 182.483 54.9493C180.641 52.9491 178.444 51.3557 175.89 50.1607C173.474 49.0299 170.834 48.4431 167.979 48.3832V59.2583C167.979 62.098 168.327 64.835 169.014 67.4649C169.216 67.6191 169.392 67.8033 169.538 68.026C169.791 68.4115 169.92 68.9469 169.92 69.6279C169.92 69.8378 169.902 70.0263 169.872 70.2104C171.01 73.3629 172.564 76.2498 174.542 78.8582C176.534 81.4881 178.89 83.7839 181.607 85.7542C181.968 85.4201 182.32 85.0775 182.655 84.7177C184.427 82.8116 185.809 80.6058 186.797 78.1001C187.784 75.5987 188.282 72.9217 188.282 70.0734C188.282 68.7199 188.161 67.3964 187.934 66.0943Z" fill="white"/>
<path opacity="0.7" d="M173.538 25.3909C172.409 25.8706 171.443 26.5259 170.636 27.3526C169.829 28.1792 169.186 29.143 168.705 30.248C168.22 31.3488 167.979 32.5224 167.979 33.7603V42.9949H176.684C177.834 42.9949 178.937 42.755 179.998 42.271C181.058 41.787 181.963 41.1188 182.723 40.2665C183.483 39.4141 184.092 38.4118 184.552 37.2597C185.011 36.1075 185.243 34.8611 185.243 33.5247C185.243 32.0984 185.002 30.8263 184.517 29.7212C184.037 28.6161 183.38 27.6824 182.552 26.92C181.723 26.1576 180.757 25.5836 179.65 25.1896C178.916 24.9283 178.152 24.7655 177.362 24.6756C177.272 24.6756 177.186 24.6713 177.096 24.6713C175.851 24.6713 174.667 24.9112 173.542 25.3952L173.538 25.3909Z" fill="white"/>
<g opacity="0.7">
<path d="M255.716 44.6354C253.742 44.6097 252.064 46.3187 252.051 48.3618C252.042 50.4091 253.66 52.1524 255.626 52.2081C257.549 52.2638 259.506 50.3149 259.472 48.3746C259.438 46.4215 257.669 44.6568 255.712 44.6354H255.716Z" fill="white"/>
<path d="M296.711 24.243C294.874 24.2044 288.861 24.1959 287.024 24.2601C281.568 24.4486 278.122 27.9737 278.049 33.4305C278.014 36.1332 278.044 38.8359 278.044 42.7336C277.963 44.9009 278.259 48.2718 277.907 51.6299C277.649 54.0756 276.22 55.3391 273.872 55.2706C271.773 55.2106 270.357 53.6815 270.297 51.3043C270.245 49.1113 270.275 46.9183 270.271 44.7253C270.258 39.0201 266.932 35.6835 261.223 35.662C258.923 35.6535 256.622 35.6963 254.321 35.6363C252.484 35.5892 251.102 34.4842 250.767 32.8265C250.454 31.2717 251.222 30.1624 252.459 29.3529C253.338 28.7746 254.364 28.6975 255.407 28.6975C260.674 28.7061 265.936 28.7318 271.203 28.6804C275.211 28.6418 279.684 27.1213 281.641 21.6516C282.723 18.6234 283.075 14.2374 282.109 10.284C281.16 6.39912 277.306 3.98767 273.332 4.45454C269.563 4.89571 266.49 8.09956 266.267 11.9587C266.116 14.5544 266.172 17.1586 266.048 19.7542C265.923 22.3155 262.262 23.7119 259.678 24.0417C257.283 24.3458 254.879 24.153 252.48 24.2173C251.089 24.2516 249.737 24.3672 248.458 25.0054C245.2 26.6373 243.226 30.535 243.969 33.9316C244.874 38.0863 248.063 40.8404 252.132 40.9047C255.094 40.9518 258.06 40.8918 261.026 40.9175C264.528 40.9475 266.151 42.5794 266.202 46.1088C266.232 48.0448 266.168 49.9851 266.228 51.9211C266.357 56.1444 269.812 59.5067 274.057 59.5966C278.298 59.6866 281.684 56.6027 281.997 52.2938C282.139 50.362 282.131 48.4217 282.221 46.4857C282.397 42.6994 284.208 40.9818 288.011 40.9261C289.998 40.8961 296.157 41.0632 298.132 40.6348C302.136 39.7696 305.321 35.9062 305.025 32.2055C304.652 27.5668 301.3 24.3415 296.711 24.243Z" fill="white"/>
</g>
<path opacity="0.7" d="M180.526 45.7362C179.277 46.3101 177.959 46.6399 176.611 46.7299C176.624 46.7342 176.633 46.7384 176.646 46.747C179.491 48.0791 181.977 49.8866 184.037 52.1224C184.397 52.5122 184.736 52.9191 185.071 53.3346V42.0055C184.831 42.3353 184.578 42.6565 184.307 42.9607C183.256 44.1385 181.985 45.0766 180.53 45.7447L180.526 45.7362Z" fill="white"/>
</g>
<defs>
<clipPath id="clip0_109_26">
<rect width="305.042" height="115" fill="white"/>
</clipPath>
</defs>
</svg>
