<svg width="271" height="102" viewBox="0 0 271 102" fill="none" xmlns="http://www.w3.org/2000/svg">
<g opacity="0.7">
<g opacity="0.7">
<path d="M32.0156 64.6932L16.3167 64.659V8.00419C16.3167 6.86448 16.1031 5.80456 15.6722 4.82441C15.2413 3.84806 14.6617 3.00088 13.9258 2.28666C13.1898 1.57624 12.3319 1.01399 11.3481 0.607492C10.3681 0.200997 9.3042 -0.00415039 8.15642 -0.00415039C7.00865 -0.00415039 5.99816 0.200997 4.9991 0.607492C3.99623 1.01399 3.12682 1.57624 2.39087 2.28666C1.65493 3.00088 1.07151 3.84426 0.64443 4.82441C0.213539 5.80076 0 6.86069 0 8.00419V72.8459C0 73.9476 0.205913 74.9772 0.613925 75.9307C1.02194 76.8881 1.57485 77.7239 2.26885 78.4381C2.96285 79.1523 3.79032 79.7222 4.75124 80.1477C5.71217 80.5769 6.72266 80.8087 7.78655 80.8505H44.1644C44.9728 80.8505 45.7355 80.7479 46.46 80.558C43.7984 79.0687 41.3732 77.268 39.2302 75.1633C36.2025 72.1925 33.7735 68.667 32.0156 64.6932Z" fill="#633C66"/>
</g>
<g opacity="0.7">
<path d="M71.7337 63.2841C70.9368 63.5083 70.1284 63.8844 69.3085 64.4162C68.5307 64.8645 67.6612 65.2216 66.7003 65.4876C65.7394 65.7535 64.462 65.8827 62.8681 65.8827C60.3742 65.8827 58.0825 65.271 55.9967 64.0515C53.9109 62.8283 52.214 61.1605 50.9061 59.0406H73.2819V51.2792C73.301 49.2999 73.4916 47.3624 73.8539 45.4743H50.418C51.5238 43.1531 53.1558 41.227 55.3256 39.6998C57.4915 38.1726 60.1111 37.409 63.1769 37.409C66.2427 37.409 68.7976 38.1422 71.0893 39.6086C72.4316 40.4672 73.5717 41.5005 74.5174 42.6934C74.9292 41.2574 75.444 39.8518 76.0579 38.4841C77.6556 34.9396 79.7758 31.7712 82.3649 29.0435C80.016 27.0452 77.3735 25.4193 74.4297 24.177C70.8109 22.6498 66.9558 21.8862 62.8681 21.8862C58.7803 21.8862 54.8413 22.6612 51.1844 24.2074C47.5238 25.7574 44.3245 27.8848 41.5828 30.5935C38.8411 33.3022 36.6752 36.4706 35.0813 40.0987C33.4874 43.7268 32.6904 47.6132 32.6904 51.7731C32.6904 55.1428 33.2357 58.3416 34.3034 61.3694L44.172 61.3922C45.7697 61.3922 47.295 61.7037 48.6982 62.3154C50.0557 62.9042 51.2721 63.7286 52.3017 64.7544C53.3465 65.7953 54.1663 67.0186 54.7421 68.3938C55.3217 69.7805 55.6154 71.2811 55.6154 72.8577C55.6154 74.4343 55.3217 75.9957 54.746 77.3785C54.3532 78.3207 53.8422 79.1793 53.2321 79.9581C56.2903 81.0028 59.501 81.5346 62.8719 81.5346C66.2427 81.5346 68.9158 81.2611 71.3067 80.7103C72.0007 80.5507 72.6565 80.3721 73.2857 80.1822V62.9992C72.7824 63.0486 72.2676 63.1436 71.7376 63.2917L71.7337 63.2841Z" fill="#633C66"/>
</g>
<g opacity="0.7">
<path d="M52.2637 72.8501C52.2637 71.7104 52.0578 70.6504 51.6498 69.6703C51.2418 68.6939 50.6698 67.8392 49.9339 67.1022C49.1979 66.3689 48.3399 65.7877 47.3561 65.3622C46.3761 64.9329 45.3123 64.7202 44.1645 64.7202L35.7183 64.7012C37.2359 67.7442 39.1921 70.4415 41.583 72.7855C44.0082 75.1675 46.7956 77.105 49.9415 78.6094C50.6698 77.899 51.238 77.0594 51.646 76.0868C52.054 75.1105 52.2599 74.0316 52.2599 72.8463L52.2637 72.8501Z" fill="#633C66"/>
</g>
<g opacity="0.7">
<path d="M114.72 72.512C114.72 69.1726 115.738 66.4297 117.751 64.363C119.761 62.2926 122.461 61.1985 125.557 61.1985H129.95C129.515 61.0313 129.084 60.8452 128.661 60.6476C126.018 59.4015 123.711 57.6958 121.801 55.5721C121.187 54.8883 120.619 54.1665 120.085 53.4105C119.936 54.6717 119.612 55.876 119.113 57.0195C118.396 58.6493 117.427 60.074 116.199 61.2972C114.972 62.5205 113.542 63.4779 111.906 64.1693C110.27 64.8607 108.512 65.2102 106.628 65.2102C104.745 65.2102 103.04 64.8645 101.385 64.1693C99.7302 63.4779 98.2774 62.5167 97.0305 61.2972C95.9742 60.2601 95.1086 59.0786 94.4337 57.7527C94.0333 58.3264 93.5719 58.8659 93.0495 59.3559C90.9217 61.3618 88.1953 62.3762 84.9503 62.3762H81.3354C81.6252 62.6307 81.9035 62.9042 82.1705 63.1892C83.1619 64.2605 83.9474 65.5104 84.5041 66.9008C85.0723 68.3178 85.3583 69.8033 85.3583 71.3191C85.3583 73.3287 84.7977 75.2473 83.6881 77.0252C82.6204 78.7348 81.0265 80.205 78.9559 81.3941C78.2429 81.8044 77.4688 82.1805 76.6299 82.5262V93.5054C76.6299 94.6869 76.8549 95.7962 77.3048 96.8371C77.7548 97.8742 78.3573 98.7822 79.1161 99.5572C79.8711 100.328 80.7519 100.932 81.7548 101.358C82.7577 101.787 83.8292 102 84.977 102C86.1247 102 87.2458 101.787 88.2296 101.358C89.2096 100.929 90.0485 100.328 90.7463 99.5572C91.4403 98.7822 91.9818 97.8742 92.3708 96.8371C92.7597 95.7962 92.9542 94.6869 92.9542 93.5054V78.2257C95.04 79.2856 97.2288 80.0986 99.5167 80.6685C101.808 81.2383 104.18 81.5232 106.632 81.5232C110.217 81.5232 113.629 80.9192 116.867 79.7149C116.295 78.9019 115.822 77.9939 115.467 77.0062C114.972 75.631 114.72 74.1151 114.72 72.5082V72.512Z" fill="#633C66"/>
</g>
<g opacity="0.7">
<path d="M95.4292 44.1219C95.9021 43.4456 96.4359 42.815 97.0308 42.2299C98.2777 41.0067 99.7305 40.0493 101.385 39.3579C103.04 38.6665 104.791 38.3207 106.629 38.3207C108.467 38.3207 110.266 38.6665 111.906 39.3579C113.389 39.9885 114.705 40.8357 115.853 41.8994C115.796 41.2308 115.761 40.5546 115.761 39.8745C115.761 36.9759 116.341 34.1836 117.481 31.5661C118.427 29.393 119.685 27.4365 121.222 25.7194C120.257 25.1799 119.262 24.6785 118.221 24.2302C114.579 22.6612 110.716 21.8786 106.629 21.8786C102.541 21.8786 98.7467 22.6536 95.128 24.1998C92.1995 25.4535 89.5684 27.0756 87.2271 29.0473C89.801 31.7864 91.9097 34.9472 93.4998 38.4765C94.3196 40.2924 94.9602 42.1768 95.4254 44.1181L95.4292 44.1219Z" fill="#633C66"/>
</g>
<g opacity="0.7">
<path d="M80.8436 75.2625C81.6214 74.0202 82.0104 72.7057 82.0104 71.3191C82.0104 70.2173 81.8045 69.1612 81.3965 68.1393C80.9885 67.1211 80.4241 66.2246 79.711 65.4496C78.9942 64.6746 78.1553 64.0629 77.1943 63.6146C77.0113 63.5311 76.8244 63.4551 76.6338 63.3867V78.8487C76.8588 78.7348 77.0761 78.617 77.2858 78.4954C78.8798 77.5799 80.0657 76.5009 80.8436 75.2587V75.2625Z" fill="#633C66"/>
</g>
<g opacity="0.7">
<path d="M76.6377 51.2754V59.0368H84.9581C87.3299 59.0368 89.2632 58.334 90.7541 56.9284C92.2451 55.5227 92.9925 53.6574 92.9925 51.3362C92.9086 47.2636 92.0621 43.4304 90.4453 39.8479C89.0039 36.6454 87.1164 33.8151 84.7941 31.3419C82.4604 33.8037 80.5653 36.634 79.1201 39.8479C77.5033 43.4342 76.6758 47.2409 76.6377 51.2754Z" fill="#633C66"/>
</g>
<g opacity="0.7">
<path d="M152.387 71.9573C150.663 69.6893 149.252 67.1819 148.173 64.4922C147.948 64.5188 147.727 64.534 147.517 64.534H137.275C137.256 64.5796 137.237 64.6252 137.218 64.6746C135.479 68.6522 133.088 72.1738 130.103 75.1485C128.028 77.2152 125.683 78.9855 123.102 80.4595C123.853 80.7216 124.673 80.8546 125.553 80.8546H149.355C151.971 80.771 154.385 80.224 156.593 79.202C157.275 78.8867 157.927 78.5334 158.553 78.1535C156.215 76.3528 154.145 74.2747 152.387 71.9535V71.9573Z" fill="#633C66"/>
</g>
<g opacity="0.7">
<path d="M136.97 38.2827C137.226 38.184 137.489 38.1346 137.763 38.1346H145.881V29.9439C145.881 28.3863 146.194 26.8857 146.808 25.4876C147.399 24.1466 148.2 22.9499 149.195 21.9318C149.233 21.8938 149.275 21.8558 149.313 21.814H137.458C134.922 21.814 132.539 22.2927 130.312 23.2538C129 23.8199 127.792 24.5037 126.678 25.2977C127.895 26.217 129.042 27.2124 130.114 28.2913C132.959 31.1482 135.258 34.5103 136.97 38.279V38.2827Z" fill="#633C66"/>
</g>
<g opacity="0.7">
<path d="M145.881 52.5595V42.9024H138.663C139.456 45.744 139.857 48.7073 139.857 51.7655C139.857 54.326 139.574 56.8182 139.022 59.223H146.564C146.11 57.0651 145.881 54.8351 145.881 52.5595Z" fill="#633C66"/>
</g>
<g opacity="0.7">
<path d="M119.117 39.8745C119.117 42.4047 119.578 44.8323 120.497 47.1573C121.416 49.4823 122.686 51.5451 124.299 53.3421C125.916 55.139 127.845 56.5675 130.095 57.6274C131.807 58.4366 133.641 58.9342 135.594 59.128C136.2 56.7726 136.505 54.3184 136.505 51.7655C136.505 47.6511 135.716 43.7799 134.145 40.1557C132.57 36.5314 130.434 33.363 127.735 30.6505C126.602 29.5146 125.386 28.4889 124.089 27.5543C122.621 29.0967 121.439 30.8785 120.558 32.9033C119.597 35.1068 119.117 37.4318 119.117 39.8821V39.8745Z" fill="#633C66"/>
</g>
<g opacity="0.7">
<path d="M133.591 64.5378H125.557C123.349 64.5378 121.549 65.2558 120.158 66.6843C118.766 68.1165 118.072 70.0578 118.072 72.512C118.072 73.7391 118.255 74.8636 118.625 75.8855C118.96 76.8201 119.433 77.6293 120.024 78.3245C122.915 76.8657 125.488 75.0231 127.734 72.7855C130.133 70.3959 132.081 67.6454 133.591 64.534V64.5378Z" fill="#633C66"/>
</g>
<g opacity="0.7">
<path d="M164.726 77.4127C164.566 77.5837 164.402 77.747 164.234 77.9142C166.034 78.9209 167.945 79.7415 169.966 80.3684V93.8131C169.966 94.9946 170.172 96.0849 170.58 97.0841C170.988 98.0832 171.571 98.9494 172.326 99.6826C173.081 100.416 173.973 100.986 174.995 101.392C176.017 101.799 177.1 102.004 178.248 102.004C179.396 102.004 180.456 101.799 181.44 101.392C182.42 100.986 183.281 100.416 184.017 99.6826C184.753 98.9494 185.325 98.0832 185.733 97.0841C186.141 96.0849 186.347 94.9946 186.347 93.8131V80.4899C189.375 79.5933 192.174 78.2599 194.751 76.4858C197.329 74.7154 199.556 72.6145 201.436 70.1908C203.316 67.767 204.78 65.0583 205.821 62.0647C206.866 59.071 207.384 55.9026 207.384 52.5595V29.9477C207.384 28.846 207.19 27.8088 206.801 26.8325C206.412 25.8561 205.852 24.9976 205.112 24.2644C204.376 23.5311 203.526 22.9499 202.565 22.5244C201.604 22.0951 200.547 21.8824 199.407 21.8824C198.267 21.8824 197.238 22.0951 196.216 22.5244C195.194 22.9499 194.313 23.5311 193.577 24.2644C192.841 24.9976 192.238 25.8524 191.766 26.8325C191.297 27.8088 191.06 28.8498 191.06 29.9477V52.2556C191.06 54.0487 190.732 55.7279 190.08 57.2969C189.424 58.8659 188.536 60.2411 187.411 61.4226C186.286 62.6041 184.948 63.5425 183.392 64.2339C181.836 64.9253 180.162 65.2748 178.362 65.2748C176.562 65.2748 174.824 64.9595 173.272 64.3289C172.299 63.9338 171.411 63.4437 170.599 62.8587C170.522 65.5408 170.011 68.1089 169.062 70.5023C168.032 73.1008 166.572 75.4258 164.722 77.4165L164.726 77.4127Z" fill="#633C66"/>
</g>
<g opacity="0.7">
<path d="M166.961 58.6227C166.736 57.3463 166.393 56.1002 165.92 54.8807C165.825 54.6376 165.725 54.3982 165.623 54.1627C164.749 52.134 163.579 50.3257 162.118 48.7377C160.482 46.9635 158.53 45.5503 156.261 44.4904C154.114 43.4874 151.769 42.967 149.233 42.9138V52.5595C149.233 55.0783 149.542 57.5058 150.152 59.8384C150.332 59.9752 150.488 60.1386 150.618 60.3361C150.843 60.678 150.957 61.1529 150.957 61.7569C150.957 61.9431 150.942 62.1102 150.915 62.2736C151.926 65.0697 153.306 67.6302 155.064 69.9438C156.833 72.2764 158.927 74.3127 161.34 76.0603C161.661 75.7639 161.973 75.46 162.271 75.1409C163.846 73.4503 165.073 71.4938 165.95 69.2714C166.827 67.0528 167.27 64.6784 167.27 62.152C167.27 60.9515 167.163 59.7776 166.961 58.6227Z" fill="#633C66"/>
</g>
<g opacity="0.7">
<path d="M154.171 22.5206C153.169 22.9461 152.311 23.5273 151.594 24.2606C150.877 24.9938 150.305 25.8486 149.878 26.8287C149.447 27.805 149.233 28.846 149.233 29.9439V38.1346H156.967C157.989 38.1346 158.968 37.9219 159.91 37.4926C160.852 37.0633 161.657 36.4706 162.332 35.7146C163.007 34.9586 163.548 34.0696 163.956 33.0477C164.364 32.0258 164.57 30.9202 164.57 29.735C164.57 28.4699 164.357 27.3416 163.926 26.3614C163.499 25.3813 162.915 24.5531 162.179 23.8769C161.443 23.2006 160.585 22.6916 159.601 22.3421C158.949 22.1103 158.271 21.9659 157.569 21.8862C157.489 21.8862 157.413 21.8824 157.333 21.8824C156.227 21.8824 155.174 22.0951 154.175 22.5244L154.171 22.5206Z" fill="#633C66"/>
</g>
<g opacity="0.7">
<path d="M227.179 39.5896C225.425 39.5668 223.934 41.0826 223.922 42.8948C223.915 44.7107 225.352 46.2569 227.099 46.3063C228.807 46.3557 230.546 44.6271 230.515 42.9062C230.485 41.1738 228.914 39.6086 227.175 39.5896H227.179Z" fill="#633C66"/>
<path d="M263.599 21.5025C261.967 21.4683 256.624 21.4607 254.992 21.5177C250.146 21.6848 247.084 24.8114 247.019 29.6514C246.988 32.0486 247.015 34.4457 247.015 37.9029C246.943 39.8252 247.206 42.815 246.893 45.7934C246.664 47.9627 245.395 49.0834 243.309 49.0226C241.444 48.9694 240.186 47.6132 240.132 45.5047C240.087 43.5596 240.113 41.6145 240.109 39.6694C240.098 34.6091 237.143 31.6497 232.071 31.6307C230.027 31.6231 227.983 31.6611 225.94 31.6079C224.308 31.5661 223.08 30.5859 222.782 29.1157C222.504 27.7367 223.186 26.7527 224.285 26.0347C225.066 25.5218 225.978 25.4535 226.904 25.4535C231.583 25.4611 236.258 25.4838 240.937 25.4383C244.498 25.4041 248.472 24.0554 250.211 19.2041C251.172 16.5182 251.484 12.6279 250.626 9.12145C249.784 5.67574 246.359 3.53688 242.828 3.95098C239.48 4.34228 236.75 7.18395 236.552 10.6069C236.418 12.9091 236.468 15.2189 236.357 17.5211C236.247 19.7929 232.994 21.0314 230.698 21.3239C228.571 21.5936 226.435 21.4227 224.304 21.4797C223.068 21.5101 221.867 21.6126 220.731 22.1787C217.837 23.6261 216.082 27.0832 216.742 30.0959C217.547 33.7809 220.38 36.2237 223.995 36.2807C226.626 36.3225 229.261 36.2693 231.896 36.2921C235.007 36.3187 236.449 37.7661 236.495 40.8965C236.521 42.6136 236.464 44.3346 236.517 46.0518C236.632 49.7976 239.701 52.7798 243.473 52.8596C247.24 52.9394 250.249 50.2041 250.527 46.3823C250.653 44.6689 250.645 42.948 250.725 41.2308C250.882 37.8725 252.491 36.3491 255.869 36.2997C257.635 36.2731 263.107 36.4212 264.861 36.0413C268.419 35.2739 271.248 31.8472 270.985 28.5649C270.653 24.4505 267.675 21.5898 263.599 21.5025Z" fill="#633C66"/>
</g>
<g opacity="0.7">
<path d="M160.379 40.566C159.269 41.075 158.099 41.3676 156.901 41.4473C156.913 41.4511 156.92 41.4549 156.932 41.4625C159.46 42.644 161.668 44.2472 163.498 46.2303C163.818 46.576 164.12 46.9369 164.417 47.3054V37.257C164.204 37.5495 163.979 37.8345 163.738 38.1042C162.804 39.1489 161.675 39.9809 160.383 40.5736L160.379 40.566Z" fill="#633C66"/>
</g>
</g>
</svg>
