<svg width="46" height="43" viewBox="0 0 46 43" fill="none" xmlns="http://www.w3.org/2000/svg">
<ellipse cx="23.16" cy="21.5" rx="22.36" ry="21.5" fill="#FBEDFC"/>
<path fill-rule="evenodd" clip-rule="evenodd" d="M15.2091 22.6381V22.4374C15.2385 21.8435 15.4289 21.268 15.7605 20.7704C16.3124 20.1726 16.6903 19.44 16.8544 18.6496C16.8544 18.0386 16.8544 17.419 16.9077 16.808C17.1834 13.8668 20.0917 11.8333 22.9643 11.8333H23.0354C25.9081 11.8333 28.8163 13.8668 29.1009 16.808C29.1542 17.419 29.1009 18.0386 29.1453 18.6496C29.3116 19.4419 29.6891 20.1767 30.2392 20.7791C30.5733 21.2724 30.764 21.8457 30.7906 22.4374V22.6294C30.8105 23.4273 30.5357 24.2053 30.0169 24.82C29.3314 25.5388 28.4011 25.9859 27.4022 26.0768C24.4731 26.391 21.5178 26.391 18.5886 26.0768C17.5909 25.982 16.6619 25.5355 15.9739 24.82C15.4631 24.2049 15.192 23.4315 15.2091 22.6381Z" stroke="#FF5C5C" stroke-width="1.5" stroke-linecap="round" stroke-linejoin="round"/>
<path d="M20.7587 29.114C21.2163 29.6885 21.8884 30.0602 22.6262 30.1471C23.3639 30.2339 24.1065 30.0286 24.6896 29.5766C24.869 29.4429 25.0303 29.2875 25.1699 29.114" stroke="#FF5C5C" stroke-width="1.5" stroke-linecap="round" stroke-linejoin="round"/>
</svg>
