<svg width="390" height="427" viewBox="0 0 390 427" fill="none" xmlns="http://www.w3.org/2000/svg">
<ellipse cx="194" cy="230.5" rx="197" ry="196.5" fill="#F0D8F4" fill-opacity="0.3"/>
<circle cx="193.5" cy="230.5" r="144.5" fill="#E9B5EE" fill-opacity="0.33"/>
<rect x="63" y="213" width="147" height="23" rx="11.5" fill="#D2AED9"/>
<rect x="63" y="262" width="147" height="23" rx="11.5" fill="#D2AED9"/>
<mask id="mask0_164_795" style="mask-type:luminance" maskUnits="userSpaceOnUse" x="275" y="11" width="111" height="373">
<path d="M385.99 11H275V384H385.99V11Z" fill="white"/>
</mask>
<g mask="url(#mask0_164_795)">
<path opacity="0.7" d="M316.154 204.354C316.673 187.386 307.216 160.532 299.318 154.302C299.314 154.302 299.31 154.298 299.306 154.293C293.469 171.947 288.68 191.286 284.561 211.415C281.734 225.213 280.741 238.177 281.285 250.247C292.293 250.061 315.123 237.944 316.154 204.354Z" fill="#6F4572"/>
<path d="M394.719 351.809H376.845C374.139 351.809 371.902 353.799 371.507 356.395C376.658 357.205 381.85 357.624 387.029 357.624C391.394 357.624 395.763 357.321 400.099 356.735C399.857 353.977 397.542 351.809 394.719 351.809Z" fill="#663D6B"/>
<path d="M408.645 63.735V63.0953C408.645 57.7205 404.285 53.3674 398.91 53.3674H373.486C368.107 53.3674 363.75 57.7246 363.75 63.0953V64.4037C371.17 62.0362 379.01 60.844 387.237 60.844C394.744 60.844 401.878 61.8077 408.645 63.735Z" fill="#663D6B"/>
<path d="M489.443 256.482C482.909 256.482 472.737 253.313 463.783 244.416C456.974 237.645 448.718 225.234 448.082 204.545C447.816 195.855 449.853 184.462 453.673 173.288C455.972 166.572 460.794 154.534 467.283 149.413C468.642 148.341 470.176 147.643 471.797 147.353C454.949 99.3029 429.584 65.4172 387.025 65.4172C344.466 65.4172 318.54 99.6477 301.438 148.059L302.951 149.23L303.009 149.267L303.209 149.429C309.69 154.563 314.499 166.576 316.794 173.284C320.614 184.457 322.655 195.851 322.385 204.54C321.753 225.085 313.605 237.454 306.884 244.216C298.204 252.943 288.261 256.254 281.713 256.466C286.71 311.082 323.994 346.106 365.38 355.236C366.34 349.628 371.125 345.578 376.841 345.578H394.715C400.631 345.578 405.507 349.898 406.251 355.705C448.369 347.315 486.313 311.672 491.41 256.337C490.769 256.432 490.113 256.482 489.439 256.482H489.443ZM392.861 240.449C393.148 240.154 393.489 239.921 393.892 239.751C394.291 239.581 394.711 239.494 395.156 239.494C395.189 239.494 395.218 239.494 395.252 239.494C395.534 239.523 395.804 239.585 396.062 239.676C396.453 239.813 396.798 240.021 397.093 240.291C397.388 240.561 397.621 240.893 397.791 241.288C397.962 241.683 398.049 242.131 398.049 242.638C398.049 243.111 397.966 243.556 397.804 243.967C397.642 244.378 397.426 244.731 397.155 245.035C396.885 245.338 396.565 245.575 396.187 245.749C395.813 245.919 395.418 246.007 395.01 246.007H391.922V242.725C391.922 242.285 392.009 241.869 392.18 241.475C392.35 241.084 392.579 240.74 392.866 240.445L392.861 240.449ZM397.983 245.653V249.678C397.866 249.533 397.746 249.388 397.617 249.246C396.885 248.453 396.004 247.809 394.994 247.336C394.994 247.336 394.986 247.336 394.981 247.332C395.459 247.298 395.925 247.182 396.37 246.979C396.885 246.742 397.338 246.409 397.708 245.99C397.804 245.882 397.895 245.77 397.979 245.649L397.983 245.653ZM384.36 240.046C385.25 239.664 386.202 239.469 387.216 239.469H391.951C391.951 239.469 391.918 239.498 391.905 239.514C391.51 239.921 391.186 240.403 390.953 240.939C390.708 241.5 390.583 242.098 390.583 242.725V246.007H387.341C387.233 246.007 387.125 246.027 387.025 246.065C386.339 244.553 385.42 243.207 384.286 242.065C383.857 241.633 383.396 241.234 382.914 240.864C383.359 240.544 383.841 240.27 384.365 240.046H384.36ZM387.698 247.917H390.579V251.784C390.579 252.694 390.671 253.587 390.854 254.451H387.84C388.06 253.487 388.172 252.49 388.172 251.464C388.172 250.239 388.01 249.051 387.694 247.913L387.698 247.917ZM383.334 243.008C384.41 244.092 385.267 245.363 385.894 246.817C386.522 248.27 386.838 249.82 386.838 251.469C386.838 252.49 386.717 253.475 386.476 254.418C385.695 254.339 384.963 254.139 384.281 253.815C383.384 253.392 382.61 252.819 381.966 252.1C381.322 251.381 380.815 250.555 380.449 249.624C380.083 248.694 379.896 247.722 379.896 246.704C379.896 245.687 380.087 244.794 380.474 243.909C380.827 243.099 381.297 242.385 381.883 241.766C382.398 242.139 382.889 242.551 383.338 243.008H383.334ZM370.31 240.424C371.757 239.805 373.286 239.494 374.903 239.494C376.52 239.494 378.079 239.809 379.534 240.436C379.95 240.615 380.349 240.814 380.731 241.035C380.116 241.72 379.613 242.505 379.235 243.377C378.778 244.424 378.549 245.546 378.549 246.704C378.549 246.974 378.562 247.248 378.586 247.514C378.129 247.087 377.601 246.75 377.011 246.497C376.358 246.218 375.656 246.081 374.903 246.081C374.151 246.081 373.469 246.218 372.808 246.497C372.147 246.775 371.565 247.157 371.071 247.647C370.834 247.88 370.622 248.133 370.431 248.403C370.243 247.626 369.986 246.871 369.662 246.144C369.026 244.731 368.186 243.465 367.155 242.368C368.09 241.579 369.142 240.927 370.31 240.424ZM368.439 246.692C369.084 248.129 369.425 249.662 369.458 251.294C369.458 252.225 369.159 252.972 368.564 253.533C367.97 254.098 367.196 254.376 366.249 254.376H362.927V251.265C362.944 249.649 363.272 248.125 363.921 246.688C364.499 245.4 365.255 244.266 366.186 243.282C367.113 244.27 367.866 245.408 368.444 246.688L368.439 246.692ZM364.154 256.951C364.44 257.263 364.665 257.62 364.827 258.027C364.989 258.434 365.072 258.858 365.072 259.298C365.072 259.855 364.918 260.378 364.607 260.877C364.295 261.375 363.821 261.807 363.185 262.173C363.102 262.223 363.015 262.268 362.927 262.314V256.121C363.002 256.15 363.077 256.179 363.152 256.212C363.534 256.391 363.871 256.636 364.158 256.947L364.154 256.951ZM349.958 263.12H335.429C335.005 263.103 334.602 263.008 334.215 262.837C333.833 262.667 333.5 262.439 333.222 262.152C332.943 261.865 332.723 261.533 332.561 261.147C332.399 260.765 332.316 260.349 332.316 259.909V233.932C332.316 233.475 332.403 233.051 332.573 232.661C332.744 232.27 332.977 231.93 333.272 231.643C333.567 231.357 333.912 231.132 334.315 230.97C334.714 230.808 335.134 230.725 335.579 230.725C336.024 230.725 336.46 230.808 336.851 230.97C337.242 231.132 337.587 231.357 337.882 231.643C338.177 231.93 338.41 232.266 338.58 232.661C338.751 233.051 338.838 233.479 338.838 233.932V256.627L345.111 256.64C345.813 258.235 346.782 259.643 347.991 260.835C348.848 261.678 349.816 262.401 350.881 262.995C350.59 263.074 350.286 263.111 349.962 263.111L349.958 263.12ZM352.947 261.209C352.784 261.599 352.556 261.936 352.265 262.218C351.009 261.616 349.895 260.839 348.927 259.884C347.971 258.945 347.193 257.865 346.586 256.644L349.958 256.652C350.415 256.652 350.839 256.74 351.234 256.91C351.625 257.08 351.97 257.313 352.265 257.608C352.56 257.903 352.789 258.243 352.951 258.638C353.113 259.028 353.196 259.456 353.196 259.909C353.196 260.362 353.113 260.814 352.951 261.205L352.947 261.209ZM362.079 247.83C361.701 247.352 361.244 246.937 360.707 246.592C359.793 246.007 358.737 245.712 357.548 245.712C356.359 245.712 355.279 246.019 354.414 246.63C353.549 247.24 352.897 248.013 352.452 248.943H361.813C361.668 249.699 361.593 250.476 361.585 251.269V254.38H352.647C353.171 255.228 353.849 255.896 354.68 256.387C355.511 256.877 356.426 257.122 357.424 257.122C358.06 257.122 358.571 257.068 358.953 256.964C359.336 256.856 359.685 256.715 359.993 256.536C360.321 256.324 360.641 256.175 360.961 256.083C361.173 256.025 361.377 255.988 361.58 255.967V262.85C361.331 262.924 361.069 262.995 360.791 263.062C359.835 263.282 358.712 263.394 357.424 263.394C356.135 263.394 354.792 263.182 353.574 262.762C353.819 262.451 354.023 262.106 354.181 261.728C354.41 261.176 354.53 260.565 354.53 259.917C354.53 259.269 354.414 258.684 354.181 258.127C353.952 257.575 353.624 257.084 353.208 256.669C352.797 256.258 352.311 255.93 351.77 255.693C351.209 255.448 350.602 255.323 349.962 255.323L346.021 255.315C345.593 254.102 345.377 252.823 345.377 251.473C345.377 249.807 345.697 248.25 346.333 246.796C346.969 245.342 347.833 244.075 348.931 242.987C350.024 241.903 351.305 241.047 352.764 240.428C354.227 239.809 355.782 239.498 357.432 239.498C359.082 239.498 360.604 239.805 362.05 240.416C363.227 240.914 364.282 241.566 365.218 242.368C364.183 243.46 363.335 244.731 362.699 246.148C362.453 246.696 362.246 247.257 362.083 247.834L362.079 247.83ZM378.437 261.579C378.578 261.973 378.765 262.339 378.994 262.663C377.701 263.145 376.338 263.386 374.903 263.386C373.922 263.386 372.975 263.269 372.06 263.041C371.146 262.812 370.273 262.484 369.437 262.061V268.183C369.437 268.657 369.358 269.101 369.204 269.516C369.05 269.932 368.834 270.297 368.556 270.605C368.277 270.916 367.945 271.157 367.55 271.327C367.159 271.498 366.727 271.585 366.253 271.585C365.779 271.585 365.367 271.498 364.968 271.327C364.569 271.157 364.216 270.916 363.917 270.605C363.613 270.293 363.372 269.932 363.193 269.516C363.015 269.101 362.923 268.657 362.923 268.183V263.784C363.256 263.647 363.567 263.494 363.85 263.332C364.677 262.854 365.313 262.268 365.742 261.583C366.186 260.873 366.411 260.1 366.411 259.298C366.411 258.692 366.294 258.094 366.07 257.529C365.845 256.972 365.534 256.474 365.139 256.042C365.035 255.926 364.923 255.818 364.806 255.714H366.249C367.546 255.714 368.635 255.307 369.483 254.505C369.691 254.31 369.874 254.094 370.036 253.861C370.306 254.393 370.651 254.866 371.071 255.282C371.57 255.772 372.147 256.154 372.808 256.432C373.469 256.711 374.168 256.848 374.903 256.848C375.639 256.848 376.358 256.711 377.011 256.432C377.664 256.154 378.237 255.772 378.728 255.282C379.218 254.792 379.605 254.223 379.892 253.566C380.091 253.109 380.22 252.628 380.278 252.121C380.49 252.424 380.719 252.711 380.964 252.985C381.725 253.836 382.648 254.517 383.704 255.016C383.874 255.095 384.044 255.17 384.219 255.236H382.465C381.23 255.236 380.149 255.676 379.347 256.503C378.545 257.334 378.138 258.43 378.138 259.768C378.138 260.411 378.237 261.018 378.437 261.57V261.579ZM379.696 261.13C379.551 260.719 379.476 260.27 379.476 259.78C379.476 258.796 379.755 258.019 380.307 257.446C380.864 256.873 381.579 256.586 382.465 256.586H385.674C385.071 257.832 384.29 258.933 383.334 259.892C382.436 260.789 381.409 261.525 380.253 262.11C380.016 261.832 379.829 261.508 379.692 261.134L379.696 261.13ZM394.861 262.459C393.98 262.866 393.015 263.086 391.972 263.12H382.465C382.112 263.12 381.787 263.066 381.484 262.962C382.515 262.372 383.45 261.662 384.281 260.835C385.474 259.643 386.431 258.235 387.125 256.64C387.133 256.623 387.141 256.603 387.15 256.586H391.24C391.323 256.586 391.411 256.578 391.502 256.569C391.934 257.645 392.496 258.65 393.186 259.56C393.888 260.49 394.715 261.321 395.651 262.044C395.401 262.198 395.143 262.339 394.869 262.463L394.861 262.459ZM396.756 261.201C395.792 260.499 394.956 259.685 394.25 258.75C393.547 257.824 392.999 256.798 392.591 255.676C392.599 255.61 392.608 255.543 392.608 255.469C392.608 255.228 392.562 255.037 392.475 254.9C392.425 254.821 392.358 254.754 392.288 254.7C392.042 253.766 391.922 252.794 391.922 251.784V247.921C392.932 247.942 393.871 248.15 394.728 248.553C395.634 248.976 396.416 249.545 397.068 250.256C397.654 250.891 398.12 251.618 398.469 252.428C398.511 252.524 398.548 252.619 398.59 252.715C398.777 253.205 398.918 253.703 399.005 254.214C399.088 254.675 399.13 255.149 399.13 255.626C399.13 256.64 398.955 257.591 398.602 258.48C398.249 259.369 397.762 260.154 397.131 260.831C397.01 260.96 396.885 261.08 396.756 261.201ZM415.147 251.784C415.147 253.122 414.939 254.393 414.523 255.593C414.107 256.794 413.521 257.878 412.773 258.85C412.021 259.822 411.131 260.661 410.104 261.371C409.073 262.081 407.955 262.617 406.745 262.974V268.312C406.745 268.785 406.662 269.221 406.5 269.62C406.338 270.019 406.109 270.368 405.814 270.659C405.519 270.954 405.178 271.182 404.783 271.344C404.393 271.506 403.965 271.589 403.507 271.589C403.05 271.589 402.618 271.506 402.21 271.344C401.803 271.182 401.445 270.954 401.146 270.659C400.843 270.364 400.61 270.019 400.448 269.62C400.286 269.221 400.202 268.785 400.202 268.312V262.924C399.396 262.675 398.635 262.347 397.912 261.94C397.979 261.874 398.045 261.807 398.107 261.741C398.847 260.943 399.429 260.013 399.841 258.97C400.219 258.011 400.423 256.981 400.456 255.909C400.78 256.142 401.138 256.341 401.524 256.499C402.144 256.752 402.821 256.877 403.557 256.877C404.293 256.877 404.946 256.74 405.565 256.461C406.184 256.183 406.721 255.809 407.17 255.336C407.618 254.862 407.976 254.31 408.234 253.683C408.496 253.055 408.624 252.382 408.624 251.664V242.729C408.624 242.289 408.72 241.874 408.907 241.479C409.094 241.089 409.335 240.744 409.63 240.449C409.926 240.154 410.275 239.921 410.682 239.751C411.089 239.581 411.513 239.494 411.958 239.494C412.403 239.494 412.835 239.581 413.222 239.751C413.604 239.921 413.945 240.154 414.24 240.449C414.536 240.744 414.76 241.084 414.914 241.479C415.068 241.869 415.147 242.289 415.147 242.729V251.788V251.784ZM423.02 249.28C422.322 249.259 421.748 248.64 421.752 247.913C421.752 247.186 422.351 246.58 423.053 246.588C423.747 246.596 424.375 247.224 424.387 247.917C424.4 248.607 423.706 249.3 423.024 249.28H423.02ZM438.101 245.168C437.399 245.321 435.216 245.259 434.51 245.271C433.159 245.292 432.518 245.903 432.456 247.249C432.423 247.938 432.427 248.628 432.377 249.313C432.265 250.846 431.064 251.938 429.559 251.909C428.054 251.876 426.828 250.684 426.782 249.18C426.761 248.49 426.782 247.801 426.774 247.116C426.753 245.861 426.179 245.284 424.936 245.271C423.885 245.263 422.833 245.284 421.781 245.267C420.334 245.242 419.204 244.266 418.884 242.787C418.622 241.579 419.32 240.196 420.476 239.618C420.929 239.39 421.411 239.348 421.902 239.336C422.754 239.315 423.606 239.381 424.454 239.273C425.373 239.157 426.67 238.659 426.715 237.749C426.761 236.827 426.74 235.901 426.794 234.979C426.873 233.608 427.967 232.47 429.301 232.312C430.714 232.146 432.078 233.001 432.415 234.385C432.755 235.789 432.631 237.346 432.248 238.422C431.554 240.366 429.966 240.906 428.544 240.918C426.678 240.935 424.807 240.927 422.941 240.922C422.571 240.922 422.209 240.952 421.893 241.155C421.453 241.442 421.182 241.836 421.295 242.389C421.415 242.979 421.902 243.369 422.554 243.386C423.369 243.406 424.188 243.39 425.003 243.394C427.027 243.402 428.208 244.586 428.212 246.613C428.212 247.394 428.204 248.171 428.22 248.952C428.241 249.799 428.744 250.339 429.488 250.36C430.324 250.385 430.831 249.936 430.922 249.064C431.047 247.872 430.943 246.671 430.972 245.903C430.972 244.52 430.96 243.556 430.972 242.596C430.997 240.657 432.219 239.406 434.156 239.34C434.809 239.319 436.941 239.319 437.594 239.336C439.224 239.369 440.412 240.52 440.545 242.164C440.649 243.481 439.519 244.852 438.101 245.159V245.168Z" fill="#663D6B"/>
</g>
<rect opacity="0.35" x="147.5" y="106.5" width="42.3529" height="21.3333" rx="2.16667" stroke="#AA83B2"/>
<path opacity="0.4" d="M192.323 113.226V121.108C193.909 120.44 194.941 118.887 194.941 117.167C194.941 115.446 193.909 113.893 192.323 113.226Z" fill="#AA83B2"/>
<rect x="150.941" y="109.941" width="35.4706" height="14.451" rx="1.33333" fill="#AA83B2"/>
<path d="M113.064 23H106.348V5.54545H112.995C114.791 5.54545 116.342 5.89489 117.649 6.59375C118.961 7.28693 119.973 8.28693 120.683 9.59375C121.399 10.8949 121.757 12.4545 121.757 14.2727C121.757 16.0909 121.402 17.6534 120.691 18.9602C119.981 20.2614 118.975 21.2614 117.674 21.9602C116.373 22.6534 114.836 23 113.064 23ZM111.086 18.9773H112.893C113.757 18.9773 114.493 18.8381 115.1 18.5597C115.714 18.2812 116.18 17.8011 116.498 17.1193C116.822 16.4375 116.984 15.4886 116.984 14.2727C116.984 13.0568 116.819 12.108 116.49 11.4261C116.166 10.7443 115.689 10.2642 115.058 9.98579C114.433 9.70739 113.666 9.56818 112.757 9.56818H111.086V18.9773ZM123.949 23V5.54545H136.529V9.36364H128.688V12.3636H135.881V16.1818H128.688V19.1818H136.495V23H123.949ZM148.288 11C148.243 10.4318 148.029 9.98864 147.649 9.67045C147.274 9.35227 146.703 9.19318 145.936 9.19318C145.447 9.19318 145.047 9.25284 144.734 9.37216C144.427 9.4858 144.2 9.64205 144.052 9.84091C143.904 10.0398 143.828 10.267 143.822 10.5227C143.811 10.733 143.848 10.9233 143.933 11.0938C144.024 11.2585 144.166 11.4091 144.359 11.5455C144.552 11.6761 144.799 11.7955 145.1 11.9034C145.402 12.0114 145.76 12.108 146.174 12.1932L147.606 12.5C148.572 12.7045 149.399 12.9744 150.086 13.3097C150.774 13.6449 151.336 14.0398 151.774 14.4943C152.211 14.9432 152.532 15.4489 152.737 16.0114C152.947 16.5739 153.055 17.1875 153.061 17.8523C153.055 19 152.768 19.9716 152.2 20.767C151.632 21.5625 150.819 22.1676 149.762 22.5824C148.711 22.9972 147.447 23.2045 145.97 23.2045C144.453 23.2045 143.129 22.9801 141.998 22.5312C140.873 22.0824 139.998 21.392 139.373 20.4602C138.754 19.5227 138.441 18.3239 138.436 16.8636H142.936C142.964 17.3977 143.098 17.8466 143.336 18.2102C143.575 18.5739 143.91 18.8494 144.342 19.0369C144.779 19.2244 145.299 19.3182 145.902 19.3182C146.407 19.3182 146.831 19.2557 147.172 19.1307C147.512 19.0057 147.771 18.8324 147.947 18.6108C148.123 18.3892 148.214 18.1364 148.22 17.8523C148.214 17.5852 148.126 17.3523 147.956 17.1534C147.791 16.9489 147.518 16.767 147.137 16.608C146.757 16.4432 146.243 16.2898 145.595 16.1477L143.856 15.7727C142.311 15.4375 141.092 14.8778 140.2 14.0938C139.314 13.304 138.873 12.2273 138.879 10.8636C138.873 9.75568 139.169 8.78693 139.765 7.95739C140.368 7.12216 141.2 6.47159 142.262 6.00568C143.331 5.53977 144.555 5.30682 145.936 5.30682C147.345 5.30682 148.564 5.54261 149.592 6.0142C150.62 6.4858 151.413 7.15057 151.97 8.00852C152.532 8.8608 152.816 9.85795 152.822 11H148.288ZM159.636 5.54545L163.216 17.8523H163.352L166.931 5.54545H172.284L166.522 23H160.045L154.284 5.54545H159.636ZM178.703 5.54545V23H173.965V5.54545H178.703ZM196.051 5.54545V23H192.097L185.79 13.8295H185.688V23H180.949V5.54545H184.972L191.176 14.6818H191.313V5.54545H196.051ZM214.588 12.0909H209.782C209.748 11.6932 209.657 11.3324 209.509 11.0085C209.367 10.6847 209.168 10.4062 208.912 10.1733C208.662 9.93466 208.358 9.75284 208 9.62784C207.642 9.49716 207.236 9.43182 206.782 9.43182C205.986 9.43182 205.313 9.625 204.762 10.0114C204.216 10.3977 203.801 10.9517 203.517 11.6733C203.239 12.3949 203.1 13.2614 203.1 14.2727C203.1 15.3409 203.242 16.2358 203.526 16.9574C203.816 17.6733 204.233 18.2131 204.779 18.5767C205.324 18.9347 205.98 19.1136 206.748 19.1136C207.185 19.1136 207.577 19.0597 207.924 18.9517C208.27 18.8381 208.571 18.6761 208.827 18.4659C209.083 18.2557 209.29 18.0028 209.449 17.7074C209.614 17.4062 209.725 17.0682 209.782 16.6932L214.588 16.7273C214.532 17.4659 214.324 18.2187 213.966 18.9858C213.608 19.7472 213.1 20.4517 212.441 21.0994C211.787 21.7415 210.978 22.2585 210.012 22.6506C209.046 23.0426 207.924 23.2386 206.645 23.2386C205.043 23.2386 203.605 22.8949 202.333 22.2074C201.066 21.5199 200.063 20.5085 199.324 19.1733C198.591 17.8381 198.225 16.2045 198.225 14.2727C198.225 12.3295 198.6 10.6932 199.35 9.36364C200.1 8.02841 201.111 7.01989 202.384 6.33807C203.657 5.65057 205.077 5.30682 206.645 5.30682C207.748 5.30682 208.762 5.45739 209.688 5.75852C210.614 6.05966 211.426 6.5 212.125 7.07954C212.824 7.65341 213.387 8.3608 213.813 9.2017C214.239 10.0426 214.498 11.0057 214.588 12.0909ZM227.068 5.54545H231.806V16.7273C231.806 18.0568 231.488 19.2074 230.852 20.179C230.221 21.1449 229.341 21.892 228.21 22.4205C227.079 22.9432 225.767 23.2045 224.272 23.2045C222.767 23.2045 221.449 22.9432 220.318 22.4205C219.187 21.892 218.306 21.1449 217.676 20.179C217.051 19.2074 216.738 18.0568 216.738 16.7273V5.54545H221.477V16.3182C221.477 16.858 221.596 17.3409 221.835 17.767C222.074 18.1875 222.403 18.517 222.824 18.7557C223.25 18.9943 223.733 19.1136 224.272 19.1136C224.818 19.1136 225.301 18.9943 225.721 18.7557C226.142 18.517 226.471 18.1875 226.71 17.767C226.949 17.3409 227.068 16.858 227.068 16.3182V5.54545ZM234.059 23V5.54545H238.797V19.1818H245.854V23H234.059ZM252.304 23H247.19L252.951 5.54545H259.429L265.19 23H260.076L256.258 10.3523H256.122L252.304 23ZM251.349 16.1136H260.963V19.6591H251.349V16.1136ZM266.871 23V5.54545H274.405C275.701 5.54545 276.834 5.78125 277.806 6.25284C278.777 6.72443 279.533 7.40341 280.073 8.28977C280.613 9.17614 280.882 10.2386 280.882 11.4773C280.882 12.7273 280.604 13.7812 280.047 14.6392C279.496 15.4972 278.721 16.1449 277.721 16.5824C276.726 17.0199 275.564 17.2386 274.235 17.2386H269.735V13.5568H273.28C273.837 13.5568 274.311 13.4886 274.703 13.3523C275.101 13.2102 275.405 12.9858 275.615 12.679C275.831 12.3722 275.939 11.9716 275.939 11.4773C275.939 10.9773 275.831 10.571 275.615 10.2585C275.405 9.94034 275.101 9.70739 274.703 9.55966C274.311 9.40625 273.837 9.32954 273.28 9.32954H271.61V23H266.871ZM277.098 14.9886L281.462 23H276.314L272.053 14.9886H277.098Z" fill="#AA83B2"/>
<path d="M209.767 110.364V122H207.659V112.415H207.591L204.869 114.153V112.222L207.761 110.364H209.767ZM217.023 122.222C216.087 122.222 215.284 121.985 214.614 121.511C213.947 121.034 213.434 120.347 213.074 119.449C212.718 118.547 212.54 117.462 212.54 116.193C212.544 114.924 212.723 113.845 213.08 112.955C213.439 112.061 213.953 111.379 214.619 110.909C215.29 110.439 216.091 110.205 217.023 110.205C217.955 110.205 218.756 110.439 219.426 110.909C220.097 111.379 220.61 112.061 220.966 112.955C221.326 113.848 221.506 114.928 221.506 116.193C221.506 117.466 221.326 118.553 220.966 119.455C220.61 120.352 220.097 121.038 219.426 121.511C218.759 121.985 217.958 122.222 217.023 122.222ZM217.023 120.443C217.75 120.443 218.324 120.085 218.744 119.369C219.169 118.65 219.381 117.591 219.381 116.193C219.381 115.269 219.284 114.492 219.091 113.864C218.898 113.235 218.625 112.761 218.273 112.443C217.92 112.121 217.504 111.96 217.023 111.96C216.299 111.96 215.727 112.32 215.307 113.04C214.886 113.756 214.674 114.807 214.67 116.193C214.667 117.121 214.759 117.902 214.949 118.534C215.142 119.167 215.415 119.644 215.767 119.966C216.119 120.284 216.538 120.443 217.023 120.443ZM227.695 122.222C226.759 122.222 225.956 121.985 225.286 121.511C224.619 121.034 224.106 120.347 223.746 119.449C223.39 118.547 223.212 117.462 223.212 116.193C223.215 114.924 223.395 113.845 223.751 112.955C224.111 112.061 224.625 111.379 225.291 110.909C225.962 110.439 226.763 110.205 227.695 110.205C228.626 110.205 229.428 110.439 230.098 110.909C230.768 111.379 231.282 112.061 231.638 112.955C231.998 113.848 232.178 114.928 232.178 116.193C232.178 117.466 231.998 118.553 231.638 119.455C231.282 120.352 230.768 121.038 230.098 121.511C229.431 121.985 228.63 122.222 227.695 122.222ZM227.695 120.443C228.422 120.443 228.996 120.085 229.416 119.369C229.84 118.65 230.053 117.591 230.053 116.193C230.053 115.269 229.956 114.492 229.763 113.864C229.57 113.235 229.297 112.761 228.945 112.443C228.592 112.121 228.176 111.96 227.695 111.96C226.971 111.96 226.399 112.32 225.979 113.04C225.558 113.756 225.346 114.807 225.342 116.193C225.339 117.121 225.431 117.902 225.621 118.534C225.814 119.167 226.087 119.644 226.439 119.966C226.791 120.284 227.21 120.443 227.695 120.443ZM240.287 119.818V119.205C240.287 118.754 240.382 118.339 240.571 117.96C240.764 117.581 241.045 117.277 241.412 117.045C241.779 116.814 242.224 116.699 242.747 116.699C243.285 116.699 243.736 116.814 244.099 117.045C244.463 117.273 244.738 117.576 244.923 117.955C245.113 118.333 245.207 118.75 245.207 119.205V119.818C245.207 120.269 245.113 120.684 244.923 121.062C244.734 121.441 244.455 121.746 244.088 121.977C243.724 122.208 243.277 122.324 242.747 122.324C242.217 122.324 241.768 122.208 241.401 121.977C241.033 121.746 240.755 121.441 240.565 121.062C240.38 120.684 240.287 120.269 240.287 119.818ZM241.77 119.205V119.818C241.77 120.117 241.842 120.392 241.986 120.642C242.13 120.892 242.384 121.017 242.747 121.017C243.115 121.017 243.366 120.894 243.503 120.648C243.643 120.398 243.713 120.121 243.713 119.818V119.205C243.713 118.902 243.647 118.625 243.514 118.375C243.382 118.121 243.126 117.994 242.747 117.994C242.391 117.994 242.139 118.121 241.991 118.375C241.844 118.625 241.77 118.902 241.77 119.205ZM234.372 113.159V112.545C234.372 112.091 234.469 111.674 234.662 111.295C234.855 110.917 235.135 110.614 235.503 110.386C235.87 110.155 236.315 110.04 236.838 110.04C237.372 110.04 237.821 110.155 238.185 110.386C238.552 110.614 238.829 110.917 239.014 111.295C239.2 111.674 239.293 112.091 239.293 112.545V113.159C239.293 113.614 239.198 114.03 239.009 114.409C238.823 114.784 238.546 115.085 238.179 115.312C237.812 115.54 237.365 115.653 236.838 115.653C236.304 115.653 235.853 115.54 235.486 115.312C235.122 115.085 234.846 114.782 234.656 114.403C234.467 114.025 234.372 113.61 234.372 113.159ZM235.866 112.545V113.159C235.866 113.462 235.937 113.739 236.077 113.989C236.221 114.235 236.474 114.358 236.838 114.358C237.202 114.358 237.452 114.235 237.588 113.989C237.728 113.739 237.798 113.462 237.798 113.159V112.545C237.798 112.242 237.732 111.966 237.599 111.716C237.467 111.462 237.213 111.335 236.838 111.335C236.478 111.335 236.226 111.462 236.082 111.716C235.938 111.97 235.866 112.246 235.866 112.545ZM235.02 122L243.02 110.364H244.44L236.44 122H235.02Z" fill="#B096B2"/>
<path d="M96.483 159.364H98.5909V166.966C98.5909 167.799 98.3939 168.532 98 169.165C97.6098 169.797 97.0606 170.292 96.3523 170.648C95.6439 171 94.8163 171.176 93.8693 171.176C92.9186 171.176 92.089 171 91.3807 170.648C90.6723 170.292 90.1231 169.797 89.733 169.165C89.3428 168.532 89.1477 167.799 89.1477 166.966V159.364H91.2557V166.79C91.2557 167.275 91.3617 167.706 91.5739 168.085C91.7898 168.464 92.0928 168.761 92.483 168.977C92.8731 169.189 93.3352 169.295 93.8693 169.295C94.4034 169.295 94.8655 169.189 95.2557 168.977C95.6496 168.761 95.9527 168.464 96.1648 168.085C96.3769 167.706 96.483 167.275 96.483 166.79V159.364ZM102.848 159.364V171H100.791V159.364H102.848ZM109.321 162.273V163.864H104.304V162.273H109.321ZM105.543 160.182H107.599V168.375C107.599 168.652 107.641 168.864 107.724 169.011C107.812 169.155 107.925 169.254 108.065 169.307C108.205 169.36 108.361 169.386 108.531 169.386C108.66 169.386 108.777 169.377 108.884 169.358C108.993 169.339 109.077 169.322 109.134 169.307L109.48 170.915C109.37 170.953 109.213 170.994 109.009 171.04C108.808 171.085 108.562 171.112 108.27 171.119C107.755 171.134 107.291 171.057 106.878 170.886C106.465 170.712 106.137 170.443 105.895 170.08C105.656 169.716 105.539 169.261 105.543 168.716V160.182ZM111.041 171V162.273H113.098V171H111.041ZM112.075 161.034C111.75 161.034 111.469 160.926 111.234 160.71C111 160.491 110.882 160.227 110.882 159.92C110.882 159.61 111 159.347 111.234 159.131C111.469 158.911 111.75 158.801 112.075 158.801C112.405 158.801 112.685 158.911 112.916 159.131C113.151 159.347 113.268 159.61 113.268 159.92C113.268 160.227 113.151 160.491 112.916 160.71C112.685 160.926 112.405 161.034 112.075 161.034ZM115.213 171V162.273H117.179V163.756H117.281C117.463 163.256 117.764 162.866 118.185 162.585C118.605 162.301 119.107 162.159 119.69 162.159C120.281 162.159 120.779 162.303 121.185 162.591C121.594 162.875 121.882 163.263 122.048 163.756H122.139C122.332 163.271 122.658 162.884 123.116 162.597C123.579 162.305 124.126 162.159 124.759 162.159C125.562 162.159 126.217 162.413 126.724 162.92C127.232 163.428 127.486 164.169 127.486 165.142V171H125.423V165.46C125.423 164.919 125.279 164.523 124.991 164.273C124.704 164.019 124.351 163.892 123.935 163.892C123.438 163.892 123.05 164.047 122.77 164.358C122.493 164.665 122.355 165.064 122.355 165.557V171H120.338V165.375C120.338 164.924 120.202 164.564 119.929 164.295C119.66 164.027 119.308 163.892 118.872 163.892C118.577 163.892 118.308 163.968 118.065 164.119C117.823 164.267 117.63 164.477 117.486 164.75C117.342 165.019 117.27 165.333 117.27 165.693V171H115.213ZM132.084 171.176C131.531 171.176 131.033 171.078 130.589 170.881C130.15 170.68 129.802 170.384 129.544 169.994C129.29 169.604 129.163 169.123 129.163 168.551C129.163 168.059 129.254 167.652 129.436 167.33C129.618 167.008 129.866 166.75 130.18 166.557C130.495 166.364 130.849 166.218 131.243 166.119C131.641 166.017 132.052 165.943 132.476 165.898C132.987 165.845 133.402 165.797 133.72 165.756C134.038 165.71 134.269 165.642 134.413 165.551C134.561 165.456 134.635 165.311 134.635 165.114V165.08C134.635 164.652 134.508 164.32 134.254 164.085C134 163.85 133.635 163.733 133.158 163.733C132.654 163.733 132.254 163.843 131.959 164.062C131.667 164.282 131.47 164.542 131.368 164.841L129.447 164.568C129.599 164.038 129.849 163.595 130.197 163.239C130.546 162.879 130.972 162.61 131.476 162.432C131.98 162.25 132.536 162.159 133.146 162.159C133.567 162.159 133.985 162.208 134.402 162.307C134.819 162.405 135.199 162.568 135.544 162.795C135.889 163.019 136.165 163.324 136.374 163.71C136.586 164.097 136.692 164.58 136.692 165.159V171H134.714V169.801H134.646C134.521 170.044 134.345 170.271 134.118 170.483C133.894 170.691 133.612 170.86 133.271 170.989C132.934 171.114 132.538 171.176 132.084 171.176ZM132.618 169.665C133.031 169.665 133.389 169.583 133.692 169.42C133.995 169.254 134.228 169.034 134.391 168.761C134.557 168.489 134.641 168.191 134.641 167.869V166.841C134.576 166.894 134.466 166.943 134.311 166.989C134.16 167.034 133.989 167.074 133.8 167.108C133.61 167.142 133.423 167.172 133.237 167.199C133.052 167.225 132.891 167.248 132.754 167.267C132.447 167.309 132.173 167.377 131.93 167.472C131.688 167.566 131.497 167.699 131.357 167.869C131.216 168.036 131.146 168.252 131.146 168.517C131.146 168.896 131.285 169.182 131.561 169.375C131.838 169.568 132.19 169.665 132.618 169.665ZM142.82 171V159.364H147.183C148.077 159.364 148.827 159.519 149.433 159.83C150.043 160.14 150.503 160.576 150.814 161.136C151.128 161.693 151.286 162.343 151.286 163.085C151.286 163.831 151.126 164.479 150.808 165.028C150.494 165.574 150.03 165.996 149.416 166.295C148.803 166.591 148.049 166.739 147.155 166.739H144.047V164.989H146.871C147.393 164.989 147.821 164.917 148.155 164.773C148.488 164.625 148.734 164.411 148.893 164.131C149.056 163.847 149.138 163.498 149.138 163.085C149.138 162.672 149.056 162.32 148.893 162.028C148.731 161.733 148.482 161.509 148.149 161.358C147.816 161.203 147.386 161.125 146.859 161.125H144.928V171H142.82ZM148.831 165.727L151.712 171H149.359L146.53 165.727H148.831ZM156.874 171.17C155.999 171.17 155.243 170.989 154.607 170.625C153.974 170.258 153.487 169.739 153.146 169.068C152.805 168.394 152.635 167.6 152.635 166.688C152.635 165.79 152.805 165.002 153.146 164.324C153.491 163.642 153.972 163.112 154.589 162.733C155.207 162.35 155.932 162.159 156.766 162.159C157.304 162.159 157.811 162.246 158.288 162.42C158.769 162.591 159.194 162.856 159.561 163.216C159.932 163.576 160.224 164.034 160.436 164.591C160.648 165.144 160.754 165.803 160.754 166.568V167.199H153.601V165.812H158.783C158.779 165.419 158.694 165.068 158.527 164.761C158.36 164.451 158.127 164.206 157.828 164.028C157.533 163.85 157.188 163.761 156.794 163.761C156.374 163.761 156.004 163.864 155.686 164.068C155.368 164.269 155.12 164.534 154.942 164.864C154.768 165.189 154.679 165.547 154.675 165.938V167.148C154.675 167.655 154.768 168.091 154.953 168.455C155.139 168.814 155.398 169.091 155.732 169.284C156.065 169.473 156.455 169.568 156.902 169.568C157.201 169.568 157.472 169.527 157.714 169.443C157.957 169.356 158.167 169.229 158.345 169.062C158.523 168.896 158.658 168.689 158.749 168.443L160.669 168.659C160.548 169.167 160.317 169.61 159.976 169.989C159.639 170.364 159.207 170.655 158.68 170.864C158.154 171.068 157.552 171.17 156.874 171.17ZM170.04 162.273L166.932 171H164.659L161.551 162.273H163.744L165.75 168.756H165.841L167.852 162.273H170.04ZM171.463 171V162.273H173.52V171H171.463ZM172.497 161.034C172.171 161.034 171.891 160.926 171.656 160.71C171.421 160.491 171.304 160.227 171.304 159.92C171.304 159.61 171.421 159.347 171.656 159.131C171.891 158.911 172.171 158.801 172.497 158.801C172.827 158.801 173.107 158.911 173.338 159.131C173.573 159.347 173.69 159.61 173.69 159.92C173.69 160.227 173.573 160.491 173.338 160.71C173.107 160.926 172.827 161.034 172.497 161.034ZM182.533 164.58L180.658 164.784C180.605 164.595 180.512 164.417 180.379 164.25C180.25 164.083 180.076 163.949 179.857 163.847C179.637 163.744 179.368 163.693 179.05 163.693C178.622 163.693 178.262 163.786 177.97 163.972C177.682 164.157 177.54 164.398 177.544 164.693C177.54 164.947 177.633 165.153 177.822 165.312C178.016 165.472 178.334 165.602 178.777 165.705L180.266 166.023C181.091 166.201 181.705 166.483 182.107 166.869C182.512 167.256 182.716 167.761 182.72 168.386C182.716 168.936 182.555 169.42 182.237 169.841C181.923 170.258 181.485 170.583 180.925 170.818C180.364 171.053 179.72 171.17 178.993 171.17C177.925 171.17 177.065 170.947 176.413 170.5C175.762 170.049 175.374 169.422 175.249 168.619L177.254 168.426C177.345 168.82 177.538 169.117 177.834 169.318C178.129 169.519 178.514 169.619 178.987 169.619C179.476 169.619 179.868 169.519 180.163 169.318C180.463 169.117 180.612 168.869 180.612 168.574C180.612 168.324 180.516 168.117 180.322 167.955C180.133 167.792 179.838 167.667 179.436 167.58L177.947 167.267C177.11 167.093 176.491 166.799 176.089 166.386C175.688 165.97 175.489 165.443 175.493 164.807C175.489 164.269 175.635 163.803 175.93 163.409C176.23 163.011 176.644 162.705 177.175 162.489C177.709 162.269 178.324 162.159 179.021 162.159C180.044 162.159 180.849 162.377 181.436 162.812C182.027 163.248 182.393 163.837 182.533 164.58ZM184.416 171V162.273H186.473V171H184.416ZM185.45 161.034C185.125 161.034 184.844 160.926 184.609 160.71C184.375 160.491 184.257 160.227 184.257 159.92C184.257 159.61 184.375 159.347 184.609 159.131C184.844 158.911 185.125 158.801 185.45 158.801C185.78 158.801 186.06 158.911 186.291 159.131C186.526 159.347 186.643 159.61 186.643 159.92C186.643 160.227 186.526 160.491 186.291 160.71C186.06 160.926 185.78 161.034 185.45 161.034ZM192.395 171.17C191.543 171.17 190.804 170.983 190.179 170.608C189.554 170.233 189.069 169.708 188.724 169.034C188.384 168.36 188.213 167.572 188.213 166.67C188.213 165.769 188.384 164.979 188.724 164.301C189.069 163.623 189.554 163.097 190.179 162.722C190.804 162.347 191.543 162.159 192.395 162.159C193.247 162.159 193.986 162.347 194.611 162.722C195.236 163.097 195.719 163.623 196.06 164.301C196.404 164.979 196.577 165.769 196.577 166.67C196.577 167.572 196.404 168.36 196.06 169.034C195.719 169.708 195.236 170.233 194.611 170.608C193.986 170.983 193.247 171.17 192.395 171.17ZM192.406 169.523C192.868 169.523 193.255 169.396 193.565 169.142C193.876 168.884 194.107 168.54 194.259 168.108C194.414 167.676 194.491 167.195 194.491 166.665C194.491 166.131 194.414 165.648 194.259 165.216C194.107 164.78 193.876 164.434 193.565 164.176C193.255 163.919 192.868 163.79 192.406 163.79C191.933 163.79 191.539 163.919 191.224 164.176C190.914 164.434 190.681 164.78 190.526 165.216C190.374 165.648 190.298 166.131 190.298 166.665C190.298 167.195 190.374 167.676 190.526 168.108C190.681 168.54 190.914 168.884 191.224 169.142C191.539 169.396 191.933 169.523 192.406 169.523ZM191.605 161.125L192.878 158.528H194.889L193.145 161.125H191.605ZM200.379 165.886V171H198.322V162.273H200.288V163.756H200.391C200.591 163.267 200.911 162.879 201.351 162.591C201.794 162.303 202.341 162.159 202.993 162.159C203.595 162.159 204.12 162.288 204.567 162.545C205.018 162.803 205.366 163.176 205.612 163.665C205.862 164.153 205.985 164.746 205.982 165.443V171H203.925V165.761C203.925 165.178 203.773 164.722 203.47 164.392C203.171 164.062 202.756 163.898 202.226 163.898C201.866 163.898 201.546 163.977 201.266 164.136C200.989 164.292 200.771 164.517 200.612 164.812C200.457 165.108 200.379 165.466 200.379 165.886ZM209.339 171.125C208.995 171.125 208.699 171.004 208.453 170.761C208.207 170.519 208.086 170.223 208.089 169.875C208.086 169.534 208.207 169.242 208.453 169C208.699 168.758 208.995 168.636 209.339 168.636C209.673 168.636 209.963 168.758 210.209 169C210.459 169.242 210.586 169.534 210.589 169.875C210.586 170.106 210.525 170.316 210.408 170.506C210.294 170.695 210.143 170.847 209.953 170.96C209.768 171.07 209.563 171.125 209.339 171.125ZM209.339 164.898C208.995 164.898 208.699 164.777 208.453 164.534C208.207 164.288 208.086 163.992 208.089 163.648C208.086 163.307 208.207 163.015 208.453 162.773C208.699 162.527 208.995 162.403 209.339 162.403C209.673 162.403 209.963 162.527 210.209 162.773C210.459 163.015 210.586 163.307 210.589 163.648C210.586 163.875 210.525 164.083 210.408 164.273C210.294 164.462 210.143 164.614 209.953 164.727C209.768 164.841 209.563 164.898 209.339 164.898ZM89.1477 190V178.364H91.2557V183.29H96.6477V178.364H98.7614V190H96.6477V185.057H91.2557V190H89.1477ZM103.474 190.176C102.921 190.176 102.423 190.078 101.98 189.881C101.541 189.68 101.192 189.384 100.935 188.994C100.681 188.604 100.554 188.123 100.554 187.551C100.554 187.059 100.645 186.652 100.827 186.33C101.009 186.008 101.257 185.75 101.571 185.557C101.885 185.364 102.24 185.218 102.634 185.119C103.031 185.017 103.442 184.943 103.866 184.898C104.378 184.845 104.793 184.797 105.111 184.756C105.429 184.71 105.66 184.642 105.804 184.551C105.952 184.456 106.026 184.311 106.026 184.114V184.08C106.026 183.652 105.899 183.32 105.645 183.085C105.391 182.85 105.026 182.733 104.548 182.733C104.045 182.733 103.645 182.843 103.349 183.062C103.058 183.282 102.861 183.542 102.759 183.841L100.838 183.568C100.99 183.038 101.24 182.595 101.588 182.239C101.937 181.879 102.363 181.61 102.866 181.432C103.37 181.25 103.927 181.159 104.537 181.159C104.957 181.159 105.376 181.208 105.793 181.307C106.209 181.405 106.59 181.568 106.935 181.795C107.279 182.019 107.556 182.324 107.764 182.71C107.976 183.097 108.082 183.58 108.082 184.159V190H106.105V188.801H106.037C105.912 189.044 105.736 189.271 105.509 189.483C105.285 189.691 105.003 189.86 104.662 189.989C104.325 190.114 103.929 190.176 103.474 190.176ZM104.009 188.665C104.421 188.665 104.779 188.583 105.082 188.42C105.385 188.254 105.618 188.034 105.781 187.761C105.948 187.489 106.031 187.191 106.031 186.869V185.841C105.967 185.894 105.857 185.943 105.702 185.989C105.55 186.034 105.38 186.074 105.19 186.108C105.001 186.142 104.813 186.172 104.628 186.199C104.442 186.225 104.281 186.248 104.145 186.267C103.838 186.309 103.563 186.377 103.321 186.472C103.079 186.566 102.887 186.699 102.747 186.869C102.607 187.036 102.537 187.252 102.537 187.517C102.537 187.896 102.675 188.182 102.952 188.375C103.228 188.568 103.58 188.665 104.009 188.665ZM113.957 190.17C113.086 190.17 112.338 189.979 111.713 189.597C111.092 189.214 110.613 188.686 110.276 188.011C109.942 187.333 109.776 186.553 109.776 185.67C109.776 184.784 109.946 184.002 110.287 183.324C110.628 182.642 111.109 182.112 111.73 181.733C112.355 181.35 113.094 181.159 113.946 181.159C114.654 181.159 115.281 181.29 115.827 181.551C116.376 181.809 116.813 182.174 117.139 182.648C117.465 183.117 117.651 183.667 117.696 184.295H115.73C115.651 183.875 115.461 183.525 115.162 183.244C114.866 182.96 114.471 182.818 113.974 182.818C113.554 182.818 113.185 182.932 112.866 183.159C112.548 183.383 112.3 183.705 112.122 184.125C111.948 184.545 111.861 185.049 111.861 185.636C111.861 186.231 111.948 186.742 112.122 187.17C112.296 187.595 112.541 187.922 112.855 188.153C113.173 188.381 113.546 188.494 113.974 188.494C114.277 188.494 114.548 188.437 114.787 188.324C115.029 188.206 115.232 188.038 115.395 187.818C115.558 187.598 115.67 187.331 115.73 187.017H117.696C117.647 187.634 117.465 188.182 117.151 188.659C116.836 189.133 116.408 189.504 115.866 189.773C115.325 190.038 114.688 190.17 113.957 190.17ZM123.249 190.17C122.374 190.17 121.618 189.989 120.982 189.625C120.349 189.258 119.862 188.739 119.521 188.068C119.18 187.394 119.01 186.6 119.01 185.688C119.01 184.79 119.18 184.002 119.521 183.324C119.866 182.642 120.347 182.112 120.964 181.733C121.582 181.35 122.307 181.159 123.141 181.159C123.679 181.159 124.186 181.246 124.663 181.42C125.144 181.591 125.569 181.856 125.936 182.216C126.307 182.576 126.599 183.034 126.811 183.591C127.023 184.144 127.129 184.803 127.129 185.568V186.199H119.976V184.812H125.158C125.154 184.419 125.069 184.068 124.902 183.761C124.735 183.451 124.502 183.206 124.203 183.028C123.908 182.85 123.563 182.761 123.169 182.761C122.749 182.761 122.379 182.864 122.061 183.068C121.743 183.269 121.495 183.534 121.317 183.864C121.143 184.189 121.054 184.547 121.05 184.938V186.148C121.05 186.655 121.143 187.091 121.328 187.455C121.514 187.814 121.773 188.091 122.107 188.284C122.44 188.473 122.83 188.568 123.277 188.568C123.576 188.568 123.847 188.527 124.089 188.443C124.332 188.356 124.542 188.229 124.72 188.062C124.898 187.896 125.033 187.689 125.124 187.443L127.044 187.659C126.923 188.167 126.692 188.61 126.351 188.989C126.014 189.364 125.582 189.655 125.055 189.864C124.529 190.068 123.927 190.17 123.249 190.17ZM132.815 190V188.477L136.855 184.517C137.241 184.127 137.563 183.78 137.821 183.477C138.079 183.174 138.272 182.881 138.401 182.597C138.529 182.312 138.594 182.009 138.594 181.688C138.594 181.32 138.51 181.006 138.344 180.744C138.177 180.479 137.948 180.275 137.656 180.131C137.365 179.987 137.033 179.915 136.662 179.915C136.279 179.915 135.944 179.994 135.656 180.153C135.368 180.309 135.145 180.53 134.986 180.818C134.83 181.106 134.753 181.449 134.753 181.847H132.747C132.747 181.108 132.916 180.466 133.253 179.92C133.59 179.375 134.054 178.953 134.645 178.653C135.24 178.354 135.921 178.205 136.69 178.205C137.471 178.205 138.156 178.35 138.747 178.642C139.338 178.934 139.796 179.333 140.122 179.841C140.452 180.348 140.616 180.928 140.616 181.58C140.616 182.015 140.533 182.443 140.366 182.864C140.2 183.284 139.906 183.75 139.486 184.261C139.069 184.773 138.484 185.392 137.73 186.119L135.724 188.159V188.239H140.793V190H132.815ZM146.744 190V181.273H148.71V182.756H148.812C148.994 182.256 149.295 181.866 149.716 181.585C150.136 181.301 150.638 181.159 151.222 181.159C151.812 181.159 152.311 181.303 152.716 181.591C153.125 181.875 153.413 182.263 153.58 182.756H153.67C153.864 182.271 154.189 181.884 154.648 181.597C155.11 181.305 155.657 181.159 156.29 181.159C157.093 181.159 157.748 181.413 158.256 181.92C158.763 182.428 159.017 183.169 159.017 184.142V190H156.955V184.46C156.955 183.919 156.811 183.523 156.523 183.273C156.235 183.019 155.883 182.892 155.466 182.892C154.97 182.892 154.581 183.047 154.301 183.358C154.025 183.665 153.886 184.064 153.886 184.557V190H151.869V184.375C151.869 183.924 151.733 183.564 151.46 183.295C151.191 183.027 150.839 182.892 150.403 182.892C150.108 182.892 149.839 182.968 149.597 183.119C149.354 183.267 149.161 183.477 149.017 183.75C148.873 184.019 148.801 184.333 148.801 184.693V190H146.744ZM161.104 190V181.273H163.161V190H161.104ZM162.138 180.034C161.812 180.034 161.532 179.926 161.297 179.71C161.062 179.491 160.945 179.227 160.945 178.92C160.945 178.61 161.062 178.347 161.297 178.131C161.532 177.911 161.812 177.801 162.138 177.801C162.467 177.801 162.748 177.911 162.979 178.131C163.214 178.347 163.331 178.61 163.331 178.92C163.331 179.227 163.214 179.491 162.979 179.71C162.748 179.926 162.467 180.034 162.138 180.034ZM167.332 184.886V190H165.276V181.273H167.241V182.756H167.344C167.545 182.267 167.865 181.879 168.304 181.591C168.747 181.303 169.295 181.159 169.946 181.159C170.548 181.159 171.073 181.288 171.52 181.545C171.971 181.803 172.319 182.176 172.565 182.665C172.815 183.153 172.938 183.746 172.935 184.443V190H170.878V184.761C170.878 184.178 170.726 183.722 170.423 183.392C170.124 183.062 169.709 182.898 169.179 182.898C168.819 182.898 168.499 182.977 168.219 183.136C167.942 183.292 167.724 183.517 167.565 183.812C167.41 184.108 167.332 184.466 167.332 184.886ZM180.261 190.125C179.917 190.125 179.621 190.004 179.375 189.761C179.129 189.519 179.008 189.223 179.011 188.875C179.008 188.534 179.129 188.242 179.375 188C179.621 187.758 179.917 187.636 180.261 187.636C180.595 187.636 180.884 187.758 181.131 188C181.381 188.242 181.508 188.534 181.511 188.875C181.508 189.106 181.447 189.316 181.33 189.506C181.216 189.695 181.064 189.847 180.875 189.96C180.689 190.07 180.485 190.125 180.261 190.125ZM184.902 190.125C184.557 190.125 184.262 190.004 184.016 189.761C183.769 189.519 183.648 189.223 183.652 188.875C183.648 188.534 183.769 188.242 184.016 188C184.262 187.758 184.557 187.636 184.902 187.636C185.235 187.636 185.525 187.758 185.771 188C186.021 188.242 186.148 188.534 186.152 188.875C186.148 189.106 186.088 189.316 185.97 189.506C185.857 189.695 185.705 189.847 185.516 189.96C185.33 190.07 185.125 190.125 184.902 190.125ZM189.543 190.125C189.198 190.125 188.902 190.004 188.656 189.761C188.41 189.519 188.289 189.223 188.293 188.875C188.289 188.534 188.41 188.242 188.656 188C188.902 187.758 189.198 187.636 189.543 187.636C189.876 187.636 190.166 187.758 190.412 188C190.662 188.242 190.789 188.534 190.793 188.875C190.789 189.106 190.728 189.316 190.611 189.506C190.497 189.695 190.346 189.847 190.156 189.96C189.971 190.07 189.766 190.125 189.543 190.125Z" fill="#B096B2"/>
<path d="M119.335 230.222C118.4 230.222 117.597 229.985 116.926 229.511C116.259 229.034 115.746 228.347 115.386 227.449C115.03 226.547 114.852 225.462 114.852 224.193C114.856 222.924 115.036 221.845 115.392 220.955C115.752 220.061 116.265 219.379 116.932 218.909C117.602 218.439 118.403 218.205 119.335 218.205C120.267 218.205 121.068 218.439 121.739 218.909C122.409 219.379 122.922 220.061 123.278 220.955C123.638 221.848 123.818 222.928 123.818 224.193C123.818 225.466 123.638 226.553 123.278 227.455C122.922 228.352 122.409 229.038 121.739 229.511C121.072 229.985 120.271 230.222 119.335 230.222ZM119.335 228.443C120.063 228.443 120.636 228.085 121.057 227.369C121.481 226.65 121.693 225.591 121.693 224.193C121.693 223.269 121.597 222.492 121.403 221.864C121.21 221.235 120.938 220.761 120.585 220.443C120.233 220.121 119.816 219.96 119.335 219.96C118.612 219.96 118.04 220.32 117.619 221.04C117.199 221.756 116.987 222.807 116.983 224.193C116.979 225.121 117.072 225.902 117.261 226.534C117.455 227.167 117.727 227.644 118.08 227.966C118.432 228.284 118.85 228.443 119.335 228.443Z" fill="#B096B2"/>
<path d="M126.543 230.125C126.198 230.125 125.902 230.004 125.656 229.761C125.41 229.519 125.289 229.223 125.293 228.875C125.289 228.534 125.41 228.242 125.656 228C125.902 227.758 126.198 227.636 126.543 227.636C126.876 227.636 127.166 227.758 127.412 228C127.662 228.242 127.789 228.534 127.793 228.875C127.789 229.106 127.728 229.316 127.611 229.506C127.497 229.695 127.346 229.847 127.156 229.96C126.971 230.07 126.766 230.125 126.543 230.125ZM133.702 230.159C133.145 230.155 132.601 230.059 132.071 229.869C131.541 229.676 131.063 229.364 130.639 228.932C130.215 228.496 129.878 227.919 129.628 227.199C129.378 226.475 129.255 225.58 129.259 224.511C129.259 223.515 129.365 222.627 129.577 221.847C129.789 221.066 130.094 220.407 130.491 219.869C130.889 219.328 131.368 218.915 131.929 218.631C132.493 218.347 133.124 218.205 133.821 218.205C134.552 218.205 135.2 218.348 135.764 218.636C136.332 218.924 136.791 219.318 137.139 219.818C137.488 220.314 137.704 220.875 137.787 221.5H135.713C135.607 221.053 135.389 220.697 135.06 220.432C134.734 220.163 134.321 220.028 133.821 220.028C133.014 220.028 132.393 220.379 131.957 221.08C131.526 221.78 131.308 222.742 131.304 223.966H131.384C131.569 223.633 131.81 223.347 132.105 223.108C132.401 222.869 132.734 222.686 133.105 222.557C133.48 222.424 133.876 222.358 134.293 222.358C134.974 222.358 135.586 222.521 136.128 222.847C136.673 223.172 137.105 223.621 137.423 224.193C137.741 224.761 137.899 225.413 137.895 226.148C137.899 226.913 137.724 227.6 137.372 228.21C137.02 228.816 136.529 229.294 135.901 229.642C135.272 229.991 134.539 230.163 133.702 230.159ZM133.69 228.455C134.103 228.455 134.473 228.354 134.798 228.153C135.124 227.953 135.382 227.682 135.571 227.341C135.76 227 135.853 226.617 135.849 226.193C135.853 225.777 135.762 225.4 135.577 225.062C135.395 224.725 135.143 224.458 134.821 224.261C134.499 224.064 134.132 223.966 133.719 223.966C133.412 223.966 133.126 224.025 132.861 224.142C132.596 224.259 132.365 224.422 132.168 224.631C131.971 224.835 131.815 225.074 131.702 225.347C131.592 225.616 131.535 225.903 131.531 226.21C131.535 226.616 131.63 226.989 131.815 227.33C132.001 227.67 132.257 227.943 132.582 228.148C132.908 228.352 133.277 228.455 133.69 228.455ZM139.605 227.841V226.165L144.543 218.364H145.94V220.75H145.088L141.764 226.017V226.108H148.656V227.841H139.605ZM145.156 230V227.33L145.179 226.58V218.364H147.168V230H145.156ZM154.554 230V218.364H159.009C159.849 218.364 160.548 218.496 161.105 218.761C161.666 219.023 162.084 219.381 162.361 219.835C162.641 220.29 162.781 220.805 162.781 221.381C162.781 221.854 162.69 222.259 162.509 222.597C162.327 222.93 162.082 223.201 161.776 223.409C161.469 223.617 161.126 223.767 160.747 223.858V223.972C161.16 223.994 161.556 224.121 161.935 224.352C162.317 224.58 162.63 224.902 162.872 225.318C163.115 225.735 163.236 226.239 163.236 226.83C163.236 227.432 163.09 227.973 162.798 228.455C162.507 228.932 162.067 229.309 161.48 229.585C160.893 229.862 160.154 230 159.264 230H154.554ZM156.662 228.239H158.929C159.694 228.239 160.245 228.093 160.582 227.801C160.923 227.506 161.094 227.127 161.094 226.665C161.094 226.32 161.009 226.009 160.838 225.733C160.668 225.453 160.425 225.233 160.111 225.074C159.796 224.911 159.421 224.83 158.986 224.83H156.662V228.239ZM156.662 223.312H158.747C159.111 223.312 159.438 223.246 159.73 223.114C160.022 222.977 160.251 222.786 160.418 222.54C160.588 222.29 160.673 221.994 160.673 221.653C160.673 221.203 160.514 220.831 160.196 220.54C159.882 220.248 159.414 220.102 158.793 220.102H156.662V223.312ZM165.07 230V218.364H169.433C170.327 218.364 171.077 218.53 171.683 218.864C172.293 219.197 172.753 219.655 173.064 220.239C173.378 220.818 173.536 221.477 173.536 222.216C173.536 222.962 173.378 223.625 173.064 224.205C172.75 224.784 172.286 225.241 171.672 225.574C171.058 225.903 170.303 226.068 169.405 226.068H166.513V224.335H169.121C169.643 224.335 170.071 224.244 170.405 224.062C170.738 223.881 170.984 223.631 171.143 223.312C171.306 222.994 171.388 222.629 171.388 222.216C171.388 221.803 171.306 221.439 171.143 221.125C170.984 220.811 170.736 220.566 170.399 220.392C170.066 220.214 169.636 220.125 169.109 220.125H167.178V230H165.07ZM175.366 218.364H177.946L181.401 226.795H181.537L184.991 218.364H187.571V230H185.548V222.006H185.44L182.224 229.966H180.713L177.497 221.989H177.389V230H175.366V218.364Z" fill="#691970"/>
<path d="M119.21 280.159C118.392 280.159 117.665 280.019 117.028 279.739C116.396 279.458 115.896 279.068 115.528 278.568C115.161 278.068 114.966 277.491 114.943 276.835H117.08C117.098 277.15 117.203 277.424 117.392 277.659C117.581 277.89 117.833 278.07 118.148 278.199C118.462 278.328 118.814 278.392 119.205 278.392C119.621 278.392 119.991 278.32 120.312 278.176C120.634 278.028 120.886 277.824 121.068 277.562C121.25 277.301 121.339 277 121.335 276.659C121.339 276.307 121.248 275.996 121.062 275.727C120.877 275.458 120.608 275.248 120.256 275.097C119.907 274.945 119.487 274.869 118.994 274.869H117.966V273.244H118.994C119.4 273.244 119.754 273.174 120.057 273.034C120.364 272.894 120.604 272.697 120.778 272.443C120.953 272.186 121.038 271.888 121.034 271.551C121.038 271.222 120.964 270.936 120.812 270.693C120.665 270.447 120.455 270.256 120.182 270.119C119.913 269.983 119.597 269.915 119.233 269.915C118.877 269.915 118.547 269.979 118.244 270.108C117.941 270.237 117.697 270.42 117.511 270.659C117.326 270.894 117.227 271.174 117.216 271.5H115.188C115.203 270.848 115.39 270.277 115.75 269.784C116.114 269.288 116.598 268.902 117.205 268.625C117.811 268.345 118.491 268.205 119.244 268.205C120.021 268.205 120.695 268.35 121.267 268.642C121.843 268.93 122.288 269.318 122.602 269.807C122.917 270.295 123.074 270.835 123.074 271.426C123.078 272.081 122.884 272.631 122.494 273.074C122.108 273.517 121.6 273.807 120.972 273.943V274.034C121.79 274.148 122.417 274.451 122.852 274.943C123.292 275.432 123.509 276.04 123.506 276.767C123.506 277.419 123.32 278.002 122.949 278.517C122.581 279.028 122.074 279.43 121.426 279.722C120.782 280.013 120.044 280.159 119.21 280.159ZM129.717 280.159C129.161 280.155 128.617 280.059 128.087 279.869C127.556 279.676 127.079 279.364 126.655 278.932C126.231 278.496 125.893 277.919 125.643 277.199C125.393 276.475 125.27 275.58 125.274 274.511C125.274 273.515 125.38 272.627 125.592 271.847C125.804 271.066 126.109 270.407 126.507 269.869C126.905 269.328 127.384 268.915 127.945 268.631C128.509 268.347 129.14 268.205 129.837 268.205C130.568 268.205 131.215 268.348 131.78 268.636C132.348 268.924 132.806 269.318 133.155 269.818C133.503 270.314 133.719 270.875 133.803 271.5H131.729C131.623 271.053 131.405 270.697 131.075 270.432C130.75 270.163 130.337 270.028 129.837 270.028C129.03 270.028 128.409 270.379 127.973 271.08C127.541 271.78 127.323 272.742 127.32 273.966H127.399C127.585 273.633 127.825 273.347 128.121 273.108C128.416 272.869 128.75 272.686 129.121 272.557C129.496 272.424 129.892 272.358 130.308 272.358C130.99 272.358 131.602 272.521 132.143 272.847C132.689 273.172 133.121 273.621 133.439 274.193C133.757 274.761 133.914 275.413 133.911 276.148C133.914 276.913 133.74 277.6 133.388 278.21C133.036 278.816 132.545 279.294 131.916 279.642C131.287 279.991 130.554 280.163 129.717 280.159ZM129.706 278.455C130.119 278.455 130.488 278.354 130.814 278.153C131.14 277.953 131.397 277.682 131.587 277.341C131.776 277 131.869 276.617 131.865 276.193C131.869 275.777 131.778 275.4 131.592 275.062C131.411 274.725 131.159 274.458 130.837 274.261C130.515 274.064 130.147 273.966 129.734 273.966C129.428 273.966 129.142 274.025 128.876 274.142C128.611 274.259 128.38 274.422 128.183 274.631C127.986 274.835 127.831 275.074 127.717 275.347C127.607 275.616 127.551 275.903 127.547 276.21C127.551 276.616 127.645 276.989 127.831 277.33C128.017 277.67 128.272 277.943 128.598 278.148C128.924 278.352 129.293 278.455 129.706 278.455ZM136.621 280.125C136.276 280.125 135.981 280.004 135.734 279.761C135.488 279.519 135.367 279.223 135.371 278.875C135.367 278.534 135.488 278.242 135.734 278C135.981 277.758 136.276 277.636 136.621 277.636C136.954 277.636 137.244 277.758 137.49 278C137.74 278.242 137.867 278.534 137.871 278.875C137.867 279.106 137.806 279.316 137.689 279.506C137.575 279.695 137.424 279.847 137.234 279.96C137.049 280.07 136.844 280.125 136.621 280.125ZM143.876 280.159C143.119 280.159 142.441 280.017 141.842 279.733C141.244 279.445 140.768 279.051 140.416 278.551C140.068 278.051 139.882 277.479 139.859 276.835H141.905C141.943 277.312 142.149 277.703 142.524 278.006C142.899 278.305 143.35 278.455 143.876 278.455C144.289 278.455 144.657 278.36 144.979 278.17C145.301 277.981 145.554 277.718 145.74 277.381C145.926 277.044 146.017 276.659 146.013 276.227C146.017 275.788 145.924 275.398 145.734 275.057C145.545 274.716 145.286 274.449 144.956 274.256C144.626 274.059 144.248 273.96 143.82 273.96C143.471 273.956 143.128 274.021 142.791 274.153C142.454 274.286 142.187 274.46 141.99 274.676L140.087 274.364L140.695 268.364H147.445V270.125H142.439L142.104 273.21H142.172C142.388 272.956 142.693 272.746 143.087 272.58C143.481 272.409 143.912 272.324 144.382 272.324C145.087 272.324 145.715 272.491 146.268 272.824C146.821 273.153 147.257 273.608 147.575 274.188C147.893 274.767 148.053 275.43 148.053 276.176C148.053 276.945 147.875 277.631 147.518 278.233C147.166 278.831 146.676 279.303 146.047 279.648C145.422 279.989 144.698 280.159 143.876 280.159ZM152.587 273.744C152.083 273.744 151.625 273.623 151.212 273.381C150.799 273.134 150.469 272.805 150.223 272.392C149.977 271.975 149.854 271.515 149.854 271.011C149.854 270.511 149.977 270.055 150.223 269.642C150.469 269.225 150.799 268.896 151.212 268.653C151.625 268.407 152.083 268.284 152.587 268.284C153.09 268.284 153.549 268.407 153.962 268.653C154.375 268.896 154.704 269.225 154.95 269.642C155.196 270.055 155.32 270.511 155.32 271.011C155.32 271.515 155.196 271.975 154.95 272.392C154.704 272.805 154.375 273.134 153.962 273.381C153.549 273.623 153.09 273.744 152.587 273.744ZM152.587 272.29C152.821 272.29 153.036 272.233 153.229 272.119C153.422 272.006 153.575 271.852 153.689 271.659C153.806 271.466 153.865 271.25 153.865 271.011C153.865 270.777 153.806 270.562 153.689 270.369C153.575 270.176 153.422 270.023 153.229 269.909C153.036 269.795 152.821 269.739 152.587 269.739C152.352 269.739 152.138 269.795 151.945 269.909C151.751 270.023 151.596 270.176 151.479 270.369C151.365 270.562 151.308 270.777 151.308 271.011C151.308 271.246 151.365 271.462 151.479 271.659C151.592 271.852 151.746 272.006 151.939 272.119C152.136 272.233 152.352 272.29 152.587 272.29ZM167.092 272.29H164.967C164.907 271.941 164.795 271.633 164.632 271.364C164.469 271.091 164.267 270.86 164.024 270.67C163.782 270.481 163.505 270.339 163.195 270.244C162.888 270.146 162.556 270.097 162.2 270.097C161.568 270.097 161.007 270.256 160.518 270.574C160.03 270.888 159.647 271.35 159.371 271.96C159.094 272.566 158.956 273.307 158.956 274.182C158.956 275.072 159.094 275.822 159.371 276.432C159.651 277.038 160.034 277.496 160.518 277.807C161.007 278.114 161.566 278.267 162.195 278.267C162.543 278.267 162.869 278.222 163.172 278.131C163.479 278.036 163.753 277.898 163.996 277.716C164.242 277.534 164.448 277.311 164.615 277.045C164.786 276.78 164.903 276.477 164.967 276.136L167.092 276.148C167.013 276.701 166.84 277.22 166.575 277.705C166.314 278.189 165.971 278.617 165.547 278.989C165.123 279.356 164.626 279.644 164.058 279.852C163.49 280.057 162.859 280.159 162.166 280.159C161.143 280.159 160.231 279.922 159.428 279.449C158.625 278.975 157.992 278.292 157.53 277.398C157.068 276.504 156.837 275.432 156.837 274.182C156.837 272.928 157.07 271.856 157.536 270.966C158.001 270.072 158.636 269.388 159.439 268.915C160.242 268.441 161.151 268.205 162.166 268.205C162.814 268.205 163.416 268.295 163.973 268.477C164.53 268.659 165.026 268.926 165.462 269.278C165.897 269.627 166.255 270.055 166.536 270.562C166.82 271.066 167.005 271.642 167.092 272.29Z" fill="#691970"/>
<path d="M95.6 210C94.0866 209.998 92.5935 210.335 91.2394 210.985C89.8853 211.634 88.7076 212.579 87.8 213.744C86.5708 212.171 84.8584 211.01 82.9051 210.425C80.9519 209.839 78.8566 209.86 76.9159 210.482C74.9752 211.105 73.2873 212.299 72.091 213.895C70.8947 215.491 70.2507 217.408 70.25 219.375C70.2604 220.866 70.5311 222.345 71.0511 223.75H78.0043L80.2184 220.557C80.3371 220.385 80.4979 220.245 80.6866 220.148C80.8753 220.051 81.086 220 81.3 220C81.514 220 81.7247 220.051 81.9134 220.148C82.1021 220.245 82.2629 220.385 82.3816 220.557L86.5 226.497L88.0184 224.307C88.1371 224.135 88.2979 223.995 88.4866 223.898C88.6753 223.801 88.886 223.75 89.1 223.75H93C93.3448 223.75 93.6754 223.882 93.9192 224.116C94.163 224.351 94.3 224.668 94.3 225C94.3 225.332 94.163 225.649 93.9192 225.884C93.6754 226.118 93.3448 226.25 93 226.25H89.7957L87.5816 229.443C87.4629 229.615 87.3021 229.755 87.1134 229.852C86.9247 229.949 86.714 230 86.5 230C86.286 230 86.0753 229.949 85.8866 229.852C85.6979 229.755 85.5371 229.615 85.4184 229.443L81.3 223.504L79.7816 225.693C79.6629 225.865 79.5021 226.005 79.3134 226.102C79.1247 226.199 78.914 226.25 78.7 226.25H72.1974C76.5282 234.033 86.6231 239.549 87.1648 239.841C87.3588 239.945 87.5776 240 87.8 240C88.0224 240 88.2412 239.945 88.4352 239.841C91.4192 238.16 94.2197 236.195 96.7946 233.976C102.471 229.063 105.35 224.151 105.35 219.375C105.347 216.889 104.319 214.507 102.491 212.749C100.663 210.991 98.185 210.003 95.6 210Z" fill="#AA83B2"/>
<path d="M96.6308 265.626C94.6655 262.617 92.135 260.037 89.9188 257.909C89.7827 257.779 89.6159 257.681 89.4325 257.625C89.2491 257.569 89.0544 257.557 88.8648 257.588C88.6752 257.62 88.4962 257.694 88.3429 257.806C88.1895 257.918 88.0663 258.063 87.9836 258.23L83.3464 267.594L78.4949 264.484C78.3634 264.4 78.2158 264.341 78.0606 264.312C77.9054 264.282 77.7458 264.283 77.5907 264.313C77.4357 264.343 77.2883 264.402 77.1571 264.487C77.0258 264.571 76.9133 264.68 76.8259 264.807C73.8965 269.053 72.4113 272.898 72.4113 276.234C72.4113 279.761 73.8682 283.143 76.4616 285.637C79.055 288.13 82.5724 289.531 86.24 289.531C89.9076 289.531 93.425 288.13 96.0184 285.637C98.6118 283.143 100.069 279.761 100.069 276.234C100.069 272.639 98.9442 269.169 96.6308 265.626ZM95.1527 277.567C94.8656 279.388 93.9802 281.072 92.626 282.375C91.2717 283.677 89.5197 284.528 87.6261 284.804C87.5649 284.813 87.5031 284.818 87.4411 284.818C87.1382 284.818 86.8467 284.707 86.6247 284.509C86.4027 284.311 86.2666 284.04 86.2436 283.749C86.2206 283.459 86.3124 283.171 86.5006 282.943C86.6889 282.715 86.9597 282.563 87.259 282.519C88.6418 282.305 89.9192 281.677 90.9096 280.724C91.9 279.772 92.5531 278.544 92.7759 277.214C92.8 277.064 92.8546 276.92 92.9366 276.79C93.0185 276.661 93.1263 276.548 93.2537 276.458C93.3811 276.368 93.5256 276.303 93.679 276.267C93.8324 276.231 93.9917 276.225 94.1478 276.248C94.3038 276.271 94.4536 276.324 94.5886 276.402C94.7236 276.481 94.841 276.585 94.9344 276.707C95.0277 276.83 95.095 276.969 95.1324 277.116C95.1699 277.264 95.1768 277.417 95.1527 277.567H95.1527Z" fill="#AA83B2"/>
</svg>
