<svg width="30" height="30" viewBox="0 0 30 30" fill="none" xmlns="http://www.w3.org/2000/svg">
<path d="M21.4169 29.9672C18.7473 29.9487 16.8222 29.2369 15.1596 27.8211C14.9299 27.6253 14.7898 27.5477 14.4939 27.7962C11.8563 30.0063 8.86954 30.5928 5.65661 29.3799C2.55249 28.2083 0.680057 25.8743 0.13319 22.6028C-0.346118 19.7321 0.472404 17.1746 2.5212 15.099C6.66074 10.905 10.8394 6.74953 15.0117 2.58903C16.9396 0.666445 19.2899 -0.185585 21.9901 0.0336509C25.7065 0.336168 28.859 3.05811 29.7017 6.69045C30.3765 9.59888 29.7152 12.2162 27.7873 14.4961C27.569 14.7538 27.5803 14.8862 27.7816 15.136C30.2116 18.1505 30.6902 21.4768 28.9948 24.944C27.3862 28.2332 24.5864 29.8419 21.4169 29.9672ZM8.75078 27.9115C10.3523 27.9129 11.9715 27.2879 13.147 26.2565C13.4045 26.0309 13.418 25.8864 13.2516 25.5867C11.3557 22.1814 11.5178 18.8595 13.7167 15.6435C13.8617 15.4314 13.8561 15.3147 13.6776 15.1374C12.4309 13.9024 11.1978 12.6539 9.95261 11.4183C9.49961 10.9691 9.62691 10.9093 9.12626 11.4097C7.44157 13.0946 5.75404 14.7765 4.07646 16.4678C2.50413 18.053 1.84988 19.9692 2.14785 22.1772C2.58804 25.4358 5.45963 27.9072 8.7522 27.91L8.75078 27.9115ZM27.9032 8.65431C27.8548 7.95034 27.7496 7.18301 27.4765 6.43847C25.8174 1.91566 19.9797 0.588146 16.5605 3.96922C14.7912 5.71883 13.0468 7.49336 11.2775 9.24298C11.0328 9.48499 11.0712 9.61454 11.291 9.83164C12.581 11.1051 13.8617 12.3884 15.1361 13.6782C15.3118 13.8562 15.427 13.8718 15.6403 13.7252C18.9151 11.4688 22.2802 11.3592 25.7193 13.3344C25.9042 13.4405 25.9945 13.4177 26.131 13.2668C27.2959 11.9792 27.857 10.4587 27.9032 8.65503V8.65431ZM20.9888 21.9807C18.844 21.9807 16.6992 21.98 14.5544 21.9807C14.1213 21.9807 14.1106 21.9985 14.1981 22.432C14.9107 25.964 18.482 28.4197 22.0377 27.8225C24.8624 27.3484 27.0776 25.2572 27.7126 22.4647C27.8143 22.017 27.7873 21.9807 27.3165 21.9807C25.2073 21.98 23.098 21.9807 20.9888 21.9807ZM20.9532 19.94C23.0859 19.94 25.2186 19.94 27.3514 19.94C27.7766 19.94 27.8051 19.8973 27.7204 19.4915C27.042 16.2343 23.8995 13.7217 20.3374 14.0598C17.3449 14.3438 14.8168 16.5553 14.196 19.493C14.1057 19.9208 14.1192 19.94 14.5551 19.9407C16.6878 19.9414 18.8205 19.9407 20.9532 19.9407V19.94Z" fill="#AA83B2"/>
</svg>
