<svg width="286" height="61" viewBox="0 0 286 61" fill="none" xmlns="http://www.w3.org/2000/svg">
<path d="M131.699 40.8317V39.7273H137.501V40.8317H135.254V47H133.947V40.8317H131.699ZM140.187 47.1065C139.64 47.1065 139.168 46.9929 138.77 46.7656C138.375 46.536 138.07 46.2116 137.857 45.7926C137.644 45.3712 137.538 44.8752 137.538 44.3047C137.538 43.7436 137.644 43.2512 137.857 42.8274C138.073 42.4013 138.373 42.0698 138.759 41.8331C139.145 41.594 139.599 41.4744 140.119 41.4744C140.456 41.4744 140.773 41.5289 141.071 41.6378C141.372 41.7443 141.637 41.91 141.867 42.1349C142.099 42.3598 142.281 42.6463 142.413 42.9943C142.546 43.34 142.612 43.7519 142.612 44.2301V44.6243H138.141V43.7578H141.38C141.378 43.5116 141.324 43.2926 141.22 43.1009C141.116 42.9067 140.971 42.754 140.784 42.6428C140.599 42.5315 140.383 42.4759 140.137 42.4759C139.874 42.4759 139.644 42.5398 139.445 42.6676C139.246 42.7931 139.091 42.9588 138.98 43.1648C138.871 43.3684 138.815 43.5921 138.813 43.8359V44.5923C138.813 44.9096 138.871 45.1818 138.987 45.4091C139.103 45.634 139.265 45.8068 139.473 45.9276C139.681 46.0459 139.925 46.1051 140.205 46.1051C140.392 46.1051 140.561 46.0791 140.712 46.027C140.864 45.9725 140.995 45.8932 141.107 45.7891C141.218 45.6849 141.302 45.5559 141.359 45.402L142.559 45.5369C142.483 45.8542 142.339 46.1312 142.126 46.3679C141.915 46.6023 141.645 46.7846 141.316 46.9148C140.987 47.0426 140.611 47.1065 140.187 47.1065ZM143.7 47V41.5455H144.929V42.4723H144.993C145.106 42.1598 145.294 41.916 145.557 41.7408C145.82 41.5632 146.134 41.4744 146.498 41.4744C146.868 41.4744 147.179 41.5644 147.432 41.7443C147.688 41.9219 147.868 42.1645 147.972 42.4723H148.029C148.149 42.1693 148.353 41.9278 148.64 41.7479C148.928 41.5656 149.27 41.4744 149.666 41.4744C150.168 41.4744 150.577 41.633 150.894 41.9503C151.212 42.2675 151.37 42.7304 151.37 43.3388V47H150.081V43.5376C150.081 43.1991 149.991 42.9517 149.811 42.7955C149.631 42.6368 149.411 42.5575 149.151 42.5575C148.841 42.5575 148.598 42.6546 148.423 42.8487C148.25 43.0405 148.164 43.2902 148.164 43.598V47H146.903V43.4844C146.903 43.2027 146.818 42.9777 146.647 42.8097C146.479 42.6416 146.259 42.5575 145.987 42.5575C145.802 42.5575 145.634 42.6049 145.483 42.6996C145.331 42.7919 145.21 42.9233 145.12 43.0938C145.03 43.2618 144.985 43.4583 144.985 43.6832V47H143.7ZM152.674 49.0455V41.5455H153.939V42.4474H154.013C154.08 42.3149 154.173 42.174 154.294 42.0249C154.415 41.8733 154.578 41.7443 154.784 41.6378C154.99 41.5289 155.253 41.4744 155.572 41.4744C155.994 41.4744 156.374 41.5821 156.712 41.7976C157.053 42.0107 157.323 42.3267 157.522 42.7457C157.723 43.1624 157.824 43.6738 157.824 44.2798C157.824 44.8788 157.725 45.3878 157.529 45.8068C157.332 46.2259 157.065 46.5455 156.726 46.7656C156.388 46.9858 156.004 47.0959 155.576 47.0959C155.263 47.0959 155.004 47.0438 154.798 46.9396C154.592 46.8355 154.426 46.71 154.301 46.5632C154.178 46.4141 154.082 46.2732 154.013 46.1406H153.96V49.0455H152.674ZM153.935 44.2727C153.935 44.6255 153.985 44.9344 154.084 45.1996C154.186 45.4647 154.332 45.6719 154.521 45.821C154.713 45.9678 154.945 46.0412 155.217 46.0412C155.501 46.0412 155.739 45.9654 155.931 45.8139C156.123 45.66 156.267 45.4505 156.364 45.1854C156.464 44.9179 156.513 44.6136 156.513 44.2727C156.513 43.9342 156.465 43.6335 156.368 43.3707C156.271 43.108 156.126 42.902 155.934 42.7528C155.743 42.6037 155.504 42.5291 155.217 42.5291C154.942 42.5291 154.709 42.6013 154.518 42.7457C154.326 42.8902 154.18 43.0926 154.081 43.353C153.984 43.6134 153.935 43.92 153.935 44.2727ZM161.339 47.1065C160.792 47.1065 160.32 46.9929 159.922 46.7656C159.527 46.536 159.223 46.2116 159.01 45.7926C158.797 45.3712 158.69 44.8752 158.69 44.3047C158.69 43.7436 158.797 43.2512 159.01 42.8274C159.225 42.4013 159.526 42.0698 159.912 41.8331C160.298 41.594 160.751 41.4744 161.272 41.4744C161.608 41.4744 161.925 41.5289 162.224 41.6378C162.524 41.7443 162.789 41.91 163.019 42.1349C163.251 42.3598 163.433 42.6463 163.566 42.9943C163.698 43.34 163.765 43.7519 163.765 44.2301V44.6243H159.294V43.7578H162.532C162.53 43.5116 162.477 43.2926 162.373 43.1009C162.268 42.9067 162.123 42.754 161.936 42.6428C161.751 42.5315 161.536 42.4759 161.29 42.4759C161.027 42.4759 160.796 42.5398 160.597 42.6676C160.398 42.7931 160.243 42.9588 160.132 43.1648C160.023 43.3684 159.967 43.5921 159.965 43.8359V44.5923C159.965 44.9096 160.023 45.1818 160.139 45.4091C160.255 45.634 160.417 45.8068 160.625 45.9276C160.834 46.0459 161.078 46.1051 161.357 46.1051C161.544 46.1051 161.713 46.0791 161.865 46.027C162.016 45.9725 162.148 45.8932 162.259 45.7891C162.37 45.6849 162.454 45.5559 162.511 45.402L163.711 45.5369C163.636 45.8542 163.491 46.1312 163.278 46.3679C163.067 46.6023 162.798 46.7846 162.469 46.9148C162.139 47.0426 161.763 47.1065 161.339 47.1065ZM164.852 47V41.5455H166.099V42.4545H166.156C166.255 42.1397 166.425 41.897 166.667 41.7266C166.911 41.5537 167.189 41.4673 167.501 41.4673C167.572 41.4673 167.652 41.4709 167.739 41.478C167.829 41.4827 167.904 41.491 167.963 41.5028V42.6854C167.909 42.6664 167.822 42.6499 167.704 42.6357C167.588 42.6191 167.475 42.6108 167.366 42.6108C167.132 42.6108 166.921 42.6617 166.734 42.7635C166.55 42.8629 166.404 43.0014 166.298 43.179C166.191 43.3565 166.138 43.5613 166.138 43.7933V47H164.852ZM139.293 59.1101C138.947 59.1101 138.636 59.0485 138.359 58.9254C138.084 58.8 137.867 58.6153 137.706 58.3714C137.547 58.1276 137.468 57.8269 137.468 57.4695C137.468 57.1617 137.524 56.9072 137.638 56.706C137.752 56.5047 137.907 56.3438 138.103 56.223C138.3 56.1023 138.521 56.0111 138.767 55.9496C139.016 55.8857 139.273 55.8395 139.538 55.8111C139.858 55.7779 140.117 55.7483 140.316 55.7223C140.515 55.6939 140.659 55.6513 140.749 55.5945C140.841 55.5353 140.887 55.4441 140.887 55.321V55.2997C140.887 55.0322 140.808 54.825 140.649 54.6783C140.491 54.5315 140.262 54.4581 139.964 54.4581C139.649 54.4581 139.399 54.5268 139.215 54.6641C139.033 54.8014 138.909 54.9635 138.845 55.1506L137.645 54.9801C137.74 54.6487 137.896 54.3717 138.114 54.1491C138.332 53.9242 138.598 53.7562 138.913 53.6449C139.228 53.5312 139.576 53.4744 139.957 53.4744C140.22 53.4744 140.481 53.5052 140.742 53.5668C141.002 53.6283 141.24 53.7301 141.456 53.8722C141.671 54.0118 141.844 54.2024 141.974 54.4439C142.107 54.6854 142.173 54.9872 142.173 55.3494V59H140.937V58.2507H140.894C140.816 58.4022 140.706 58.5443 140.564 58.6768C140.425 58.8071 140.248 58.9124 140.035 58.9929C139.824 59.071 139.577 59.1101 139.293 59.1101ZM139.627 58.1655C139.885 58.1655 140.109 58.1146 140.298 58.0128C140.487 57.9086 140.633 57.7713 140.735 57.6009C140.839 57.4304 140.891 57.2446 140.891 57.0433V56.4006C140.851 56.4337 140.782 56.4645 140.685 56.4929C140.59 56.5213 140.484 56.5462 140.365 56.5675C140.247 56.5888 140.13 56.6077 140.014 56.6243C139.898 56.6409 139.797 56.6551 139.712 56.6669C139.52 56.6929 139.349 56.7356 139.197 56.7947C139.046 56.8539 138.926 56.9368 138.838 57.0433C138.751 57.1475 138.707 57.2824 138.707 57.4482C138.707 57.6849 138.793 57.8636 138.966 57.9844C139.139 58.1051 139.359 58.1655 139.627 58.1655ZM146.189 53.5455V54.5398H143.054V53.5455H146.189ZM143.828 52.2386H145.113V57.3594C145.113 57.5322 145.139 57.6648 145.191 57.7571C145.246 57.8471 145.317 57.9086 145.404 57.9418C145.492 57.9749 145.589 57.9915 145.696 57.9915C145.776 57.9915 145.85 57.9856 145.916 57.9737C145.984 57.9619 146.037 57.9512 146.072 57.9418L146.289 58.9467C146.22 58.9704 146.122 58.9964 145.994 59.0249C145.868 59.0533 145.715 59.0698 145.532 59.0746C145.21 59.084 144.92 59.0355 144.662 58.929C144.404 58.8201 144.199 58.652 144.048 58.4247C143.899 58.1974 143.825 57.9134 143.828 57.5724V52.2386ZM150.741 56.706V53.5455H152.026V59H150.78V58.0305H150.723C150.6 58.3359 150.398 58.5857 150.116 58.7798C149.837 58.974 149.492 59.071 149.083 59.071C148.725 59.071 148.409 58.9917 148.134 58.8331C147.862 58.6721 147.649 58.4389 147.495 58.1335C147.341 57.8258 147.264 57.4541 147.264 57.0185V53.5455H148.55V56.8196C148.55 57.1652 148.645 57.4399 148.834 57.6435C149.023 57.8471 149.272 57.9489 149.58 57.9489C149.769 57.9489 149.953 57.9027 150.13 57.8104C150.308 57.718 150.453 57.5807 150.567 57.3984C150.683 57.2138 150.741 56.983 150.741 56.706ZM153.348 59V53.5455H154.595V54.4545H154.652C154.751 54.1397 154.921 53.897 155.163 53.7266C155.407 53.5537 155.685 53.4673 155.997 53.4673C156.068 53.4673 156.148 53.4709 156.235 53.478C156.325 53.4827 156.4 53.491 156.459 53.5028V54.6854C156.405 54.6664 156.318 54.6499 156.2 54.6357C156.084 54.6191 155.971 54.6108 155.863 54.6108C155.628 54.6108 155.417 54.6617 155.23 54.7635C155.046 54.8629 154.9 55.0014 154.794 55.179C154.687 55.3565 154.634 55.5613 154.634 55.7933V59H153.348ZM158.785 59.1101C158.439 59.1101 158.128 59.0485 157.851 58.9254C157.577 58.8 157.359 58.6153 157.198 58.3714C157.039 58.1276 156.96 57.8269 156.96 57.4695C156.96 57.1617 157.017 56.9072 157.13 56.706C157.244 56.5047 157.399 56.3438 157.595 56.223C157.792 56.1023 158.013 56.0111 158.26 55.9496C158.508 55.8857 158.765 55.8395 159.03 55.8111C159.35 55.7779 159.609 55.7483 159.808 55.7223C160.007 55.6939 160.151 55.6513 160.241 55.5945C160.333 55.5353 160.38 55.4441 160.38 55.321V55.2997C160.38 55.0322 160.3 54.825 160.142 54.6783C159.983 54.5315 159.755 54.4581 159.456 54.4581C159.141 54.4581 158.892 54.5268 158.707 54.6641C158.525 54.8014 158.402 54.9635 158.338 55.1506L157.137 54.9801C157.232 54.6487 157.388 54.3717 157.606 54.1491C157.824 53.9242 158.09 53.7562 158.405 53.6449C158.72 53.5312 159.068 53.4744 159.449 53.4744C159.712 53.4744 159.974 53.5052 160.234 53.5668C160.494 53.6283 160.732 53.7301 160.948 53.8722C161.163 54.0118 161.336 54.2024 161.466 54.4439C161.599 54.6854 161.665 54.9872 161.665 55.3494V59H160.429V58.2507H160.387C160.309 58.4022 160.198 58.5443 160.056 58.6768C159.917 58.8071 159.74 58.9124 159.527 58.9929C159.317 59.071 159.069 59.1101 158.785 59.1101ZM159.119 58.1655C159.377 58.1655 159.601 58.1146 159.79 58.0128C159.979 57.9086 160.125 57.7713 160.227 57.6009C160.331 57.4304 160.383 57.2446 160.383 57.0433V56.4006C160.343 56.4337 160.274 56.4645 160.177 56.4929C160.082 56.5213 159.976 56.5462 159.858 56.5675C159.739 56.5888 159.622 56.6077 159.506 56.6243C159.39 56.6409 159.289 56.6551 159.204 56.6669C159.012 56.6929 158.841 56.7356 158.689 56.7947C158.538 56.8539 158.418 56.9368 158.331 57.0433C158.243 57.1475 158.199 57.2824 158.199 57.4482C158.199 57.6849 158.286 57.8636 158.458 57.9844C158.631 58.1051 158.851 58.1655 159.119 58.1655Z" fill="#B096B2"/>
<path d="M158.667 8.32548C156.967 5.72282 154.778 3.49101 152.862 1.65129C152.744 1.53821 152.6 1.45396 152.441 1.40562C152.282 1.35727 152.114 1.34624 151.95 1.37345C151.786 1.40066 151.631 1.46532 151.499 1.56199C151.366 1.65866 151.26 1.78452 151.188 1.929L147.177 10.0273L142.982 7.33756C142.868 7.26461 142.74 7.21395 142.606 7.1885C142.472 7.16305 142.334 7.1633 142.2 7.18925C142.065 7.21519 141.938 7.26632 141.824 7.33969C141.711 7.41307 141.614 7.50726 141.538 7.61686C139.005 11.2891 137.72 14.6143 137.72 17.4999C137.72 20.5499 138.98 23.475 141.223 25.6316C143.466 27.7883 146.508 28.9999 149.68 28.9999C152.852 28.9999 155.894 27.7883 158.137 25.6316C160.38 23.475 161.64 20.5499 161.64 17.4999C161.64 14.3902 160.667 11.3892 158.667 8.32548ZM157.388 18.6525C157.14 20.2272 156.374 21.6842 155.203 22.8104C154.032 23.9367 152.516 24.673 150.879 24.9118C150.826 24.9196 150.772 24.9236 150.719 24.9236C150.457 24.9233 150.205 24.8279 150.013 24.6566C149.821 24.4853 149.703 24.2506 149.683 23.9995C149.663 23.7484 149.743 23.4993 149.905 23.302C150.068 23.1047 150.302 22.9737 150.561 22.9352C151.757 22.7499 152.862 22.2068 153.719 21.3832C154.575 20.5596 155.14 19.4973 155.333 18.3473C155.353 18.2175 155.401 18.093 155.472 17.9807C155.542 17.8685 155.636 17.7708 155.746 17.6932C155.856 17.6156 155.981 17.5596 156.114 17.5285C156.246 17.4973 156.384 17.4916 156.519 17.5116C156.654 17.5317 156.784 17.5771 156.9 17.6453C157.017 17.7134 157.119 17.8031 157.199 17.909C157.28 18.0149 157.338 18.1351 157.371 18.2627C157.403 18.3903 157.409 18.5227 157.388 18.6525H157.388Z" fill="#B096B2"/>
<path d="M13.1729 47V39.7273H15.9002C16.4589 39.7273 16.9277 39.8243 17.3064 40.0185C17.6876 40.2126 17.9752 40.4848 18.1694 40.8352C18.3659 41.1832 18.4641 41.5893 18.4641 42.0533C18.4641 42.5196 18.3647 42.9245 18.1658 43.2678C17.9693 43.6087 17.6793 43.8726 17.2958 44.0597C16.9123 44.2443 16.4411 44.3366 15.8824 44.3366H13.94V43.2429H15.7049C16.0316 43.2429 16.2991 43.1979 16.5074 43.108C16.7158 43.0156 16.8696 42.8819 16.9691 42.7067C17.0709 42.5291 17.1218 42.3113 17.1218 42.0533C17.1218 41.7952 17.0709 41.575 16.9691 41.3928C16.8673 41.2081 16.7122 41.0684 16.5039 40.9737C16.2955 40.8767 16.0268 40.8281 15.6978 40.8281H14.4904V47H13.1729ZM16.93 43.7045L18.7304 47H17.2603L15.4918 43.7045H16.93ZM19.62 47V41.5455H20.9055V47H19.62ZM20.2663 40.7713C20.0627 40.7713 19.8875 40.7038 19.7407 40.5689C19.594 40.4316 19.5206 40.267 19.5206 40.0753C19.5206 39.8812 19.594 39.7166 19.7407 39.5817C19.8875 39.4444 20.0627 39.3757 20.2663 39.3757C20.4723 39.3757 20.6475 39.4444 20.7919 39.5817C20.9387 39.7166 21.012 39.8812 21.012 40.0753C21.012 40.267 20.9387 40.4316 20.7919 40.5689C20.6475 40.7038 20.4723 40.7713 20.2663 40.7713ZM24.9511 41.5455V42.5398H21.8155V41.5455H24.9511ZM22.5896 40.2386H23.8752V45.3594C23.8752 45.5322 23.9012 45.6648 23.9533 45.7571C24.0077 45.8471 24.0788 45.9086 24.1663 45.9418C24.2539 45.9749 24.351 45.9915 24.4575 45.9915C24.538 45.9915 24.6114 45.9856 24.6777 45.9737C24.7464 45.9619 24.7984 45.9512 24.834 45.9418L25.0506 46.9467C24.9819 46.9704 24.8837 46.9964 24.7558 47.0249C24.6304 47.0533 24.4765 47.0698 24.2942 47.0746C23.9722 47.084 23.6822 47.0355 23.4242 46.929C23.1661 46.8201 22.9613 46.652 22.8098 46.4247C22.6607 46.1974 22.5873 45.9134 22.5896 45.5724V40.2386ZM26.0263 47V41.5455H27.2549V42.4723H27.3189C27.4325 42.1598 27.6207 41.916 27.8835 41.7408C28.1463 41.5632 28.46 41.4744 28.8245 41.4744C29.1939 41.4744 29.5052 41.5644 29.7585 41.7443C30.0142 41.9219 30.1941 42.1645 30.2983 42.4723H30.3551C30.4758 42.1693 30.6794 41.9278 30.9659 41.7479C31.2547 41.5656 31.5968 41.4744 31.9922 41.4744C32.4941 41.4744 32.9036 41.633 33.2209 41.9503C33.5381 42.2675 33.6967 42.7304 33.6967 43.3388V47H32.4076V43.5376C32.4076 43.1991 32.3177 42.9517 32.1378 42.7955C31.9578 42.6368 31.7377 42.5575 31.4772 42.5575C31.1671 42.5575 30.9245 42.6546 30.7493 42.8487C30.5764 43.0405 30.49 43.2902 30.49 43.598V47H29.2294V43.4844C29.2294 43.2027 29.1442 42.9777 28.9737 42.8097C28.8056 42.6416 28.5854 42.5575 28.3132 42.5575C28.1285 42.5575 27.9604 42.6049 27.8089 42.6996C27.6574 42.7919 27.5367 42.9233 27.4467 43.0938C27.3567 43.2618 27.3118 43.4583 27.3118 43.6832V47H26.0263ZM37.3801 47.1065C36.8475 47.1065 36.3858 46.9893 35.9952 46.755C35.6046 46.5206 35.3015 46.1927 35.0861 45.7713C34.873 45.3499 34.7665 44.8575 34.7665 44.294C34.7665 43.7306 34.873 43.237 35.0861 42.8132C35.3015 42.3894 35.6046 42.0604 35.9952 41.826C36.3858 41.5916 36.8475 41.4744 37.3801 41.4744C37.9128 41.4744 38.3744 41.5916 38.7651 41.826C39.1557 42.0604 39.4575 42.3894 39.6706 42.8132C39.886 43.237 39.9938 43.7306 39.9938 44.294C39.9938 44.8575 39.886 45.3499 39.6706 45.7713C39.4575 46.1927 39.1557 46.5206 38.7651 46.755C38.3744 46.9893 37.9128 47.1065 37.3801 47.1065ZM37.3872 46.0767C37.6761 46.0767 37.9175 45.9974 38.1117 45.8388C38.3058 45.6778 38.4502 45.4624 38.5449 45.1925C38.642 44.9226 38.6905 44.6219 38.6905 44.2905C38.6905 43.9567 38.642 43.6548 38.5449 43.3849C38.4502 43.1127 38.3058 42.8961 38.1117 42.7351C37.9175 42.5741 37.6761 42.4936 37.3872 42.4936C37.0913 42.4936 36.8451 42.5741 36.6486 42.7351C36.4545 42.8961 36.3089 43.1127 36.2118 43.3849C36.1171 43.6548 36.0698 43.9567 36.0698 44.2905C36.0698 44.6219 36.1171 44.9226 36.2118 45.1925C36.3089 45.4624 36.4545 45.6778 36.6486 45.8388C36.8451 45.9974 37.0913 46.0767 37.3872 46.0767ZM11.6734 54.1811H10.3453C10.3074 53.9633 10.2376 53.7704 10.1358 53.6023C10.034 53.4318 9.90735 53.2874 9.75583 53.169C9.60432 53.0507 9.4315 52.9619 9.23737 52.9027C9.04561 52.8411 8.83846 52.8104 8.61592 52.8104C8.22056 52.8104 7.87018 52.9098 7.56478 53.1087C7.25939 53.3052 7.02028 53.594 6.84745 53.9751C6.67463 54.3539 6.58822 54.8168 6.58822 55.3636C6.58822 55.92 6.67463 56.3887 6.84745 56.7699C7.02264 57.1487 7.26175 57.4351 7.56478 57.6293C7.87018 57.821 8.21938 57.9169 8.61237 57.9169C8.83017 57.9169 9.03377 57.8885 9.22316 57.8317C9.41493 57.7725 9.58656 57.6861 9.73808 57.5724C9.89196 57.4588 10.021 57.3191 10.1252 57.1534C10.2317 56.9877 10.3051 56.7983 10.3453 56.5852L11.6734 56.5923C11.6237 56.938 11.516 57.2623 11.3503 57.5653C11.1869 57.8684 10.9727 58.1359 10.7075 58.3679C10.4424 58.5975 10.1323 58.7775 9.77714 58.9077C9.42203 59.0355 9.02785 59.0994 8.59461 59.0994C7.95541 59.0994 7.38486 58.9515 6.88296 58.6555C6.38107 58.3596 5.98571 57.9323 5.69689 57.3736C5.40806 56.8149 5.26365 56.1449 5.26365 55.3636C5.26365 54.58 5.40924 53.91 5.70044 53.3537C5.99163 52.795 6.38817 52.3677 6.89007 52.0717C7.39196 51.7758 7.96014 51.6278 8.59461 51.6278C8.99944 51.6278 9.37586 51.6847 9.72387 51.7983C10.0719 51.9119 10.382 52.0788 10.6543 52.299C10.9265 52.5168 11.1502 52.7843 11.3254 53.1016C11.503 53.4164 11.619 53.7763 11.6734 54.1811ZM14.3927 59.1101C14.0471 59.1101 13.7358 59.0485 13.4588 58.9254C13.1842 58.8 12.9664 58.6153 12.8054 58.3714C12.6468 58.1276 12.5674 57.8269 12.5674 57.4695C12.5674 57.1617 12.6243 56.9072 12.7379 56.706C12.8515 56.5047 13.0066 56.3438 13.2031 56.223C13.3996 56.1023 13.621 56.0111 13.8672 55.9496C14.1157 55.8857 14.3726 55.8395 14.6378 55.8111C14.9574 55.7779 15.2166 55.7483 15.4155 55.7223C15.6143 55.6939 15.7587 55.6513 15.8487 55.5945C15.941 55.5353 15.9872 55.4441 15.9872 55.321V55.2997C15.9872 55.0322 15.9079 54.825 15.7493 54.6783C15.5906 54.5315 15.3622 54.4581 15.0639 54.4581C14.749 54.4581 14.4993 54.5268 14.3146 54.6641C14.1323 54.8014 14.0092 54.9635 13.9453 55.1506L12.745 54.9801C12.8397 54.6487 12.996 54.3717 13.2138 54.1491C13.4316 53.9242 13.6979 53.7562 14.0128 53.6449C14.3276 53.5312 14.6756 53.4744 15.0568 53.4744C15.3196 53.4744 15.5812 53.5052 15.8416 53.5668C16.102 53.6283 16.3399 53.7301 16.5554 53.8722C16.7708 54.0118 16.9436 54.2024 17.0738 54.4439C17.2064 54.6854 17.2727 54.9872 17.2727 55.3494V59H16.0369V58.2507H15.9943C15.9162 58.4022 15.8061 58.5443 15.664 58.6768C15.5244 58.8071 15.348 58.9124 15.1349 58.9929C14.9242 59.071 14.6768 59.1101 14.3927 59.1101ZM14.7265 58.1655C14.9846 58.1655 15.2083 58.1146 15.3977 58.0128C15.5871 57.9086 15.7327 57.7713 15.8345 57.6009C15.9387 57.4304 15.9907 57.2446 15.9907 57.0433V56.4006C15.9505 56.4337 15.8818 56.4645 15.7848 56.4929C15.6901 56.5213 15.5835 56.5462 15.4652 56.5675C15.3468 56.5888 15.2296 56.6077 15.1136 56.6243C14.9976 56.6409 14.897 56.6551 14.8118 56.6669C14.62 56.6929 14.4484 56.7356 14.2968 56.7947C14.1453 56.8539 14.0258 56.9368 13.9382 57.0433C13.8506 57.1475 13.8068 57.2824 13.8068 57.4482C13.8068 57.6849 13.8932 57.8636 14.066 57.9844C14.2388 58.1051 14.459 58.1655 14.7265 58.1655ZM18.5653 59V53.5455H19.8118V54.4545H19.8686C19.968 54.1397 20.1385 53.897 20.3799 53.7266C20.6238 53.5537 20.902 53.4673 21.2145 53.4673C21.2855 53.4673 21.3648 53.4709 21.4524 53.478C21.5424 53.4827 21.6169 53.491 21.6761 53.5028V54.6854C21.6217 54.6664 21.5352 54.6499 21.4169 54.6357C21.3009 54.6191 21.1884 54.6108 21.0795 54.6108C20.8451 54.6108 20.6344 54.6617 20.4474 54.7635C20.2628 54.8629 20.1172 55.0014 20.0106 55.179C19.9041 55.3565 19.8508 55.5613 19.8508 55.7933V59H18.5653ZM24.3297 59.0959C23.9012 59.0959 23.5177 58.9858 23.1791 58.7656C22.8406 58.5455 22.5731 58.2259 22.3766 57.8068C22.1801 57.3878 22.0818 56.8788 22.0818 56.2798C22.0818 55.6738 22.1813 55.1624 22.3801 54.7457C22.5814 54.3267 22.8524 54.0107 23.1933 53.7976C23.5342 53.5821 23.9142 53.4744 24.3332 53.4744C24.6529 53.4744 24.9156 53.5289 25.1216 53.6378C25.3276 53.7443 25.4909 53.8733 25.6117 54.0249C25.7324 54.174 25.8259 54.3149 25.8922 54.4474H25.9455V51.7273H27.2345V59H25.9703V58.1406H25.8922C25.8259 58.2732 25.73 58.4141 25.6046 58.5632C25.4791 58.71 25.3134 58.8355 25.1074 58.9396C24.9014 59.0438 24.6422 59.0959 24.3297 59.0959ZM24.6884 58.0412C24.9606 58.0412 25.1926 57.9678 25.3844 57.821C25.5761 57.6719 25.7217 57.4647 25.8212 57.1996C25.9206 56.9344 25.9703 56.6255 25.9703 56.2727C25.9703 55.92 25.9206 55.6134 25.8212 55.353C25.7241 55.0926 25.5797 54.8902 25.3879 54.7457C25.1985 54.6013 24.9654 54.5291 24.6884 54.5291C24.4019 54.5291 24.1628 54.6037 23.971 54.7528C23.7793 54.902 23.6349 55.108 23.5378 55.3707C23.4407 55.6335 23.3922 55.9342 23.3922 56.2727C23.3922 56.6136 23.4407 56.9179 23.5378 57.1854C23.6372 57.4505 23.7828 57.66 23.9746 57.8139C24.1687 57.9654 24.4066 58.0412 24.6884 58.0412ZM28.6044 59V53.5455H29.8899V59H28.6044ZM29.2507 52.7713C29.0471 52.7713 28.8719 52.7038 28.7251 52.5689C28.5783 52.4316 28.5049 52.267 28.5049 52.0753C28.5049 51.8812 28.5783 51.7166 28.7251 51.5817C28.8719 51.4444 29.0471 51.3757 29.2507 51.3757C29.4567 51.3757 29.6318 51.4444 29.7763 51.5817C29.923 51.7166 29.9964 51.8812 29.9964 52.0753C29.9964 52.267 29.923 52.4316 29.7763 52.5689C29.6318 52.7038 29.4567 52.7713 29.2507 52.7713ZM32.7814 59.1101C32.4358 59.1101 32.1244 59.0485 31.8475 58.9254C31.5728 58.8 31.355 58.6153 31.194 58.3714C31.0354 58.1276 30.9561 57.8269 30.9561 57.4695C30.9561 57.1617 31.0129 56.9072 31.1266 56.706C31.2402 56.5047 31.3953 56.3438 31.5918 56.223C31.7883 56.1023 32.0096 56.0111 32.2558 55.9496C32.5044 55.8857 32.7613 55.8395 33.0264 55.8111C33.346 55.7779 33.6053 55.7483 33.8041 55.7223C34.003 55.6939 34.1474 55.6513 34.2374 55.5945C34.3297 55.5353 34.3759 55.4441 34.3759 55.321V55.2997C34.3759 55.0322 34.2966 54.825 34.1379 54.6783C33.9793 54.5315 33.7509 54.4581 33.4526 54.4581C33.1377 54.4581 32.8879 54.5268 32.7033 54.6641C32.521 54.8014 32.3979 54.9635 32.334 55.1506L31.1337 54.9801C31.2284 54.6487 31.3846 54.3717 31.6024 54.1491C31.8202 53.9242 32.0866 53.7562 32.4014 53.6449C32.7163 53.5312 33.0643 53.4744 33.4455 53.4744C33.7082 53.4744 33.9698 53.5052 34.2303 53.5668C34.4907 53.6283 34.7286 53.7301 34.944 53.8722C35.1595 54.0118 35.3323 54.2024 35.4625 54.4439C35.5951 54.6854 35.6614 54.9872 35.6614 55.3494V59H34.4256V58.2507H34.383C34.3048 58.4022 34.1948 58.5443 34.0527 58.6768C33.913 58.8071 33.7367 58.9124 33.5236 58.9929C33.3129 59.071 33.0655 59.1101 32.7814 59.1101ZM33.1152 58.1655C33.3733 58.1655 33.597 58.1146 33.7864 58.0128C33.9758 57.9086 34.1214 57.7713 34.2232 57.6009C34.3273 57.4304 34.3794 57.2446 34.3794 57.0433V56.4006C34.3392 56.4337 34.2705 56.4645 34.1734 56.4929C34.0788 56.5213 33.9722 56.5462 33.8538 56.5675C33.7355 56.5888 33.6183 56.6077 33.5023 56.6243C33.3863 56.6409 33.2857 56.6551 33.2004 56.6669C33.0087 56.6929 32.837 56.7356 32.6855 56.7947C32.534 56.8539 32.4145 56.9368 32.3269 57.0433C32.2393 57.1475 32.1955 57.2824 32.1955 57.4482C32.1955 57.6849 32.2819 57.8636 32.4547 57.9844C32.6275 58.1051 32.8477 58.1655 33.1152 58.1655ZM39.3332 59.1065C38.7887 59.1065 38.3212 58.987 37.9306 58.7479C37.5423 58.5088 37.2428 58.1785 37.0321 57.7571C36.8238 57.3333 36.7196 56.8456 36.7196 56.294C36.7196 55.7401 36.8261 55.2512 37.0392 54.8274C37.2523 54.4013 37.5529 54.0698 37.9412 53.8331C38.3318 53.594 38.7935 53.4744 39.3261 53.4744C39.7689 53.4744 40.1607 53.5561 40.5016 53.7195C40.8448 53.8804 41.1183 54.1089 41.3219 54.4048C41.5255 54.6984 41.6415 55.0417 41.6699 55.4347H40.4412C40.3915 55.1719 40.2731 54.9529 40.0861 54.7777C39.9014 54.6001 39.654 54.5114 39.3439 54.5114C39.0811 54.5114 38.8503 54.5824 38.6514 54.7244C38.4526 54.8641 38.2975 55.0653 38.1862 55.3281C38.0773 55.5909 38.0229 55.9058 38.0229 56.2727C38.0229 56.6444 38.0773 56.964 38.1862 57.2315C38.2951 57.4967 38.4478 57.7015 38.6443 57.8459C38.8432 57.9879 39.0764 58.0589 39.3439 58.0589C39.5333 58.0589 39.7026 58.0234 39.8517 57.9524C40.0032 57.879 40.1299 57.7737 40.2317 57.6364C40.3335 57.4991 40.4033 57.3321 40.4412 57.1357H41.6699C41.6391 57.5215 41.5255 57.8636 41.329 58.1619C41.1325 58.4579 40.865 58.6899 40.5264 58.858C40.1879 59.0237 39.7902 59.1065 39.3332 59.1065ZM45.1047 59.1065C44.5721 59.1065 44.1104 58.9893 43.7198 58.755C43.3292 58.5206 43.0261 58.1927 42.8107 57.7713C42.5976 57.3499 42.4911 56.8575 42.4911 56.294C42.4911 55.7306 42.5976 55.237 42.8107 54.8132C43.0261 54.3894 43.3292 54.0604 43.7198 53.826C44.1104 53.5916 44.5721 53.4744 45.1047 53.4744C45.6374 53.4744 46.0991 53.5916 46.4897 53.826C46.8803 54.0604 47.1821 54.3894 47.3952 54.8132C47.6107 55.237 47.7184 55.7306 47.7184 56.294C47.7184 56.8575 47.6107 57.3499 47.3952 57.7713C47.1821 58.1927 46.8803 58.5206 46.4897 58.755C46.0991 58.9893 45.6374 59.1065 45.1047 59.1065ZM45.1118 58.0767C45.4007 58.0767 45.6421 57.9974 45.8363 57.8388C46.0304 57.6778 46.1748 57.4624 46.2695 57.1925C46.3666 56.9226 46.4151 56.6219 46.4151 56.2905C46.4151 55.9567 46.3666 55.6548 46.2695 55.3849C46.1748 55.1127 46.0304 54.8961 45.8363 54.7351C45.6421 54.5741 45.4007 54.4936 45.1118 54.4936C44.8159 54.4936 44.5697 54.5741 44.3732 54.7351C44.1791 54.8961 44.0335 55.1127 43.9364 55.3849C43.8417 55.6548 43.7944 55.9567 43.7944 56.2905C43.7944 56.6219 43.8417 56.9226 43.9364 57.1925C44.0335 57.4624 44.1791 57.6778 44.3732 57.8388C44.5697 57.9974 44.8159 58.0767 45.1118 58.0767Z" fill="#B096B2"/>
<path d="M32.1599 4.00001C30.9492 3.99801 29.7547 4.2677 28.6714 4.78762C27.5882 5.30755 26.646 6.06336 25.9199 6.99494C24.9366 5.73687 23.5667 4.808 22.004 4.33976C20.4414 3.87153 18.7652 3.88764 17.2127 4.38582C15.6601 4.884 14.3098 5.83901 13.3528 7.11574C12.3957 8.39246 11.8805 9.92623 11.8799 11.5C11.8882 12.693 12.1049 13.8761 12.5208 15H18.0834L19.8546 12.4453C19.9496 12.3083 20.0783 12.196 20.2292 12.1183C20.3802 12.0407 20.5487 12 20.7199 12C20.8912 12 21.0597 12.0407 21.2107 12.1183C21.3616 12.196 21.4903 12.3083 21.5853 12.4453L24.8799 17.1972L26.0946 15.4453C26.1896 15.3083 26.3183 15.196 26.4692 15.1183C26.6202 15.0407 26.7887 15 26.9599 15H30.0799C30.3558 15 30.6203 15.1054 30.8153 15.2929C31.0104 15.4804 31.1199 15.7348 31.1199 16C31.1199 16.2652 31.0104 16.5196 30.8153 16.7071C30.6203 16.8947 30.3558 17 30.0799 17H27.5165L25.7453 19.5547C25.6503 19.6917 25.5216 19.804 25.3707 19.8817C25.2197 19.9594 25.0512 20 24.8799 20C24.7087 20 24.5402 19.9594 24.3892 19.8817C24.2383 19.804 24.1096 19.6917 24.0146 19.5547L20.7199 14.8028L19.5053 16.5547C19.4103 16.6917 19.2816 16.804 19.1307 16.8817C18.9797 16.9594 18.8112 17 18.6399 17H13.4378C16.9025 23.2263 24.9785 27.6392 25.4117 27.8725C25.567 27.9561 25.742 28 25.9199 28C26.0979 28 26.2729 27.9561 26.4281 27.8725C28.8153 26.5282 31.0557 24.9563 33.1156 23.1808C37.6571 19.2506 39.9599 15.3206 39.9599 11.5C39.9576 9.51158 39.1351 7.60523 37.6728 6.1992C36.2105 4.79316 34.2279 4.00226 32.1599 4.00001Z" fill="#B096B2"/>
<path d="M256.509 47V39.7273H259.236C259.795 39.7273 260.263 39.8314 260.642 40.0398C261.023 40.2481 261.311 40.5346 261.505 40.8991C261.702 41.2614 261.8 41.6733 261.8 42.1349C261.8 42.6013 261.702 43.0156 261.505 43.3778C261.309 43.7401 261.019 44.0253 260.635 44.2337C260.252 44.4396 259.779 44.5426 259.218 44.5426H257.411V43.4595H259.041C259.367 43.4595 259.635 43.4027 259.843 43.2891C260.052 43.1754 260.205 43.0192 260.305 42.8203C260.407 42.6214 260.458 42.393 260.458 42.1349C260.458 41.8769 260.407 41.6496 260.305 41.4531C260.205 41.2566 260.05 41.1039 259.84 40.995C259.631 40.8838 259.363 40.8281 259.034 40.8281H257.826V47H256.509ZM265.224 47.1065C264.677 47.1065 264.205 46.9929 263.807 46.7656C263.412 46.536 263.108 46.2116 262.895 45.7926C262.682 45.3712 262.575 44.8752 262.575 44.3047C262.575 43.7436 262.682 43.2512 262.895 42.8274C263.11 42.4013 263.411 42.0698 263.797 41.8331C264.182 41.594 264.636 41.4744 265.157 41.4744C265.493 41.4744 265.81 41.5289 266.108 41.6378C266.409 41.7443 266.674 41.91 266.904 42.1349C267.136 42.3598 267.318 42.6463 267.451 42.9943C267.583 43.34 267.65 43.7519 267.65 44.2301V44.6243H263.179V43.7578H266.417C266.415 43.5116 266.362 43.2926 266.258 43.1009C266.153 42.9067 266.008 42.754 265.821 42.6428C265.636 42.5315 265.421 42.4759 265.174 42.4759C264.912 42.4759 264.681 42.5398 264.482 42.6676C264.283 42.7931 264.128 42.9588 264.017 43.1648C263.908 43.3684 263.852 43.5921 263.85 43.8359V44.5923C263.85 44.9096 263.908 45.1818 264.024 45.4091C264.14 45.634 264.302 45.8068 264.51 45.9276C264.719 46.0459 264.963 46.1051 265.242 46.1051C265.429 46.1051 265.598 46.0791 265.75 46.027C265.901 45.9725 266.033 45.8932 266.144 45.7891C266.255 45.6849 266.339 45.5559 266.396 45.402L267.596 45.5369C267.521 45.8542 267.376 46.1312 267.163 46.3679C266.952 46.6023 266.682 46.7846 266.353 46.9148C266.024 47.0426 265.648 47.1065 265.224 47.1065ZM273.048 42.9872L271.876 43.1151C271.843 42.9967 271.785 42.8854 271.702 42.7812C271.622 42.6771 271.513 42.593 271.376 42.5291C271.238 42.4652 271.07 42.4332 270.871 42.4332C270.604 42.4332 270.379 42.4912 270.197 42.6072C270.017 42.7232 269.928 42.8736 269.93 43.0582C269.928 43.2169 269.986 43.3459 270.104 43.4453C270.225 43.5447 270.424 43.6264 270.701 43.6903L271.631 43.8892C272.147 44.0005 272.531 44.1768 272.782 44.4183C273.035 44.6598 273.163 44.9759 273.165 45.3665C273.163 45.7098 273.062 46.0128 272.864 46.2756C272.667 46.536 272.394 46.7396 272.043 46.8864C271.693 47.0331 271.29 47.1065 270.836 47.1065C270.168 47.1065 269.631 46.9669 269.224 46.6875C268.816 46.4058 268.574 46.014 268.496 45.5121L269.749 45.3913C269.806 45.6375 269.927 45.8234 270.111 45.9489C270.296 46.0743 270.536 46.1371 270.832 46.1371C271.138 46.1371 271.383 46.0743 271.567 45.9489C271.754 45.8234 271.848 45.6683 271.848 45.4837C271.848 45.3274 271.788 45.1984 271.667 45.0966C271.548 44.9948 271.364 44.9167 271.113 44.8622L270.182 44.6669C269.659 44.558 269.272 44.3745 269.021 44.1165C268.77 43.8561 268.646 43.527 268.648 43.1293C268.646 42.7931 268.737 42.5019 268.922 42.2557C269.109 42.0071 269.368 41.8153 269.699 41.6804C270.033 41.5431 270.418 41.4744 270.854 41.4744C271.493 41.4744 271.996 41.6106 272.363 41.8828C272.732 42.1551 272.961 42.5232 273.048 42.9872ZM276.605 47.1065C276.072 47.1065 275.61 46.9893 275.22 46.755C274.829 46.5206 274.526 46.1927 274.311 45.7713C274.098 45.3499 273.991 44.8575 273.991 44.294C273.991 43.7306 274.098 43.237 274.311 42.8132C274.526 42.3894 274.829 42.0604 275.22 41.826C275.61 41.5916 276.072 41.4744 276.605 41.4744C277.137 41.4744 277.599 41.5916 277.99 41.826C278.38 42.0604 278.682 42.3894 278.895 42.8132C279.111 43.237 279.218 43.7306 279.218 44.294C279.218 44.8575 279.111 45.3499 278.895 45.7713C278.682 46.1927 278.38 46.5206 277.99 46.755C277.599 46.9893 277.137 47.1065 276.605 47.1065ZM276.612 46.0767C276.901 46.0767 277.142 45.9974 277.336 45.8388C277.53 45.6778 277.675 45.4624 277.769 45.1925C277.866 44.9226 277.915 44.6219 277.915 44.2905C277.915 43.9567 277.866 43.6548 277.769 43.3849C277.675 43.1127 277.53 42.8961 277.336 42.7351C277.142 42.5741 276.901 42.4936 276.612 42.4936C276.316 42.4936 276.07 42.5741 275.873 42.7351C275.679 42.8961 275.533 43.1127 275.436 43.3849C275.342 43.6548 275.294 43.9567 275.294 44.2905C275.294 44.6219 275.342 44.9226 275.436 45.1925C275.533 45.4624 275.679 45.6778 275.873 45.8388C276.07 45.9974 276.316 46.0767 276.612 46.0767Z" fill="#B096B2"/>
<path d="M283.84 15H282.8V11C282.8 10.4698 282.58 9.9614 282.19 9.58646C281.8 9.21151 281.272 9.00061 280.72 9H278.64V8C278.64 7.46975 278.42 6.9614 278.03 6.58646C277.64 6.21151 277.112 6.00061 276.56 6H273.44C272.889 6.00061 272.36 6.21151 271.97 6.58646C271.58 6.9614 271.361 7.46975 271.36 8V15H265.12V8C265.12 7.46975 264.9 6.9614 264.51 6.58646C264.12 6.21151 263.592 6.00061 263.04 6H259.92C259.369 6.00061 258.84 6.21151 258.45 6.58646C258.06 6.9614 257.841 7.46975 257.84 8V9H255.76C255.209 9.00061 254.68 9.21151 254.29 9.58646C253.9 9.9614 253.681 10.4698 253.68 11V15H252.64C252.364 15 252.1 15.1054 251.905 15.2929C251.71 15.4804 251.6 15.7348 251.6 16C251.6 16.2652 251.71 16.5196 251.905 16.7071C252.1 16.8946 252.364 17 252.64 17H253.68V21C253.681 21.5302 253.9 22.0386 254.29 22.4135C254.68 22.7885 255.209 22.9994 255.76 23H257.84V24C257.841 24.5302 258.06 25.0386 258.45 25.4135C258.84 25.7885 259.369 25.9994 259.92 26H263.04C263.592 25.9994 264.12 25.7885 264.51 25.4135C264.9 25.0386 265.12 24.5302 265.12 24V17H271.36V24C271.361 24.5302 271.58 25.0386 271.97 25.4135C272.36 25.7885 272.889 25.9994 273.44 26H276.56C277.112 25.9994 277.64 25.7885 278.03 25.4135C278.42 25.0386 278.64 24.5302 278.64 24V23H280.72C281.272 22.9994 281.8 22.7885 282.19 22.4135C282.58 22.0386 282.8 21.5302 282.8 21V17H283.84C284.116 17 284.381 16.8946 284.576 16.7071C284.771 16.5196 284.88 16.2652 284.88 16C284.88 15.7348 284.771 15.4804 284.576 15.2929C284.381 15.1054 284.116 15 283.84 15ZM255.76 21V11H257.84V21H255.76ZM280.72 21H278.64V11H280.72V21Z" fill="#B096B2"/>
<rect x="90.4" y="14" width="1.04" height="44" fill="#B096B2"/>
<rect x="208.96" y="14" width="1.04" height="44" fill="#B096B2"/>
</svg>
