<svg width="390" height="460" viewBox="0 0 390 460" fill="none" xmlns="http://www.w3.org/2000/svg">
<ellipse cx="197" cy="263.5" rx="197" ry="196.5" fill="#F0D8F4" fill-opacity="0.3"/>
<circle cx="196.5" cy="263.5" r="144.5" fill="#E9B5EE" fill-opacity="0.33"/>
<g clip-path="url(#clip0_156_792)">
<path opacity="0.7" d="M136.735 111.655C137.117 99.1075 130.165 79.2492 124.359 74.6416C124.356 74.6416 124.353 74.6386 124.35 74.6355C120.06 87.6901 116.54 101.992 113.512 116.877C111.437 127.081 110.704 136.668 111.107 145.594C119.198 145.456 135.98 136.496 136.738 111.655H136.735Z" fill="#6F4572"/>
<path opacity="0.7" d="M263.546 116.877C260.509 101.746 256.986 87.22 252.668 73.9965C251.971 73.9412 251.302 74.1409 250.673 74.6415C244.867 79.249 237.915 99.1074 238.297 111.655C239.061 136.689 256.103 145.597 264.118 145.597C264.802 145.597 265.389 145.474 265.899 145.244C266.284 136.404 265.566 126.931 263.546 116.877Z" fill="#4F2054"/>
<path d="M194.488 220.7H181.348C179.359 220.7 177.715 222.171 177.425 224.091C181.211 224.69 185.027 225 188.835 225C192.043 225 195.255 224.776 198.442 224.343C198.264 222.303 196.562 220.7 194.488 220.7Z" fill="#663D6B"/>
<path d="M204.724 7.66689V7.19386C204.724 3.21911 201.519 0 197.568 0H178.879C174.925 0 171.723 3.22218 171.723 7.19386V8.16143C177.177 6.41058 182.94 5.52901 188.987 5.52901C194.506 5.52901 199.75 6.24164 204.724 7.66689Z" fill="#663D6B"/>
<path d="M264.118 150.205C259.314 150.205 251.837 147.861 245.255 141.282C240.25 136.275 234.181 127.097 233.714 111.797C233.518 105.371 235.015 96.9452 237.823 88.6824C239.513 83.7155 243.058 74.8138 247.828 71.0264C248.827 70.2339 249.955 69.7179 251.146 69.5028C238.768 33.9667 220.122 8.90796 188.835 8.90796C157.547 8.90796 138.492 34.2247 125.918 70.025L127.03 70.8912L127.073 70.9189L127.22 71.0387C131.983 74.8353 135.519 83.7186 137.206 88.6793C140.014 96.9421 141.514 105.368 141.316 111.794C140.851 126.986 134.862 136.134 129.921 141.134C123.541 147.588 116.231 150.036 111.419 150.193C115.092 190.582 142.498 216.482 172.921 223.234C173.626 219.087 177.144 216.092 181.345 216.092H194.485C198.833 216.092 202.417 219.287 202.964 223.581C233.924 217.376 261.817 191.018 265.563 150.097C265.092 150.168 264.61 150.205 264.115 150.205H264.118ZM193.122 138.348C193.333 138.13 193.583 137.958 193.88 137.832C194.173 137.706 194.482 137.642 194.808 137.642C194.833 137.642 194.854 137.642 194.879 137.642C195.087 137.663 195.285 137.709 195.475 137.777C195.762 137.878 196.015 138.032 196.232 138.232C196.449 138.431 196.621 138.677 196.746 138.969C196.871 139.261 196.935 139.592 196.935 139.967C196.935 140.317 196.874 140.646 196.755 140.95C196.636 141.254 196.477 141.515 196.278 141.739C196.08 141.964 195.844 142.139 195.566 142.268C195.291 142.394 195.001 142.458 194.702 142.458H192.431V140.032C192.431 139.706 192.495 139.399 192.621 139.107C192.746 138.818 192.914 138.563 193.125 138.345L193.122 138.348ZM196.886 142.197V145.173C196.801 145.066 196.712 144.958 196.617 144.854C196.08 144.267 195.432 143.791 194.689 143.441C194.689 143.441 194.683 143.441 194.68 143.438C195.032 143.413 195.374 143.327 195.701 143.177C196.08 143.002 196.413 142.756 196.685 142.446C196.755 142.366 196.822 142.283 196.883 142.194L196.886 142.197ZM186.873 138.05C187.527 137.768 188.227 137.623 188.972 137.623H192.453C192.453 137.623 192.428 137.645 192.419 137.657C192.129 137.958 191.89 138.314 191.719 138.711C191.539 139.125 191.447 139.568 191.447 140.032V142.458H189.064C188.984 142.458 188.905 142.474 188.832 142.501C188.327 141.383 187.652 140.388 186.818 139.543C186.503 139.224 186.164 138.929 185.809 138.655C186.136 138.419 186.491 138.216 186.876 138.05H186.873ZM189.327 143.871H191.444V146.731C191.444 147.404 191.511 148.064 191.646 148.703H189.43C189.592 147.99 189.675 147.253 189.675 146.494C189.675 145.588 189.556 144.71 189.324 143.868L189.327 143.871ZM186.118 140.24C186.91 141.042 187.539 141.982 188 143.057C188.462 144.132 188.694 145.278 188.694 146.497C188.694 147.253 188.605 147.981 188.428 148.678C187.854 148.62 187.316 148.472 186.815 148.233C186.155 147.92 185.586 147.496 185.113 146.964C184.639 146.433 184.266 145.822 183.997 145.134C183.729 144.446 183.591 143.727 183.591 142.974C183.591 142.222 183.732 141.561 184.016 140.907C184.276 140.308 184.621 139.78 185.052 139.322C185.431 139.598 185.791 139.903 186.121 140.24H186.118ZM176.545 138.33C177.608 137.872 178.732 137.642 179.921 137.642C181.11 137.642 182.256 137.875 183.325 138.339C183.631 138.471 183.924 138.619 184.205 138.781C183.753 139.288 183.383 139.869 183.105 140.514C182.769 141.288 182.601 142.117 182.601 142.974C182.601 143.174 182.61 143.377 182.628 143.573C182.292 143.257 181.904 143.008 181.47 142.821C180.991 142.615 180.474 142.513 179.921 142.513C179.368 142.513 178.867 142.615 178.381 142.821C177.895 143.026 177.467 143.309 177.104 143.671C176.93 143.843 176.774 144.031 176.633 144.23C176.496 143.656 176.306 143.097 176.068 142.56C175.6 141.515 174.983 140.578 174.225 139.767C174.913 139.184 175.686 138.701 176.545 138.33ZM175.17 142.965C175.643 144.028 175.894 145.161 175.918 146.368C175.918 147.056 175.698 147.609 175.261 148.024C174.824 148.442 174.256 148.648 173.559 148.648H171.118V146.347C171.13 145.152 171.371 144.025 171.848 142.962C172.273 142.01 172.829 141.171 173.513 140.443C174.195 141.174 174.748 142.016 175.173 142.962L175.17 142.965ZM172.019 150.552C172.23 150.782 172.395 151.047 172.514 151.348C172.633 151.649 172.694 151.962 172.694 152.287C172.694 152.699 172.581 153.086 172.352 153.455C172.123 153.823 171.775 154.143 171.307 154.413C171.246 154.45 171.182 154.484 171.118 154.518V149.938C171.173 149.959 171.228 149.981 171.283 150.005C171.564 150.137 171.811 150.319 172.022 150.549L172.019 150.552ZM161.584 155.113H150.904C150.593 155.101 150.296 155.03 150.012 154.905C149.731 154.779 149.486 154.61 149.282 154.398C149.077 154.186 148.915 153.94 148.796 153.654C148.677 153.372 148.616 153.065 148.616 152.739V133.529C148.616 133.191 148.68 132.878 148.805 132.589C148.93 132.3 149.101 132.048 149.318 131.836C149.535 131.624 149.789 131.458 150.085 131.339C150.379 131.219 150.687 131.157 151.014 131.157C151.341 131.157 151.662 131.219 151.949 131.339C152.237 131.458 152.49 131.624 152.707 131.836C152.924 132.048 153.095 132.297 153.221 132.589C153.346 132.878 153.41 133.194 153.41 133.529V150.312L158.021 150.322C158.537 151.501 159.249 152.542 160.139 153.424C160.768 154.048 161.48 154.582 162.262 155.021C162.048 155.08 161.825 155.107 161.587 155.107L161.584 155.113ZM163.781 153.7C163.662 153.989 163.494 154.238 163.28 154.447C162.357 154.001 161.538 153.427 160.826 152.721C160.123 152.026 159.552 151.228 159.106 150.325L161.584 150.331C161.92 150.331 162.232 150.395 162.522 150.521C162.809 150.647 163.063 150.819 163.28 151.037C163.497 151.255 163.665 151.507 163.784 151.799C163.903 152.088 163.964 152.404 163.964 152.739C163.964 153.074 163.903 153.409 163.784 153.697L163.781 153.7ZM170.494 143.807C170.216 143.453 169.88 143.146 169.486 142.891C168.814 142.458 168.038 142.24 167.164 142.24C166.29 142.24 165.495 142.467 164.86 142.919C164.224 143.37 163.744 143.942 163.417 144.63H170.299C170.192 145.189 170.137 145.763 170.131 146.35V148.651H163.561C163.946 149.277 164.444 149.772 165.055 150.134C165.666 150.497 166.339 150.678 167.072 150.678C167.539 150.678 167.915 150.638 168.196 150.561C168.478 150.481 168.734 150.377 168.96 150.245C169.202 150.088 169.437 149.978 169.672 149.91C169.828 149.867 169.978 149.839 170.128 149.824V154.914C169.944 154.969 169.752 155.021 169.547 155.07C168.844 155.233 168.019 155.316 167.072 155.316C166.125 155.316 165.138 155.16 164.242 154.849C164.423 154.619 164.572 154.364 164.689 154.084C164.857 153.676 164.945 153.224 164.945 152.745C164.945 152.266 164.86 151.833 164.689 151.421C164.52 151.013 164.279 150.65 163.973 150.343C163.671 150.039 163.313 149.796 162.916 149.621C162.504 149.44 162.058 149.348 161.587 149.348L158.69 149.342C158.375 148.445 158.217 147.499 158.217 146.5C158.217 145.269 158.452 144.117 158.919 143.042C159.387 141.967 160.022 141.03 160.829 140.225C161.633 139.423 162.574 138.791 163.647 138.333C164.722 137.875 165.865 137.645 167.078 137.645C168.291 137.645 169.41 137.872 170.473 138.324C171.338 138.692 172.114 139.175 172.801 139.767C172.041 140.575 171.417 141.515 170.95 142.563C170.769 142.968 170.617 143.383 170.497 143.81L170.494 143.807ZM182.518 153.974C182.622 154.266 182.76 154.536 182.928 154.776C181.978 155.132 180.975 155.31 179.921 155.31C179.2 155.31 178.503 155.224 177.831 155.055C177.159 154.886 176.517 154.643 175.903 154.33V158.858C175.903 159.208 175.845 159.537 175.732 159.844C175.619 160.151 175.46 160.421 175.255 160.649C175.05 160.879 174.806 161.057 174.516 161.183C174.228 161.309 173.911 161.373 173.562 161.373C173.214 161.373 172.911 161.309 172.618 161.183C172.325 161.057 172.065 160.879 171.845 160.649C171.622 160.418 171.445 160.151 171.313 159.844C171.182 159.537 171.115 159.208 171.115 158.858V155.605C171.359 155.504 171.588 155.39 171.796 155.27C172.404 154.917 172.872 154.484 173.186 153.977C173.513 153.452 173.678 152.88 173.678 152.287C173.678 151.839 173.593 151.397 173.428 150.979C173.263 150.567 173.034 150.199 172.743 149.879C172.667 149.793 172.584 149.713 172.499 149.637H173.559C174.513 149.637 175.313 149.336 175.937 148.743C176.089 148.598 176.224 148.439 176.343 148.267C176.542 148.66 176.795 149.01 177.104 149.317C177.47 149.68 177.895 149.962 178.381 150.168C178.867 150.374 179.38 150.475 179.921 150.475C180.462 150.475 180.991 150.374 181.47 150.168C181.95 149.962 182.372 149.68 182.732 149.317C183.093 148.955 183.377 148.534 183.588 148.049C183.735 147.711 183.829 147.354 183.872 146.98C184.028 147.204 184.196 147.416 184.376 147.619C184.936 148.248 185.614 148.752 186.39 149.121C186.515 149.179 186.641 149.234 186.769 149.283H185.479C184.572 149.283 183.777 149.609 183.188 150.22C182.598 150.835 182.298 151.646 182.298 152.635C182.298 153.111 182.372 153.559 182.518 153.968V153.974ZM183.444 153.642C183.337 153.338 183.282 153.006 183.282 152.644C183.282 151.916 183.487 151.341 183.894 150.918C184.303 150.494 184.829 150.282 185.479 150.282H187.838C187.395 151.203 186.821 152.017 186.118 152.727C185.458 153.39 184.703 153.934 183.854 154.367C183.68 154.161 183.542 153.922 183.441 153.645L183.444 153.642ZM194.592 154.625C193.944 154.926 193.235 155.089 192.468 155.113H185.479C185.22 155.113 184.981 155.074 184.758 154.997C185.516 154.561 186.204 154.035 186.815 153.424C187.692 152.542 188.395 151.501 188.905 150.322C188.911 150.309 188.917 150.294 188.923 150.282H191.93C191.991 150.282 192.055 150.276 192.123 150.269C192.44 151.065 192.853 151.808 193.36 152.481C193.876 153.169 194.485 153.783 195.172 154.318C194.989 154.432 194.799 154.536 194.598 154.628L194.592 154.625ZM195.985 153.694C195.276 153.175 194.662 152.573 194.142 151.882C193.626 151.197 193.223 150.438 192.923 149.609C192.929 149.56 192.935 149.511 192.935 149.455C192.935 149.277 192.902 149.136 192.838 149.035C192.801 148.976 192.752 148.927 192.7 148.887C192.52 148.196 192.431 147.477 192.431 146.731V143.874C193.174 143.89 193.864 144.043 194.494 144.341C195.16 144.654 195.734 145.075 196.214 145.6C196.645 146.07 196.987 146.608 197.244 147.207C197.274 147.278 197.302 147.348 197.332 147.419C197.47 147.781 197.574 148.15 197.638 148.528C197.699 148.869 197.73 149.219 197.73 149.572C197.73 150.322 197.601 151.025 197.342 151.682C197.082 152.34 196.724 152.92 196.26 153.421C196.171 153.516 196.08 153.605 195.985 153.694ZM209.503 146.731C209.503 147.72 209.351 148.66 209.045 149.548C208.739 150.435 208.309 151.237 207.759 151.956C207.205 152.675 206.552 153.295 205.797 153.82C205.039 154.346 204.217 154.742 203.328 155.006V158.953C203.328 159.303 203.267 159.626 203.147 159.921C203.028 160.215 202.86 160.473 202.643 160.689C202.426 160.907 202.176 161.076 201.885 161.195C201.598 161.315 201.283 161.377 200.947 161.377C200.611 161.377 200.293 161.315 199.994 161.195C199.695 161.076 199.432 160.907 199.212 160.689C198.989 160.47 198.818 160.215 198.698 159.921C198.579 159.626 198.518 159.303 198.518 158.953V154.969C197.925 154.785 197.366 154.542 196.834 154.241C196.883 154.192 196.932 154.143 196.978 154.094C197.522 153.504 197.95 152.816 198.252 152.045C198.53 151.335 198.68 150.574 198.704 149.781C198.943 149.953 199.206 150.1 199.49 150.217C199.945 150.405 200.443 150.497 200.984 150.497C201.525 150.497 202.005 150.395 202.46 150.19C202.915 149.984 203.309 149.707 203.639 149.357C203.969 149.007 204.232 148.598 204.422 148.135C204.614 147.671 204.709 147.173 204.709 146.642V140.035C204.709 139.709 204.779 139.402 204.917 139.11C205.054 138.821 205.231 138.566 205.448 138.348C205.665 138.13 205.922 137.958 206.221 137.832C206.521 137.706 206.833 137.642 207.16 137.642C207.487 137.642 207.804 137.706 208.089 137.832C208.37 137.958 208.62 138.13 208.837 138.348C209.054 138.566 209.219 138.818 209.332 139.11C209.445 139.399 209.503 139.709 209.503 140.035V146.734V146.731ZM215.291 144.879C214.777 144.863 214.356 144.406 214.359 143.868C214.359 143.33 214.799 142.882 215.315 142.888C215.826 142.894 216.287 143.358 216.296 143.871C216.305 144.381 215.795 144.894 215.294 144.879H215.291ZM226.377 141.838C225.86 141.951 224.256 141.905 223.737 141.914C222.744 141.93 222.273 142.381 222.227 143.377C222.203 143.886 222.206 144.396 222.169 144.903C222.087 146.037 221.204 146.844 220.097 146.823C218.991 146.798 218.09 145.917 218.056 144.805C218.041 144.295 218.056 143.785 218.05 143.278C218.035 142.351 217.613 141.924 216.699 141.914C215.926 141.908 215.153 141.924 214.38 141.911C213.317 141.893 212.486 141.171 212.25 140.078C212.058 139.184 212.571 138.161 213.421 137.734C213.754 137.565 214.108 137.534 214.469 137.525C215.095 137.51 215.722 137.559 216.345 137.479C217.02 137.393 217.974 137.024 218.007 136.352C218.041 135.67 218.026 134.985 218.065 134.303C218.123 133.289 218.927 132.448 219.908 132.331C220.947 132.208 221.949 132.841 222.197 133.864C222.447 134.902 222.356 136.054 222.074 136.849C221.564 138.287 220.397 138.686 219.352 138.695C217.98 138.708 216.605 138.701 215.233 138.698C214.961 138.698 214.695 138.72 214.463 138.87C214.139 139.082 213.94 139.374 214.023 139.783C214.111 140.219 214.469 140.508 214.949 140.52C215.547 140.535 216.149 140.523 216.748 140.526C218.236 140.532 219.104 141.408 219.107 142.907C219.107 143.484 219.101 144.058 219.113 144.636C219.129 145.263 219.498 145.662 220.045 145.677C220.66 145.696 221.032 145.364 221.1 144.719C221.191 143.837 221.115 142.95 221.136 142.381C221.136 141.358 221.127 140.646 221.136 139.936C221.155 138.502 222.053 137.577 223.477 137.528C223.957 137.513 225.524 137.513 226.004 137.525C227.202 137.55 228.076 138.4 228.174 139.617C228.25 140.591 227.419 141.604 226.377 141.832V141.838Z" fill="#663D6B"/>
</g>
<path d="M105.671 246.545L109.251 258.852H109.387L112.967 246.545H118.319L112.558 264H106.08L100.319 246.545H105.671ZM124.739 246.545V264H120V246.545H124.739ZM142.087 246.545V264H138.132L131.825 254.83H131.723V264H126.984V246.545H131.007L137.212 255.682H137.348V246.545H142.087ZM160.624 253.091H155.817C155.783 252.693 155.692 252.332 155.544 252.009C155.402 251.685 155.203 251.406 154.947 251.173C154.697 250.935 154.393 250.753 154.036 250.628C153.678 250.497 153.271 250.432 152.817 250.432C152.021 250.432 151.348 250.625 150.797 251.011C150.251 251.398 149.837 251.952 149.553 252.673C149.274 253.395 149.135 254.261 149.135 255.273C149.135 256.341 149.277 257.236 149.561 257.957C149.851 258.673 150.268 259.213 150.814 259.577C151.359 259.935 152.016 260.114 152.783 260.114C153.22 260.114 153.612 260.06 153.959 259.952C154.305 259.838 154.607 259.676 154.862 259.466C155.118 259.256 155.325 259.003 155.484 258.707C155.649 258.406 155.76 258.068 155.817 257.693L160.624 257.727C160.567 258.466 160.359 259.219 160.001 259.986C159.643 260.747 159.135 261.452 158.476 262.099C157.822 262.741 157.013 263.259 156.047 263.651C155.081 264.043 153.959 264.239 152.68 264.239C151.078 264.239 149.641 263.895 148.368 263.207C147.101 262.52 146.098 261.509 145.359 260.173C144.626 258.838 144.26 257.205 144.26 255.273C144.26 253.33 144.635 251.693 145.385 250.364C146.135 249.028 147.146 248.02 148.419 247.338C149.692 246.651 151.112 246.307 152.68 246.307C153.783 246.307 154.797 246.457 155.723 246.759C156.649 247.06 157.462 247.5 158.161 248.08C158.859 248.653 159.422 249.361 159.848 250.202C160.274 251.043 160.533 252.006 160.624 253.091ZM173.103 246.545H177.842V257.727C177.842 259.057 177.523 260.207 176.887 261.179C176.256 262.145 175.376 262.892 174.245 263.42C173.114 263.943 171.802 264.205 170.308 264.205C168.802 264.205 167.484 263.943 166.353 263.42C165.222 262.892 164.342 262.145 163.711 261.179C163.086 260.207 162.773 259.057 162.773 257.727V246.545H167.512V257.318C167.512 257.858 167.631 258.341 167.87 258.767C168.109 259.187 168.438 259.517 168.859 259.756C169.285 259.994 169.768 260.114 170.308 260.114C170.853 260.114 171.336 259.994 171.756 259.756C172.177 259.517 172.506 259.187 172.745 258.767C172.984 258.341 173.103 257.858 173.103 257.318V246.545ZM180.094 264V246.545H184.832V260.182H191.889V264H180.094ZM198.339 264H193.225L198.987 246.545H205.464L211.225 264H206.112L202.293 251.352H202.157L198.339 264ZM197.384 257.114H206.998V260.659H197.384V257.114ZM228.009 246.545V264H224.054L217.747 254.83H217.645V264H212.906V246.545H216.929L223.134 255.682H223.27V246.545H228.009ZM236.966 264H230.25V246.545H236.898C238.693 246.545 240.244 246.895 241.551 247.594C242.864 248.287 243.875 249.287 244.585 250.594C245.301 251.895 245.659 253.455 245.659 255.273C245.659 257.091 245.304 258.653 244.594 259.96C243.884 261.261 242.878 262.261 241.577 262.96C240.276 263.653 238.739 264 236.966 264ZM234.989 259.977H236.795C237.659 259.977 238.395 259.838 239.003 259.56C239.616 259.281 240.082 258.801 240.401 258.119C240.724 257.437 240.886 256.489 240.886 255.273C240.886 254.057 240.722 253.108 240.392 252.426C240.068 251.744 239.591 251.264 238.96 250.986C238.335 250.707 237.568 250.568 236.659 250.568H234.989V259.977ZM264.761 255.273C264.761 257.216 264.383 258.855 263.627 260.19C262.871 261.52 261.852 262.528 260.567 263.216C259.283 263.898 257.852 264.239 256.272 264.239C254.681 264.239 253.244 263.895 251.96 263.207C250.681 262.514 249.664 261.503 248.908 260.173C248.158 258.838 247.783 257.205 247.783 255.273C247.783 253.33 248.158 251.693 248.908 250.364C249.664 249.028 250.681 248.02 251.96 247.338C253.244 246.651 254.681 246.307 256.272 246.307C257.852 246.307 259.283 246.651 260.567 247.338C261.852 248.02 262.871 249.028 263.627 250.364C264.383 251.693 264.761 253.33 264.761 255.273ZM259.886 255.273C259.886 254.227 259.746 253.347 259.468 252.631C259.195 251.909 258.789 251.364 258.249 250.994C257.715 250.619 257.056 250.432 256.272 250.432C255.488 250.432 254.826 250.619 254.286 250.994C253.752 251.364 253.346 251.909 253.067 252.631C252.795 253.347 252.658 254.227 252.658 255.273C252.658 256.318 252.795 257.202 253.067 257.923C253.346 258.639 253.752 259.185 254.286 259.56C254.826 259.929 255.488 260.114 256.272 260.114C257.056 260.114 257.715 259.929 258.249 259.56C258.789 259.185 259.195 258.639 259.468 257.923C259.746 257.202 259.886 256.318 259.886 255.273ZM268.477 264.273C267.817 264.273 267.252 264.043 266.781 263.582C266.315 263.116 266.085 262.551 266.09 261.886C266.085 261.239 266.315 260.685 266.781 260.224C267.252 259.764 267.817 259.534 268.477 259.534C269.102 259.534 269.653 259.764 270.13 260.224C270.613 260.685 270.857 261.239 270.863 261.886C270.857 262.33 270.741 262.733 270.513 263.097C270.292 263.455 270.002 263.741 269.644 263.957C269.286 264.168 268.897 264.273 268.477 264.273ZM275.977 264.273C275.317 264.273 274.752 264.043 274.281 263.582C273.815 263.116 273.585 262.551 273.59 261.886C273.585 261.239 273.815 260.685 274.281 260.224C274.752 259.764 275.317 259.534 275.977 259.534C276.602 259.534 277.153 259.764 277.63 260.224C278.113 260.685 278.357 261.239 278.363 261.886C278.357 262.33 278.241 262.733 278.013 263.097C277.792 263.455 277.502 263.741 277.144 263.957C276.786 264.168 276.397 264.273 275.977 264.273ZM283.477 264.273C282.817 264.273 282.252 264.043 281.781 263.582C281.315 263.116 281.085 262.551 281.09 261.886C281.085 261.239 281.315 260.685 281.781 260.224C282.252 259.764 282.817 259.534 283.477 259.534C284.102 259.534 284.653 259.764 285.13 260.224C285.613 260.685 285.857 261.239 285.863 261.886C285.857 262.33 285.741 262.733 285.513 263.097C285.292 263.455 285.002 263.741 284.644 263.957C284.286 264.168 283.897 264.273 283.477 264.273Z" fill="#AA83B2"/>
<defs>
<clipPath id="clip0_156_792">
<rect width="155" height="225" fill="white" transform="translate(111)"/>
</clipPath>
</defs>
</svg>
